<?xml version="1.0" encoding="UTF-8"?>
<svg width="243px" height="23px" viewBox="0 0 243 23" version="1.1" xmlns="http://www.w3.org/2000/svg" xmlns:xlink="http://www.w3.org/1999/xlink">
    <title>logo</title>
    <desc>Created by Old_Hong</desc>
        <g id="home" transform="translate(-26.000000, -21.000000)" fill="#FFFFFF">
                <g id="logo" transform="translate(24.000000, 16.000000)" fill="#FFFFFF">
                    <path d="M22.7360002,13.5872001 C22.7360002,13.8272013 22.7240003,14.0111995 22.7000002,14.1392001 C22.6760001,14.2672007 22.6200007,14.3591998 22.5320002,14.4152001 C22.4439998,14.4712004 22.3040012,14.4992001 22.1120002,14.4992001 C21.9199993,14.4992001 21.6560019,14.4832003 21.3200002,14.4512001 C20.3599954,14.3551996 19.3120059,14.2952002 18.1760002,14.2712001 C17.0399945,14.2472 15.896006,14.2991995 14.7440002,14.4272001 C14.696,14.5872009 14.6560004,14.7511993 14.6240002,14.9192001 C14.5920001,15.0872009 14.5600004,15.2431994 14.5280002,15.3872001 C15.1200032,15.2111992 15.7439969,15.1831995 16.4000002,15.3032001 C17.0560035,15.4232007 17.6399977,15.6431985 18.1520002,15.9632001 C18.3920014,16.1072008 18.5799995,16.2311996 18.7160002,16.3352001 C18.8520009,16.4392006 18.9479999,16.5591994 19.0040002,16.6952001 C19.0600005,16.8312008 19.0800003,16.9991991 19.0640002,17.1992001 C19.0480001,17.3992011 19.0080005,17.6591985 18.9440002,17.9792001 C18.8799999,18.3472019 18.8080006,18.6831986 18.7280002,18.9872001 C18.6479998,19.2912016 18.5600007,19.5991985 18.4640002,19.9112001 C18.3679997,20.2232017 18.2520009,20.5551983 18.1160002,20.9072001 C17.9799995,21.2592019 17.8240011,21.6591979 17.6480002,22.1072001 C17.5199996,22.4272017 17.4120007,22.6271997 17.3240002,22.7072001 C17.2359998,22.7872005 17.0480017,22.8431999 16.7600002,22.8752001 C16.5999994,22.9072003 16.4640008,22.9192001 16.3520002,22.9112001 C16.2399997,22.9032001 16.1320007,22.8632005 16.0280002,22.7912001 C15.9239997,22.7191997 15.8120008,22.6072009 15.6920002,22.4552001 C15.5719996,22.3031993 15.4240011,22.0912015 15.2480002,21.8192001 C13.7439927,22.0592013 12.6520036,22.3311986 11.9720002,22.6352001 C11.2919968,22.9392016 10.976,23.1551995 11.0240002,23.2832001 C11.2960016,23.2031997 11.4320002,23.1831999 11.4320002,23.2232001 C11.4320002,23.2632003 11.3440011,23.3311996 11.1680002,23.4272001 C10.9919993,23.5392007 10.8680006,23.6351997 10.7960002,23.7152001 C10.7239999,23.7952005 10.6640005,23.9231992 10.6160002,24.0992001 C10.4399993,24.675203 10.176002,25.0591991 9.82400021,25.2512001 C9.55199885,25.4112009 9.35200085,25.5911991 9.22400021,25.7912001 C9.09599957,25.9912011 8.96800085,26.299198 8.84000021,26.7152001 C8.72799965,27.0352017 8.60800085,27.2072 8.48000021,27.2312001 C8.35199957,27.2552002 8.25600053,27.1952008 8.19200021,27.0512001 C8.06399957,26.7471986 7.96800053,26.5352007 7.90400021,26.4152001 C7.83999989,26.2951995 7.76800061,26.2112003 7.68800021,26.1632001 C7.57599965,26.0671996 7.48400057,25.9072012 7.41200021,25.6832001 C7.33999985,25.459199 7.29600029,25.2272013 7.28000021,24.9872001 C7.26400013,24.7471989 7.27200005,24.5192012 7.30400021,24.3032001 C7.33600037,24.087199 7.39199981,23.9392005 7.47200021,23.8592001 C7.60000085,23.7311995 7.69599989,23.6792 7.76000021,23.7032001 C7.82400053,23.7272002 7.84800029,23.8031995 7.83200021,23.9312001 C7.80000005,24.2192015 7.83999965,24.4431993 7.95200021,24.6032001 C8.06400077,24.7632009 8.17599965,24.8192003 8.28800021,24.7712001 C8.51200133,24.6751996 8.71999925,24.5832005 8.91200021,24.4952001 C9.10400117,24.4071997 9.29999921,24.3112006 9.50000021,24.2072001 C9.70000121,24.1031996 9.90399917,23.9872007 10.1120002,23.8592001 C10.3200013,23.7311995 10.5519989,23.579201 10.8080002,23.4032001 C10.5519989,23.2591994 10.3520009,23.095201 10.2080002,22.9112001 C10.0639995,22.7271992 9.95200061,22.4592019 9.87200021,22.1072001 C9.61599893,21.883199 9.39600113,21.5632022 9.21200021,21.1472001 C9.02799929,20.731198 8.88800069,20.2792025 8.79200021,19.7912001 C8.69599973,19.3031977 8.64400025,18.8192025 8.63600021,18.3392001 C8.62800017,17.8591977 8.67199973,17.4432019 8.76800021,17.0912001 C8.86400069,16.7551984 8.97199961,16.5832001 9.09200021,16.5752001 C9.21200081,16.5672001 9.26400029,16.6431993 9.24800021,16.8032001 C9.19999997,17.3152027 9.27999917,17.8591972 9.48800021,18.4352001 C9.52000037,18.2271991 9.58799969,18.0192011 9.69200021,17.8112001 C9.79600073,17.6031991 9.96399905,17.3952011 10.1960002,17.1872001 C10.4280014,16.9791991 10.7439982,16.7752011 11.1440002,16.5752001 C11.5440022,16.3751991 12.0559971,16.1712011 12.6800002,15.9632001 C12.6800002,15.5631981 12.5600014,15.2192015 12.3200002,14.9312001 C12.2079997,14.9632003 12.1120006,14.9872 12.0320002,15.0032001 C11.9519998,15.0192002 11.8640007,15.0431999 11.7680002,15.0752001 C11.72,15.4912022 11.6320009,15.7072 11.5040002,15.7232001 C11.3759996,15.7392002 11.2000013,15.5872017 10.9760002,15.2672001 C10.7839993,15.2992003 10.5480016,15.3631996 10.2680002,15.4592001 C9.98799881,15.5552006 9.68800181,15.6671995 9.36800021,15.7952001 C9.04799861,15.9232007 8.72400185,16.0631993 8.39600021,16.2152001 C8.06799857,16.3672009 7.76800157,16.5151994 7.49600021,16.6592001 C6.59999573,17.1552026 5.86400309,17.5351988 5.28800021,17.7992001 C4.71199733,18.0632014 4.23600209,18.2391997 3.86000021,18.3272001 C3.48399833,18.4152005 3.18000137,18.4192005 2.94800021,18.3392001 C2.71599905,18.2591997 2.50400117,18.1232011 2.31200021,17.9312001 C2.16799949,17.7871994 2.07200045,17.623201 2.02400021,17.4392001 C1.97599997,17.2551992 1.99999973,17.0352014 2.09600021,16.7792001 C2.17600061,16.6031992 2.23600001,16.4992003 2.27600021,16.4672001 C2.31600041,16.4351999 2.37599981,16.4511998 2.45600021,16.5152001 C2.56800077,16.6112006 2.73999905,16.6472002 2.97200021,16.6232001 C3.20400137,16.5992 3.47199869,16.5072009 3.77600021,16.3472001 C3.98400125,16.2351995 4.25199857,16.1112008 4.58000021,15.9752001 C4.90800185,15.8391994 5.32399769,15.6872009 5.82800021,15.5192001 C6.33200273,15.3511993 6.93999665,15.1552012 7.65200021,14.9312001 C8.36400377,14.707199 9.21599525,14.4432016 10.2080002,14.1392001 C10.0799996,13.8511987 9.99200045,13.6072011 9.94400021,13.4072001 C9.89599997,13.2071991 9.88000013,12.9632015 9.89600021,12.6752001 C9.47999813,12.4351989 9.15200141,12.223201 8.91200021,12.0392001 C8.67199901,11.8551992 8.40800165,11.6032017 8.12000021,11.2832001 C7.99199957,11.1551995 7.90800041,11.0592004 7.86800021,10.9952001 C7.82800001,10.9311998 7.79200037,10.8592005 7.76000021,10.7792001 C7.72800005,10.6511995 7.74799985,10.5672003 7.82000021,10.5272001 C7.89200057,10.4871999 7.97599973,10.5231995 8.07200021,10.6352001 C8.12000045,10.6832003 8.17999985,10.7231999 8.25200021,10.7552001 C8.32400057,10.7872003 8.43199949,10.7992001 8.57600021,10.7912001 C8.72000093,10.7832001 8.91599897,10.7512004 9.16400021,10.6952001 C9.41200145,10.6391998 9.72799829,10.5552007 10.1120002,10.4432001 C10.1760005,9.86719721 10.228,9.41120177 10.2680002,9.07520009 C10.3080004,8.73919841 10.3360001,8.48320097 10.3520002,8.30720009 C10.3680003,8.13119921 10.3680003,8.01120041 10.3520002,7.94720009 C10.3360001,7.88319977 10.3120004,7.83520025 10.2800002,7.80320009 C10.1519996,7.67519945 10.1199999,7.56720053 10.1840002,7.47920009 C10.2480005,7.39119965 10.3919991,7.37919977 10.6160002,7.44320009 C10.776001,7.49120033 10.9639991,7.59919925 11.1800002,7.76720009 C11.3960013,7.93520093 11.6559987,8.19519833 11.9600002,8.54720009 C12.1680013,8.08319777 12.3359996,7.73120129 12.4640002,7.49120009 C12.5920009,7.25119889 12.6879999,7.09520045 12.7520002,7.02320009 C12.8160005,6.95119973 12.8560001,6.95119973 12.8720002,7.02320009 C12.8880003,7.09520045 12.8800004,7.21119929 12.8480002,7.37120009 C12.7679998,7.78720217 12.6720008,8.07519929 12.5600002,8.23520009 C12.5280001,8.28320033 12.5000003,8.36719949 12.4760002,8.48720009 C12.4520001,8.60720069 12.4320003,8.73519941 12.4160002,8.87120009 C12.4000001,9.00720077 12.4000001,9.14319941 12.4160002,9.27920009 C12.4320003,9.41520077 12.464,9.51519977 12.5120002,9.57920009 C12.8160017,9.49919969 13.0719992,9.43120037 13.2800002,9.37520009 C13.4880013,9.31919981 13.6999991,9.26320037 13.9160002,9.20720009 C14.1320013,9.15119981 14.3759989,9.09120041 14.6480002,9.02720009 C14.9200016,8.96319977 15.2639981,8.88320057 15.6800002,8.78720009 C15.7440005,8.03519633 15.7840001,7.44320225 15.8000002,7.01120009 C15.8160003,6.57919793 15.8040004,6.25520117 15.7640002,6.03920009 C15.724,5.82319901 15.6520007,5.68720037 15.5480002,5.63120009 C15.4439997,5.57519981 15.3040011,5.54720009 15.1280002,5.54720009 C14.8079986,5.54720009 14.6320004,5.50320053 14.6000002,5.41520009 C14.5680001,5.32719965 14.6239995,5.24320049 14.7680002,5.16320009 C14.8960009,5.08319969 15.083999,5.03120021 15.3320002,5.00720009 C15.5800015,4.98319997 15.8799985,5.01919961 16.2320002,5.11520009 C16.584002,5.21120057 16.8719991,5.33119937 17.0960002,5.47520009 C17.3200013,5.61920081 17.4879997,5.76719933 17.6000002,5.91920009 C17.7120008,6.07120085 17.7760001,6.22319933 17.7920002,6.37520009 C17.8080003,6.52720085 17.7920005,6.65919953 17.7440002,6.77120009 C17.6799999,6.91520081 17.6080006,7.16719829 17.5280002,7.52720009 C17.4479998,7.88720189 17.3840005,8.20319873 17.3360002,8.47520009 C17.7040021,8.49120017 18.0039991,8.57919929 18.2360002,8.73920009 C18.4680014,8.89920089 18.6559995,9.13919849 18.8000002,9.45920009 C19.0400014,10.0032028 19.1400004,10.387199 19.1000002,10.6112001 C19.06,10.8352012 18.9280013,10.9232003 18.7040002,10.8752001 C18.5759996,10.8431999 18.3640017,10.8431999 18.0680002,10.8752001 C17.7719987,10.9072003 17.2960035,10.9871995 16.6400002,11.1152001 C16.5599998,11.4032015 16.4680007,11.6631989 16.3640002,11.8952001 C16.2599997,12.1272013 16.1200011,12.4111984 15.9440002,12.7472001 C17.0480057,12.7151999 18.0439958,12.6712004 18.9320002,12.6152001 C19.8200047,12.5591998 20.4639982,12.4912005 20.8640002,12.4112001 C21.2000019,12.3471998 21.4519994,12.3272 21.6200002,12.3512001 C21.7880011,12.3752002 21.9599993,12.4511995 22.1360002,12.5792001 C22.3920015,12.755201 22.5559999,12.9151994 22.6280002,13.0592001 C22.7000006,13.2032008 22.7360002,13.3791991 22.7360002,13.5872001 Z M20.2880002,26.0192001 C20.0639991,26.5152026 19.9160006,26.7951998 19.8440002,26.8592001 C19.7719999,26.9232004 19.6880007,26.8912007 19.5920002,26.7632001 C19.2399985,26.2191974 18.8480024,25.9232003 18.4160002,25.8752001 C18.1599989,25.8431999 17.9600009,25.7632007 17.8160002,25.6352001 C17.6719995,25.5071995 17.4880013,25.2752018 17.2640002,24.9392001 C17.0879993,24.6831988 17.0319999,24.5272004 17.0960002,24.4712001 C17.1600005,24.4151998 17.3919982,24.4111999 17.7920002,24.4592001 C18.2720026,24.5232004 18.5719996,24.5232004 18.6920002,24.4592001 C18.8120008,24.3951998 18.8880001,24.2432013 18.9200002,24.0032001 C19.0000006,23.4911975 18.7440032,23.1552009 18.1520002,22.9952001 C17.9439992,22.9311998 17.8520001,22.8672004 17.8760002,22.8032001 C17.9000003,22.7391998 18.0239991,22.6992002 18.2480002,22.6832001 C18.7440027,22.6511999 19.1759984,22.7271992 19.5440002,22.9112001 C19.9120021,23.095201 20.1519997,23.3551984 20.2640002,23.6912001 C20.4080009,24.1552024 20.4800002,24.5911981 20.4800002,24.9992001 C20.4800002,25.4072021 20.4160009,25.7471987 20.2880002,26.0192001 Z M14.9120002,11.4512001 C14.7839996,11.4832003 14.6120013,11.5351997 14.3960002,11.6072001 C14.1799991,11.6792005 14.0080009,11.7551997 13.8800002,11.8352001 C13.6239989,11.9952009 13.4080011,12.1271996 13.2320002,12.2312001 C13.0559993,12.3352006 12.9000009,12.4231997 12.7640002,12.4952001 C12.6279995,12.5672005 12.5000008,12.6311998 12.3800002,12.6872001 C12.2599996,12.7432004 12.120001,12.8031998 11.9600002,12.8672001 C11.912,13.0112008 11.8840003,13.1511994 11.8760002,13.2872001 C11.8680002,13.4232008 11.8560003,13.5551995 11.8400002,13.6832001 C12.0160011,13.6351999 12.1759995,13.5912003 12.3200002,13.5512001 C12.4640009,13.5111999 12.6159994,13.4712003 12.7760002,13.4312001 C12.936001,13.3911999 13.1079993,13.3472003 13.2920002,13.2992001 C13.4760011,13.2511999 13.7039989,13.1952004 13.9760002,13.1312001 C14.136001,12.9231991 14.2999994,12.6632017 14.4680002,12.3512001 C14.6360011,12.0391985 14.7839996,11.7392015 14.9120002,11.4512001 Z M17.2160002,17.3312001 C17.2640005,17.0111985 17.2000011,16.7752009 17.0240002,16.6232001 C16.8479993,16.4711993 16.4720031,16.4111999 15.8960002,16.4432001 C15.7199993,16.4592002 15.4880017,16.5151996 15.2000002,16.6112001 C14.9119988,16.7072006 14.6160017,16.8351993 14.3120002,16.9952001 C14.2319998,17.2192012 14.216,17.443199 14.2640002,17.6672001 C15.0640042,17.6992003 15.5919989,17.8111991 15.8480002,18.0032001 C16.1040015,18.1952011 16.2160004,18.4431986 16.1840002,18.7472001 C16.1680001,19.0512016 16.3039988,19.2032001 16.5920002,19.2032001 C16.7200009,18.979199 16.8439996,18.6952018 16.9640002,18.3512001 C17.0840008,18.0071984 17.168,17.6672018 17.2160002,17.3312001 Z M12.6800002,18.0992001 C12.6960003,17.8591989 12.6960003,17.6352011 12.6800002,17.4272001 C12.5359995,17.4592003 12.4080008,17.4872 12.2960002,17.5112001 C12.1839997,17.5352002 12.0560009,17.5552 11.9120002,17.5712001 C11.7679995,17.5872002 11.5960012,17.6072 11.3960002,17.6312001 C11.1959992,17.6552002 10.9360018,17.6831999 10.6160002,17.7152001 C10.3279988,17.7472003 10.1240008,17.875199 10.0040002,18.0992001 C9.88399961,18.3232012 9.80800037,18.7711967 9.77600021,19.4432001 C9.95200109,20.0832033 10.0879997,20.5511986 10.1840002,20.8472001 C10.2800007,21.1432016 10.3919996,21.403199 10.5200002,21.6272001 C10.7760015,21.5471997 11.0319989,21.4712005 11.2880002,21.3992001 C11.5440015,21.3271997 11.8719982,21.2352007 12.2720002,21.1232001 C12.3520006,20.9791994 12.416,20.815201 12.4640002,20.6312001 C12.5120005,20.4471992 12.5520001,20.2592011 12.5840002,20.0672001 C11.943997,20.0351999 11.448002,19.9912004 11.0960002,19.9352001 C10.7439985,19.8791998 10.492001,19.8112005 10.3400002,19.7312001 C10.1879995,19.6511997 10.1200001,19.5672005 10.1360002,19.4792001 C10.1520003,19.3911997 10.1999998,19.3072005 10.2800002,19.2272001 C10.4560011,19.0511992 10.7119985,18.8792009 11.0480002,18.7112001 C11.3840019,18.5431993 11.9279965,18.3392013 12.6800002,18.0992001 Z M16.5920002,19.3712001 C16.4159993,19.3391999 16.2560009,19.3232001 16.1120002,19.3232001 C15.9679995,19.3232001 15.8080011,19.3352 15.6320002,19.3592001 C15.4559993,19.3832002 15.2440015,19.4311997 14.9960002,19.5032001 C14.747999,19.5752005 14.4240022,19.6671995 14.0240002,19.7792001 C14.0080001,19.9712011 13.9920003,20.1391994 13.9760002,20.2832001 C13.9600001,20.4272008 13.9360004,20.5871992 13.9040002,20.7632001 C14.2400019,20.6671996 14.5479988,20.6112002 14.8280002,20.5952001 C15.1080016,20.5792 15.4079986,20.6111997 15.7280002,20.6912001 C15.9200012,20.6431999 16.0679997,20.5392009 16.1720002,20.3792001 C16.2760007,20.2191993 16.4159993,19.8832027 16.5920002,19.3712001 Z M46.0640002,8.42720009 C46.016,8.65120121 45.8440017,8.80319969 45.5480002,8.88320009 C45.2519987,8.96320049 44.9360019,8.94720065 44.6000002,8.83520009 C44.5039997,8.80319993 44.376001,8.75120045 44.2160002,8.67920009 C44.0559994,8.60719973 43.8840011,8.51520065 43.7000002,8.40320009 C43.5159993,8.29119953 43.3320011,8.16320081 43.1480002,8.01920009 C42.9639993,7.87519937 42.8000009,7.72320089 42.6560002,7.56320009 C42.5599997,7.43519945 42.5959994,7.31120069 42.7640002,7.19120009 C42.9320011,7.07119949 43.3679967,6.97920041 44.0720002,6.91520009 C44.2160009,6.89920001 44.4039991,6.94319957 44.6360002,7.04720009 C44.8680014,7.15120061 45.0919991,7.28319929 45.3080002,7.44320009 C45.5240013,7.60320089 45.7079995,7.77119921 45.8600002,7.94720009 C46.012001,8.12320097 46.0800003,8.28319937 46.0640002,8.42720009 Z M34.3520002,10.5152001 C34.3520002,10.691201 34.3320004,10.8311996 34.2920002,10.9352001 C34.252,11.0392006 34.152001,11.1191998 33.9920002,11.1752001 C33.8319994,11.2312004 33.5840019,11.2712 33.2480002,11.2952001 C32.9119985,11.3192002 32.4560031,11.3312001 31.8800002,11.3312001 C31.2719972,11.3312001 30.8040019,11.3232002 30.4760002,11.3072001 C30.1479986,11.2912 29.9200009,11.2672003 29.7920002,11.2352001 C29.6639996,11.2031999 29.6160001,11.1632003 29.6480002,11.1152001 C29.6800004,11.0671999 29.7519997,11.0032005 29.8640002,10.9232001 C30.3120025,10.6511987 30.655999,10.4312009 30.8960002,10.2632001 C31.1360014,10.0951993 31.3039997,9.94320077 31.4000002,9.80720009 C31.4960007,9.67119941 31.5360003,9.54720065 31.5200002,9.43520009 C31.5040001,9.32319953 31.4560006,9.17920097 31.3760002,9.00320009 C31.1839993,8.61919817 31.0440007,8.31520121 30.9560002,8.09120009 C30.8679998,7.86719897 30.8240002,7.70720057 30.8240002,7.61120009 C30.8240002,7.51519961 30.8559999,7.46320013 30.9200002,7.45520009 C30.9840005,7.44720005 31.0719997,7.46719985 31.1840002,7.51520009 C31.5680021,7.67520089 31.979998,7.84319921 32.4200002,8.01920009 C32.8600024,8.19520097 33.1599994,8.33919953 33.3200002,8.45120009 C33.7040021,8.73920153 33.9719995,9.06719825 34.1240002,9.43520009 C34.276001,9.80320193 34.3520002,10.1631983 34.3520002,10.5152001 Z M31.8800002,16.6592001 C31.8800002,16.835201 31.8560005,17.0271991 31.8080002,17.2352001 C31.76,17.4432011 31.6760008,17.6831987 31.5560002,17.9552001 C31.4359996,18.2272015 31.2640013,18.5391983 31.0400002,18.8912001 C30.8159991,19.2432019 30.5360019,19.6511978 30.2000002,20.1152001 C29.959999,20.4192016 29.8000006,20.5512003 29.7200002,20.5112001 C29.6399998,20.4711999 29.6639996,20.1712029 29.7920002,19.6112001 C29.8880007,19.1311977 29.96,18.7112019 30.0080002,18.3512001 C30.0560005,17.9911983 30.0640004,17.6672015 30.0320002,17.3792001 C30.0000001,17.0911987 29.9240008,16.8272013 29.8040002,16.5872001 C29.6839996,16.3471989 29.4960015,16.1072013 29.2400002,15.8672001 C29.0959995,15.7231994 28.9520009,15.5432012 28.8080002,15.3272001 C28.6639995,15.111199 28.5440007,14.8872013 28.4480002,14.6552001 C28.3519997,14.4231989 28.2760005,14.2032011 28.2200002,13.9952001 C28.1639999,13.7871991 28.1520001,13.6272007 28.1840002,13.5152001 C28.344001,12.6511958 28.4719997,12.1832005 28.5680002,12.1112001 C28.6640007,12.0391997 28.7759996,12.2351978 28.9040002,12.6992001 C28.9360004,12.8272007 29.0399993,13.0071989 29.2160002,13.2392001 C29.3920011,13.4712013 29.703998,13.7231987 30.1520002,13.9952001 C30.7760033,14.3632019 31.2199989,14.7791978 31.4840002,15.2432001 C31.7480015,15.7072024 31.8800002,16.1791977 31.8800002,16.6592001 Z M46.2800002,9.57920009 C46.6800022,9.88320161 46.8360007,10.1631988 46.7480002,10.4192001 C46.6599998,10.6752014 46.3200032,10.8271999 45.7280002,10.8752001 C45.5519993,10.8912002 45.3600013,10.9151999 45.1520002,10.9472001 C44.9439992,10.9792003 44.7280013,11.0271998 44.5040002,11.0912001 C44.2799991,11.2032007 43.9960019,11.3231995 43.6520002,11.4512001 C43.3079985,11.5792007 42.9480021,11.6951996 42.5720002,11.7992001 C42.1959983,11.9032006 41.8360019,11.9871998 41.4920002,12.0512001 C41.1479985,12.1152004 40.8640013,12.1472001 40.6400002,12.1472001 C40.7040005,12.4192015 40.7280003,12.6351993 40.7120002,12.7952001 C40.9360013,12.6991996 41.1359993,12.6312003 41.3120002,12.5912001 C41.4880011,12.5511999 41.6719993,12.5392 41.8640002,12.5552001 C42.0560012,12.5712002 42.2639991,12.6111998 42.4880002,12.6752001 C42.7120013,12.7392004 42.9919985,12.8271995 43.3280002,12.9392001 C43.7440023,13.0992009 44.1239985,13.3591983 44.4680002,13.7192001 C44.8120019,14.0792019 44.9760003,14.4991977 44.9600002,14.9792001 C44.9440001,15.6032032 44.9320003,16.2831964 44.9240002,17.0192001 C44.9160002,17.7552038 44.9160002,18.4471969 44.9240002,19.0952001 C44.9320003,19.7432033 44.9440001,20.2991978 44.9600002,20.7632001 C44.9760003,21.2272024 45.0000001,21.5071996 45.0320002,21.6032001 C45.1440008,22.1952031 45.22,22.7111979 45.2600002,23.1512001 C45.3000004,23.5912023 45.3000004,23.9991982 45.2600002,24.3752001 C45.22,24.751202 45.1520007,25.1231983 45.0560002,25.4912001 C44.9599997,25.8592019 44.832001,26.2591979 44.6720002,26.6912001 C44.624,26.8352008 44.5640006,26.9471997 44.4920002,27.0272001 C44.4199999,27.1072005 44.3280008,27.1352002 44.2160002,27.1112001 C44.1039997,27.0872 43.9600011,27.0192007 43.7840002,26.9072001 C43.6079993,26.7951995 43.3760017,26.6192013 43.0880002,26.3792001 C42.3839967,25.7871971 41.8320022,25.3072019 41.4320002,24.9392001 C41.0319982,24.5711983 40.7200013,24.2512015 40.4960002,23.9792001 C40.3039993,23.7391989 40.2399999,23.5792005 40.3040002,23.4992001 C40.3680005,23.4191997 40.5359989,23.4351995 40.8080002,23.5472001 C41.2560025,23.723201 41.6799982,23.8112001 42.0800002,23.8112001 C42.4800022,23.8112001 42.7559995,23.7592006 42.9080002,23.6552001 C43.060001,23.5511996 43.1520001,23.307202 43.1840002,22.9232001 C43.2320005,21.9951955 43.2320005,21.1872035 43.1840002,20.4992001 C42.6879977,20.4671999 42.160003,20.4831998 41.6000002,20.5472001 C41.0399974,20.6112004 40.5520023,20.7151994 40.1360002,20.8592001 C40.1680004,21.0992013 40.1800003,21.3951983 40.1720002,21.7472001 C40.1640002,22.0992019 40.1480003,22.4631982 40.1240002,22.8392001 C40.1000001,23.215202 40.0680004,23.5711984 40.0280002,23.9072001 C39.988,24.2432018 39.9600003,24.5151991 39.9440002,24.7232001 C39.9120001,24.9952015 39.7880013,25.1072003 39.5720002,25.0592001 C39.3559991,25.0111999 39.1360013,24.7392026 38.9120002,24.2432001 C38.5279983,23.2991954 38.455999,22.4112043 38.6960002,21.5792001 C38.0719971,21.5632 37.5440024,21.5072006 37.1120002,21.4112001 C36.6799981,21.3151996 36.4400005,21.0672021 36.3920002,20.6672001 C36.3600001,20.4911992 36.3799999,20.3512006 36.4520002,20.2472001 C36.5240006,20.1431996 36.7359985,20.003201 37.0880002,19.8272001 C37.2000008,19.7631998 37.3599992,19.6872005 37.5680002,19.5992001 C37.7760013,19.5111997 37.9799992,19.4152006 38.1800002,19.3112001 C38.3800012,19.2071996 38.5559995,19.0952007 38.7080002,18.9752001 C38.860001,18.8551995 38.9360002,18.7232008 38.9360002,18.5792001 C38.8079996,18.5471999 38.6240014,18.5072003 38.3840002,18.4592001 C38.143999,18.4111999 37.8880016,18.3472005 37.6160002,18.2672001 C37.3439989,18.1871997 37.0800015,18.0992006 36.8240002,18.0032001 C36.5679989,17.9071996 36.3520011,17.7952007 36.1760002,17.6672001 C36.0799997,17.9552015 35.9960006,18.2991981 35.9240002,18.6992001 C35.8519999,19.0992021 35.7960004,19.4871982 35.7560002,19.8632001 C35.716,20.239202 35.6920003,20.5631987 35.6840002,20.8352001 C35.6760002,21.1072015 35.696,21.2671999 35.7440002,21.3152001 C35.8400007,21.5232011 35.9319998,21.7911985 36.0200002,22.1192001 C36.1080007,22.4472017 36.1200005,22.7071991 36.0560002,22.8992001 C35.9919999,23.3632024 36.0079997,23.803198 36.1040002,24.2192001 C36.1520005,24.4912015 36.1040009,24.6471999 35.9600002,24.6872001 C35.8159995,24.7272003 35.5760019,24.5632019 35.2400002,24.1952001 C35.0159991,23.9551989 34.8360009,23.7392011 34.7000002,23.5472001 C34.5639995,23.3551991 34.4600006,23.1472012 34.3880002,22.9232001 C34.3159999,22.699199 34.2720003,22.4432015 34.2560002,22.1552001 C34.2400001,21.8671987 34.2480001,21.5152022 34.2800002,21.0992001 C34.4080009,20.1871955 34.5079999,19.3672037 34.5800002,18.6392001 C34.6520006,17.9111965 34.7040001,17.3312023 34.7360002,16.8992001 C34.7840005,16.3391973 34.9079992,15.8352023 35.1080002,15.3872001 C35.3080012,14.9391979 35.5559987,14.5392019 35.8520002,14.1872001 C36.1480017,13.8351983 36.4759984,13.5352013 36.8360002,13.2872001 C37.196002,13.0391989 37.5599984,12.8432008 37.9280002,12.6992001 C38.2480018,12.5551994 38.4959993,12.4392005 38.6720002,12.3512001 C38.8480011,12.2631997 38.9759998,12.1912004 39.0560002,12.1352001 C39.1360006,12.0791998 39.1800002,12.0312003 39.1880002,11.9912001 C39.1960003,11.9511999 39.1920003,11.9072003 39.1760002,11.8592001 C38.9039989,11.9392005 38.592002,12.0391995 38.2400002,12.1592001 C37.8879985,12.2792007 37.5480019,12.4031995 37.2200002,12.5312001 C36.8919986,12.6592007 36.5960015,12.7871995 36.3320002,12.9152001 C36.0679989,13.0432007 35.8800008,13.1551996 35.7680002,13.2512001 C35.2879978,13.6192019 34.8440023,13.8032001 34.4360002,13.8032001 C34.0279982,13.8032001 33.6400021,13.6432017 33.2720002,13.3232001 C32.9999989,13.1151991 32.8000009,12.9472007 32.6720002,12.8192001 C32.5439996,12.6911995 32.4800002,12.5872005 32.4800002,12.5072001 C32.4800002,12.4271997 32.5439996,12.3552004 32.6720002,12.2912001 C32.8000009,12.2271998 32.983999,12.1552005 33.2240002,12.0752001 C33.6720025,11.9151993 34.1759974,11.747201 34.7360002,11.5712001 C35.296003,11.3951992 35.8559974,11.2272009 36.4160002,11.0672001 C36.976003,10.9071993 37.5079977,10.7592008 38.0120002,10.6232001 C38.5160027,10.4871994 38.9279986,10.3872004 39.2480002,10.3232001 C39.2480002,10.2431997 39.2440003,10.1632005 39.2360002,10.0832001 C39.2280002,10.0031997 39.2240002,9.89920073 39.2240002,9.77120009 C39.0959996,9.57919913 38.9760008,9.32320169 38.8640002,9.00320009 C38.7519997,8.68319849 38.6520007,8.35920173 38.5640002,8.03120009 C38.4759998,7.70319845 38.4040005,7.39520153 38.3480002,7.10720009 C38.2919999,6.81919865 38.2640002,6.60320081 38.2640002,6.45920009 C38.2640002,6.05919809 38.6079968,5.85920009 39.2960002,5.85920009 C39.6160018,5.85920009 39.9039989,5.93519933 40.1600002,6.08720009 C40.4160015,6.23920085 40.6279994,6.43119893 40.7960002,6.66320009 C40.9640011,6.89520125 41.0879998,7.15119869 41.1680002,7.43120009 C41.2480006,7.71120149 41.2800003,7.97919881 41.2640002,8.23520009 C41.2320001,8.60320193 41.1920005,8.91119885 41.1440002,9.15920009 C41.096,9.40720133 41.0160008,9.68319857 40.9040002,9.98720009 C41.1920017,9.93919985 41.4879987,9.88720037 41.7920002,9.83120009 C42.0960017,9.77519981 42.3919988,9.71920037 42.6800002,9.66320009 C42.9680017,9.60719981 43.231999,9.54720041 43.4720002,9.48320009 C43.7120014,9.41919977 43.9039995,9.35520041 44.0480002,9.29120009 C44.3840019,9.14719937 44.771998,9.10319981 45.2120002,9.15920009 C45.6520024,9.21520037 46.0079989,9.35519897 46.2800002,9.57920009 Z M32.8160002,24.0992001 C32.9920011,24.6592029 33.004001,25.0311992 32.8520002,25.2152001 C32.6999995,25.399201 32.4240022,25.3792012 32.0240002,25.1552001 C31.8319993,25.0591996 31.6240013,24.9152011 31.4000002,24.7232001 C31.1759991,24.5311991 30.9600013,24.3072014 30.7520002,24.0512001 C30.5439992,23.7951988 30.3520011,23.5152016 30.1760002,23.2112001 C29.9999993,22.9071986 29.8800005,22.5952017 29.8160002,22.2752001 C29.7519999,22.051199 29.7479999,21.9152003 29.8040002,21.8672001 C29.8600005,21.8191999 29.9279998,21.8351997 30.0080002,21.9152001 C30.1200008,22.0272007 30.2199998,22.1471995 30.3080002,22.2752001 C30.3960007,22.4032007 30.464,22.4831999 30.5120002,22.5152001 C30.6880011,22.6432007 30.8319997,22.6792004 30.9440002,22.6232001 C31.0560008,22.5671998 31.1519998,22.3792017 31.2320002,22.0592001 C31.2480003,21.9951998 31.2839999,21.871201 31.3400002,21.6872001 C31.3960005,21.5031992 31.4519999,21.2952013 31.5080002,21.0632001 C31.5640005,20.8311989 31.6239999,20.6072012 31.6880002,20.3912001 C31.7520005,20.175199 31.8000001,19.9952008 31.8320002,19.8512001 C31.9600009,19.4191979 32.0599999,19.0432017 32.1320002,18.7232001 C32.2040006,18.4031985 32.3279993,18.0592019 32.5040002,17.6912001 C32.5840006,17.5151992 32.644,17.4352 32.6840002,17.4512001 C32.7240004,17.4672002 32.7360003,17.5711991 32.7200002,17.7632001 C32.7040001,18.0832017 32.6960002,18.4951976 32.6960002,18.9992001 C32.6960002,19.5032026 32.6800004,19.9871978 32.6480002,20.4512001 C32.5839999,21.1232035 32.5560002,21.771197 32.5640002,22.3952001 C32.5720003,23.0192032 32.6559994,23.5871975 32.8160002,24.0992001 Z M39.2720002,7.29920009 C39.224,7.10719913 39.1480007,7.02319997 39.0440002,7.04720009 C38.9399997,7.07120021 38.8880002,7.21119881 38.8880002,7.46720009 C38.8880002,7.59520073 38.908,7.83919829 38.9480002,8.19920009 C38.9880004,8.55920189 39.0719996,9.00319745 39.2000002,9.53120009 C39.2320004,8.97119729 39.2640001,8.47920221 39.2960002,8.05520009 C39.3280004,7.63119797 39.3200005,7.37920049 39.2720002,7.29920009 Z M39.2000002,13.2752001 C39.2160003,13.0351989 39.2160003,12.7472018 39.2000002,12.4112001 C38.8479985,12.4752004 38.5040019,12.5871993 38.1680002,12.7472001 C37.8319985,12.9072009 37.4960019,13.1471985 37.1600002,13.4672001 C37.0159995,13.6112008 36.8800009,13.7511994 36.7520002,13.8872001 C36.6239996,14.0232008 36.5120007,14.1671993 36.4160002,14.3192001 C36.3199997,14.4712009 36.2520004,14.6351992 36.2120002,14.8112001 C36.172,14.987201 36.1680001,15.187199 36.2000002,15.4112001 C36.4240013,14.8991975 36.8199974,14.4832017 37.3880002,14.1632001 C37.9560031,13.8431985 38.559997,13.5472015 39.2000002,13.2752001 Z M39.1280002,15.0032001 C38.9039991,15.0352003 38.6200019,15.0432002 38.2760002,15.0272001 C37.9319985,15.0112 37.6240016,14.9872003 37.3520002,14.9552001 C37.1919994,14.9231999 37.0040013,14.9711995 36.7880002,15.0992001 C36.5719991,15.2272007 36.3680012,15.4511985 36.1760002,15.7712001 C36.2080004,15.9312009 36.2240002,16.1351989 36.2240002,16.3832001 C36.2240002,16.6312013 36.2160003,16.8831988 36.2000002,17.1392001 C36.6000022,16.9471991 37.0279979,16.7672009 37.4840002,16.5992001 C37.9400025,16.4311993 38.3519984,16.2672009 38.7200002,16.1072001 C38.880001,15.9311992 38.98,15.7592009 39.0200002,15.5912001 C39.0600004,15.4231993 39.0960001,15.2272012 39.1280002,15.0032001 Z M43.1840002,19.9952001 C43.2160004,19.6751985 43.2280003,19.2992023 43.2200002,18.8672001 C43.2120002,18.4351979 43.1880004,17.9792025 43.1480002,17.4992001 C43.108,17.0191977 43.0520006,16.5232027 42.9800002,16.0112001 C42.9079999,15.4991975 42.8240007,15.0032025 42.7280002,14.5232001 C42.6479998,14.1711983 42.4640017,13.9952001 42.1760002,13.9952001 C41.8879988,13.9952001 41.4080036,14.2111979 40.7360002,14.6432001 C40.7200001,14.7552007 40.7160002,14.9351989 40.7240002,15.1832001 C40.7320003,15.4312013 40.7200004,15.6351993 40.6880002,15.7952001 C40.848001,15.7631999 41.0199993,15.7512001 41.2040002,15.7592001 C41.3880011,15.7672001 41.5599994,15.7991998 41.7200002,15.8552001 C41.880001,15.9112004 42.0239996,15.9831997 42.1520002,16.0712001 C42.2800009,16.1592005 42.368,16.2591995 42.4160002,16.3712001 C42.4480004,16.4992007 42.4640002,16.5951998 42.4640002,16.6592001 C42.4640002,16.7232004 42.4280006,16.7871998 42.3560002,16.8512001 C42.2839999,16.9152004 42.168001,16.9911997 42.0080002,17.0792001 C41.8479994,17.1672005 41.6160017,17.2991992 41.3120002,17.4752001 C41.0559989,17.6992012 40.8960005,17.9431988 40.8320002,18.2072001 C40.7679999,18.4712014 40.7520001,18.7391987 40.7840002,19.0112001 C41.2000023,18.9952 41.5919984,19.0471995 41.9600002,19.1672001 C42.3280021,19.2872007 42.735998,19.5631979 43.1840002,19.9952001 Z M57.3200002,12.8192001 C57.880003,12.8192001 58.3599982,13.0191981 58.7600002,13.4192001 C59.1600022,13.8192021 59.3600002,14.2991973 59.3600002,14.8592001 C59.3600002,15.1312015 59.3080007,15.3871989 59.2040002,15.6272001 C59.0999997,15.8672013 58.9560011,16.0791992 58.7720002,16.2632001 C58.5879993,16.447201 58.3720015,16.5951995 58.1240002,16.7072001 C57.875999,16.8192007 57.6080017,16.8752001 57.3200002,16.8752001 C56.7759975,16.8752001 56.3040022,16.6752021 55.9040002,16.2752001 C55.5039982,15.8751981 55.3040002,15.4032028 55.3040002,14.8592001 C55.3040002,14.5711987 55.3599997,14.3032013 55.4720002,14.0552001 C55.5840008,13.8071989 55.7319993,13.591201 55.9160002,13.4072001 C56.1000011,13.2231992 56.311999,13.0792006 56.5520002,12.9752001 C56.7920014,12.8711996 57.0479989,12.8192001 57.3200002,12.8192001 Z M76.7180002,8.44520009 L77.6900002,8.44520009 L77.6900002,13.9892001 L81.9200002,13.9892001 L81.9200002,14.9432001 L77.6900002,14.9432001 L77.6900002,23.2232001 L82.3700002,23.2232001 L82.3700002,24.1772001 L71.9300002,24.1772001 L71.9300002,23.2232001 L76.7180002,23.2232001 L76.7180002,14.9432001 L72.5420002,14.9432001 L72.5420002,13.9892001 L76.7180002,13.9892001 L76.7180002,8.44520009 Z M68.9240002,16.9052001 C68.1680002,17.7152001 67.2860002,18.5252001 66.3140002,19.3352001 L66.0080002,18.3452001 C68.6180002,16.1852001 70.3280002,14.0612001 71.1560002,12.0092001 L66.4580002,12.0092001 L66.4580002,11.0732001 L72.1280002,11.0732001 L72.1280002,11.9012001 C71.6600002,13.1972001 70.9220002,14.5112001 69.8780002,15.8072001 L69.8780002,15.8792001 C70.9400002,16.4912001 71.9120002,17.2292001 72.7940002,18.0572001 L72.2540002,18.9032001 C71.4620002,18.0752001 70.6700002,17.4092001 69.8780002,16.8872001 L69.8780002,24.7712001 L68.9240002,24.7712001 L68.9240002,16.9052001 Z M69.2480002,8.31920009 C69.6620002,9.16520009 69.9860002,9.95720009 70.2200002,10.6772001 L69.3740002,10.9832001 C69.0860002,10.1552001 68.7440002,9.36320009 68.3300002,8.57120009 L69.2480002,8.31920009 Z M88.9580002,12.0812001 C90.6860002,13.3772001 92.2700002,14.6912001 93.7280002,15.9872001 C94.8440002,14.6012001 95.7800002,13.0172001 96.5540002,11.2172001 L97.4360002,11.6852001 C96.5900002,13.5932001 95.6000002,15.2492001 94.4660002,16.6532001 C95.9420002,18.0032001 97.2920002,19.3532001 98.4980002,20.7032001 L97.7600002,21.4412001 C96.6260002,20.1092001 95.3120002,18.7592001 93.8360002,17.3912001 C92.2160002,19.1732001 90.3440002,20.5232001 88.2020002,21.4412001 L87.6440002,20.5592001 C89.7320002,19.6952001 91.5500002,18.4172001 93.0980002,16.7252001 C91.6220002,15.4292001 90.0200002,14.0972001 88.2560002,12.7472001 L88.9580002,12.0812001 Z M85.4840002,9.14720009 L99.6500002,9.14720009 L99.6500002,10.0832001 L86.4380002,10.0832001 L86.4380002,23.0972001 L100.154,23.0972001 L100.154,24.0332001 L85.4840002,24.0332001 L85.4840002,9.14720009 Z M103.484,8.75120009 C104.816,9.63320009 105.95,10.5152001 106.85,11.4152001 L106.13,12.1172001 C105.302,11.2712001 104.186,10.3712001 102.782,9.41720009 L103.484,8.75120009 Z M102.944,12.9632001 C104.186,13.8452001 105.212,14.7272001 106.04,15.6272001 L105.32,16.3292001 C104.564,15.4652001 103.556,14.5652001 102.278,13.6112001 L102.944,12.9632001 Z M105.644,17.9132001 L106.508,18.2732001 C105.608,20.5232001 104.618,22.6472001 103.52,24.6272001 L102.584,24.2132001 C103.754,22.1612001 104.78,20.0552001 105.644,17.9132001 Z M116.786,17.3192001 L116.786,24.7532001 L115.832,24.7532001 L115.832,23.6732001 L109.136,23.6732001 L109.136,24.7532001 L108.182,24.7532001 L108.182,17.3192001 L116.786,17.3192001 Z M109.136,22.7372001 L115.832,22.7372001 L115.832,18.2192001 L109.136,18.2192001 L109.136,22.7372001 Z M114.824,10.5332001 C116.012,12.1172001 117.11,13.8272001 118.136,15.6992001 L117.218,16.1492001 C116.93,15.6272001 116.66,15.1412001 116.408,14.6732001 C113.708,15.0332001 110.684,15.3032001 107.336,15.4832001 L107.156,14.6012001 C108.452,13.8812001 109.964,11.7932001 111.674,8.37320009 L112.628,8.69720009 C111.296,11.2532001 109.982,13.1972001 108.686,14.5292001 C111.296,14.3852001 113.708,14.1512001 115.904,13.8272001 C115.256,12.7832001 114.608,11.8292001 113.96,10.9652001 L114.824,10.5332001 Z M126.83,9.16520009 L135.398,9.16520009 L135.398,17.2652001 L131.6,17.2652001 L131.6,19.6772001 L135.758,19.6772001 L135.758,20.5952001 L131.6,20.5952001 L131.6,23.2772001 L136.442,23.2772001 L136.442,24.2312001 L125.678,24.2312001 L125.678,23.2772001 L130.628,23.2772001 L130.628,20.5952001 L126.47,20.5952001 L126.47,19.6772001 L130.628,19.6772001 L130.628,17.2652001 L126.83,17.2652001 L126.83,9.16520009 Z M134.444,16.3832001 L134.444,13.6652001 L131.6,13.6652001 L131.6,16.3832001 L134.444,16.3832001 Z M130.628,16.3832001 L130.628,13.6652001 L127.766,13.6652001 L127.766,16.3832001 L130.628,16.3832001 Z M127.766,12.8192001 L130.628,12.8192001 L130.628,10.0472001 L127.766,10.0472001 L127.766,12.8192001 Z M131.6,10.0472001 L131.6,12.8192001 L134.444,12.8192001 L134.444,10.0472001 L131.6,10.0472001 Z M120.368,15.1592001 L122.492,15.1592001 L122.492,10.5872001 L120.116,10.5872001 L120.116,9.65120009 L125.822,9.65120009 L125.822,10.5872001 L123.464,10.5872001 L123.464,15.1592001 L125.606,15.1592001 L125.606,16.1132001 L123.464,16.1132001 L123.464,20.5952001 C124.22,20.3252001 124.94,20.0372001 125.624,19.7492001 L125.624,20.7032001 C123.968,21.4052001 122.168,21.9812001 120.242,22.4492001 L120.008,21.5312001 C120.872,21.3512001 121.7,21.1532001 122.492,20.9012001 L122.492,16.1132001 L120.368,16.1132001 L120.368,15.1592001 Z M143.642,21.1172001 L143.642,22.0712001 C142.076,22.8092001 140.294,23.4032001 138.296,23.8712001 L138.152,22.8992001 C140.24,22.4492001 142.076,21.8552001 143.642,21.1172001 Z M141.122,8.46320009 L142.022,8.82320009 C141.122,11.3072001 140.222,13.2512001 139.322,14.6552001 C140.186,14.5112001 141.05,14.3132001 141.95,14.0612001 L142.922,12.0092001 L143.822,12.3332001 C142.202,15.6452001 140.87,17.9492001 139.844,19.2272001 C141.14,18.9392001 142.418,18.5252001 143.678,18.0212001 L143.678,18.9032001 C141.968,19.5512001 140.312,20.0012001 138.728,20.2532001 L138.476,19.3532001 C138.656,19.2812001 138.8,19.1912001 138.908,19.0832001 C139.628,18.2552001 140.474,16.8872001 141.482,14.9792001 C140.438,15.2312001 139.43,15.4292001 138.422,15.6092001 L138.188,14.7452001 C138.332,14.6732001 138.476,14.5652001 138.584,14.3852001 C139.556,12.7112001 140.402,10.7312001 141.122,8.46320009 Z M153.56,10.4252001 L153.56,13.6112001 L152.624,13.6112001 L152.624,11.3432001 L145.496,11.3432001 L145.496,13.6112001 L144.56,13.6112001 L144.56,10.4252001 L148.574,10.4252001 C148.25,9.66920009 147.908,9.00320009 147.53,8.39120009 L148.52,8.21120009 C148.88,8.85920009 149.222,9.59720009 149.546,10.4252001 L153.56,10.4252001 Z M145.802,19.2272001 L146.72,19.4072001 C146.216,21.2792001 145.478,22.8992001 144.542,24.2672001 L143.714,23.7272001 C144.65,22.3952001 145.352,20.9012001 145.802,19.2272001 Z M152.12,19.0472001 C152.93,20.5232001 153.65,22.0712001 154.262,23.7272001 L153.38,24.1232001 C152.732,22.3232001 152.03,20.7212001 151.256,19.3352001 L152.12,19.0472001 Z M148.412,24.6272001 L146.774,24.6272001 L146.576,23.7092001 C147.116,23.7452001 147.62,23.7812001 148.088,23.7812001 C148.52,23.7812001 148.754,23.4752001 148.754,22.8812001 L148.754,17.6792001 L144.47,17.6792001 L144.47,16.7432001 L153.65,16.7432001 L153.65,17.6792001 L149.708,17.6792001 L149.708,23.1152001 C149.708,24.1232001 149.276,24.6272001 148.412,24.6272001 Z M145.856,13.5572001 L152.3,13.5572001 L152.3,14.4752001 L145.856,14.4752001 L145.856,13.5572001 Z M163.856,8.39120009 L164.576,8.39120009 C166.88,11.0912001 169.544,13.2332001 172.568,14.7992001 L172.046,15.6992001 C168.986,14.0612001 166.376,11.9192001 164.216,9.27320009 C162.236,11.7572001 159.59,13.9172001 156.314,15.7352001 L155.81,14.8172001 C159.032,13.0892001 161.714,10.9472001 163.856,8.39120009 Z M169.778,17.6972001 L169.778,24.7712001 L168.824,24.7712001 L168.824,23.6012001 L159.608,23.6012001 L159.608,24.7712001 L158.654,24.7712001 L158.654,17.6972001 L169.778,17.6972001 Z M159.608,22.6652001 L168.824,22.6652001 L168.824,18.6332001 L159.608,18.6332001 L159.608,22.6652001 Z M159.572,14.1872001 L168.86,14.1872001 L168.86,15.1412001 L159.572,15.1412001 L159.572,14.1872001 Z M176.15,14.2412001 C175.538,15.1772001 174.872,16.0772001 174.134,16.9052001 L173.81,15.8792001 C175.646,13.6112001 176.978,11.0732001 177.788,8.22920009 L178.706,8.66120009 C178.274,10.0652001 177.734,11.3612001 177.104,12.5852001 L177.104,24.8432001 L176.15,24.8432001 L176.15,14.2412001 Z M178.814,10.9112001 L190.442,10.9112001 L190.442,11.8472001 L178.814,11.8472001 L178.814,10.9112001 Z M180.488,13.5752001 L188.876,13.5752001 L188.876,14.4572001 L180.488,14.4572001 L180.488,13.5752001 Z M180.488,16.1132001 L188.876,16.1132001 L188.876,17.0132001 L180.488,17.0132001 L180.488,16.1132001 Z M189.182,18.7592001 L189.182,24.7892001 L188.228,24.7892001 L188.228,23.7992001 L181.154,23.7992001 L181.154,24.7892001 L180.182,24.7892001 L180.182,18.7592001 L189.182,18.7592001 Z M181.154,22.8632001 L188.228,22.8632001 L188.228,19.6772001 L181.154,19.6772001 L181.154,22.8632001 Z M184.466,8.33720009 C184.862,9.09320009 185.168,9.79520009 185.384,10.4432001 L184.52,10.7852001 C184.25,10.0292001 183.926,9.29120009 183.53,8.58920009 L184.466,8.33720009 Z M194.744,9.81320009 L198.686,9.81320009 C198.956,9.32720009 199.154,8.82320009 199.298,8.30120009 L200.306,8.44520009 C200.162,8.93120009 199.982,9.38120009 199.73,9.81320009 L205.832,9.81320009 L205.832,18.3812001 L194.744,18.3812001 L194.744,9.81320009 Z M204.878,17.5172001 L204.878,15.7352001 L195.698,15.7352001 L195.698,17.5172001 L204.878,17.5172001 Z M195.698,14.9252001 L204.878,14.9252001 L204.878,13.2332001 L195.698,13.2332001 L195.698,14.9252001 Z M195.698,12.4052001 L204.878,12.4052001 L204.878,10.6592001 L195.698,10.6592001 L195.698,12.4052001 Z M193.898,19.7312001 L194.834,19.9112001 C194.384,21.5672001 193.772,22.9892001 192.98,24.1952001 L192.17,23.6552001 C192.962,22.5032001 193.538,21.1892001 193.898,19.7312001 Z M202.358,24.5192001 L197.696,24.5192001 C196.778,24.5192001 196.328,24.0692001 196.328,23.1692001 L196.328,19.6232001 L197.318,19.6232001 L197.318,22.9532001 C197.318,23.4212001 197.534,23.6552001 197.966,23.6552001 L202.178,23.6552001 C202.628,23.6552001 202.952,23.5472001 203.132,23.3492001 C203.384,23.0792001 203.546,22.3052001 203.618,21.0452001 L204.554,21.3512001 C204.446,22.8272001 204.194,23.7452001 203.834,24.1052001 C203.528,24.3752001 203.042,24.5192001 202.358,24.5192001 Z M199.802,19.0112001 C200.828,19.9832001 201.62,20.8292001 202.178,21.5492001 L201.44,22.0712001 C200.864,21.2792001 200.072,20.4152001 199.082,19.4612001 L199.802,19.0112001 Z M205.634,19.4252001 C206.858,20.9192001 207.794,22.2152001 208.442,23.3312001 L207.668,23.8712001 C206.984,22.6832001 206.066,21.3512001 204.878,19.9112001 L205.634,19.4252001 Z M211.016,9.27320009 L225.47,9.27320009 L225.47,10.2452001 L218.63,10.2452001 L218.63,17.3552001 L226.136,17.3552001 L226.136,18.3092001 L218.63,18.3092001 L218.63,24.7892001 L217.658,24.7892001 L217.658,18.3092001 L210.296,18.3092001 L210.296,17.3552001 L217.658,17.3552001 L217.658,10.2452001 L211.016,10.2452001 L211.016,9.27320009 Z M212.96,11.6312001 C213.662,12.8912001 214.328,14.2772001 214.94,15.7892001 L214.022,16.2392001 C213.41,14.6732001 212.744,13.2872001 212.06,12.0632001 L212.96,11.6312001 Z M223.544,11.5052001 L224.444,11.9192001 C223.868,13.3952001 223.112,14.8172001 222.212,16.1852001 L221.33,15.7352001 C222.266,14.3132001 223.004,12.9092001 223.544,11.5052001 Z M242.12,17.4452001 L242.12,24.8252001 L241.148,24.8252001 L241.148,23.7992001 L231.284,23.7992001 L231.284,24.8252001 L230.312,24.8252001 L230.312,17.4452001 L242.12,17.4452001 Z M231.284,22.8452001 L241.148,22.8452001 L241.148,18.3812001 L231.284,18.3812001 L231.284,22.8452001 Z M228.944,15.4292001 L228.764,14.5112001 C230.51,13.7912001 232.526,11.7392001 234.794,8.35520009 L235.784,8.69720009 C234.038,11.2352001 232.31,13.1612001 230.582,14.4752001 C234.398,14.3132001 237.908,14.0792001 241.148,13.7552001 C240.356,12.6752001 239.564,11.6852001 238.772,10.7852001 L239.672,10.3532001 C241.256,12.1892001 242.75,14.1692001 244.118,16.3292001 L243.182,16.7972001 C242.714,16.0232001 242.228,15.3032001 241.76,14.6192001 C237.944,14.9792001 233.678,15.2492001 228.944,15.4292001 Z"></path>
                </g>
        </g>
</svg>