<?xml version="1.0" encoding="UTF-8"?>
<svg width="16px" height="16px" viewBox="0 0 16 16" version="1.1" xmlns="http://www.w3.org/2000/svg" xmlns:xlink="http://www.w3.org/1999/xlink">
    <!-- Generator: Sketch 60 (88103) - https://sketch.com -->
    <title>Shape</title>
    <desc>Created with Sketch.</desc>
    <g id="页面-1" stroke="none" stroke-width="1" fill="none" fill-rule="evenodd">
        <g id="avatar" fill="#666666" fill-rule="nonzero">
            <g id="user">
                <path d="M8.05435294,0.222352937 C3.77270587,0.222352937 0.289647062,3.70588234 0.289647062,7.98705881 C0.289647062,12.2684706 3.77270589,15.7515294 8.05435294,15.7515294 C12.3352941,15.7515294 15.8188235,12.2684706 15.8188235,7.98705881 C15.8188235,3.70588236 12.3355294,0.222352937 8.05435294,0.222352937 Z M12.5303529,13.7303529 C12.3014118,11.4618823 10.3814118,9.68588234 8.05411764,9.68588234 C5.72682352,9.68588234 3.80682352,11.4621176 3.57811764,13.7303529 C1.86917647,12.3955294 0.767764703,10.3183529 0.767764703,7.98705883 C0.767764703,3.96917647 4.03670587,0.699764703 8.05458823,0.699764703 C12.0722353,0.699764703 15.3411765,3.96917647 15.3411765,7.98705883 C15.3409412,10.3183529 14.2395294,12.396 12.5303529,13.7303529 Z M7.99552941,3.77858823 C6.59294117,3.77858823 5.45152941,4.9202353 5.45152941,6.32258823 C5.45152941,7.72494117 6.59317647,8.86635294 7.99552941,8.86635294 C9.39741177,8.86635294 10.5390588,7.72517647 10.5390588,6.32258823 C10.5390588,4.92 9.39741177,3.77858823 7.99552941,3.77858823 Z" id="Shape"></path>
            </g>
        </g>
    </g>
</svg>