<?xml version="1.0" encoding="UTF-8"?>
<svg width="16px" height="16px" viewBox="0 0 16 16" version="1.1" xmlns="http://www.w3.org/2000/svg" xmlns:xlink="http://www.w3.org/1999/xlink">
    <!-- Generator: Sketch 54.1 (76490) - https://sketchapp.com -->
    <title>ico-approval-white</title>
    <desc>Created with Sketch.</desc>
    <g id="ico-approval-white" stroke="none" stroke-width="1" fill="none" fill-rule="evenodd">
        <g id="icon" fill="#FFFFFF" fill-rule="nonzero">
            <path d="M13.5352028,10.3659788 C13.5389173,9.89047764 13.3425142,9.43325947 12.9896316,9.09591195 C12.6367911,8.75841552 12.1565,8.56891697 11.6557119,8.56961478 L9.42129553,8.56961478 C8.79165977,8.56961478 8.28129139,8.08468947 8.28129139,7.48704796 C8.27560052,7.1266289 8.46380759,6.78832941 8.78052566,6.5896816 C8.91152257,6.51087562 9.03728488,6.42448307 9.15709851,6.3309945 C9.1263245,6.32505896 9.096875,6.3146816 9.06632864,6.30801887 C8.9464404,6.28207547 8.82833195,6.25275157 8.71231374,6.21833726 C8.65122103,6.19988208 8.59124586,6.17879324 8.53104305,6.1581761 C8.43953833,6.12701587 8.34910202,6.09309537 8.25987169,6.05646619 C8.2022351,6.03272406 8.1446606,6.00913915 8.08830712,5.98333333 C7.98518212,5.93588836 7.88464404,5.88427673 7.78594785,5.83028695 C7.74898593,5.80996462 7.71049255,5.79205975 7.67396523,5.77071541 C7.54942053,5.69787736 7.42982202,5.61835692 7.3138245,5.53522013 C7.26419702,5.49966588 7.21686672,5.46157626 7.16864652,5.42415487 C7.09610927,5.36751179 7.02526904,5.30947327 6.95653974,5.24891903 C6.90778146,5.20591588 6.85927152,5.16312893 6.81258278,5.11831761 C6.73855546,5.04748428 6.66862583,4.97334906 6.60012417,4.89803459 C6.54776112,4.84084198 6.49702538,4.78232376 6.44797185,4.72254324 C6.37860099,4.6377555 6.31136175,4.55110063 6.24848924,4.4615173 C6.21173427,4.40917846 6.1776904,4.35534591 6.1432947,4.30139544 C6.09376739,4.22366704 6.04683455,4.14447409 6.00256623,4.06393475 C5.98317467,4.02891116 5.95995447,3.99669811 5.94141142,3.96100629 C5.93172599,3.94231525 5.92557947,3.92273978 5.91616308,3.90408805 C5.85326987,3.77796777 5.79542632,3.64943003 5.74515728,3.51745283 C5.72839404,3.4730739 5.7160803,3.42788915 5.70078642,3.38313679 C5.66788079,3.28675314 5.63733444,3.18946541 5.6111755,3.09038915 C5.59503311,3.02887186 5.58151904,2.96735456 5.56827401,2.90542453 C5.54981374,2.82030267 5.5348303,2.73433569 5.5218957,2.64772013 C5.51216887,2.58396226 5.50182119,2.52045991 5.49515728,2.45644654 C5.48518212,2.35685928 5.48044288,2.25581761 5.47750414,2.1545794 C5.46107202,1.61397406 5.54422599,1.07138365 5.73810017,0.554579403 C5.79733654,0.396288821 5.86610334,0.24136225 5.94406043,0.0905660377 C4.46243791,0.41033805 3.32942881,1.54595126 3.07266142,2.96841588 C2.81616308,4.39034984 3.48640315,5.81949686 4.77117136,6.58958333 C5.08931714,6.78743827 5.27912256,7.12581931 5.27452401,7.48694969 C5.27452401,8.08459119 4.76415563,8.56953616 4.13454056,8.56953616 L1.85082781,8.56953616 C0.82982202,8.56953616 0.00215231788,9.35528695 0.00215231788,10.3248821 C0.0021767232,10.808547 0.20457505,11.2723808 0.564797185,11.6142885 C0.924840263,11.9563396 1.41322621,12.1485345 1.92249586,12.1485849 L11.6578642,12.1485849 C12.6945985,12.1486832 13.5352028,11.3503931 13.5352028,10.3659788 L13.5352028,10.3659788 Z M12.7936672,13.5589033 C12.7936672,13.1647013 12.457202,12.8451847 12.0420944,12.8451847 L1.51370033,12.8451847 C1.09857202,12.8451847 0.762148179,13.1647209 0.762148179,13.5589033 C0.762148179,13.9531447 1.09855132,14.272956 1.51370033,14.272956 L12.0420737,14.272956 C12.4572227,14.272956 12.7936672,13.9531643 12.7936672,13.5589033 Z" id="形状" opacity="0.4"></path>
            <path d="M5.47754553,2.15461871 C5.48048427,2.25532626 5.48491308,2.35605346 5.49517798,2.45648585 C5.50188328,2.52051887 5.51221026,2.58400157 5.52193709,2.64775943 C5.5348096,2.73396226 5.54981374,2.81990959 5.5682947,2.90544418 C5.58156043,2.96733491 5.59505381,3.02887186 5.61121689,3.09040881 C5.6370447,3.18879717 5.66792219,3.2863011 5.70078642,3.38311714 C5.71610099,3.42790881 5.72841474,3.47311321 5.74517798,3.51745283 C5.79482616,3.64830975 5.85300083,3.77698506 5.91620447,3.90404874 C5.92555877,3.92273978 5.93172599,3.94227594 5.94139073,3.96096698 C5.95991308,3.99667846 5.98309189,4.02891116 6.00254553,4.0639544 C6.04692981,4.1444313 6.09386767,4.22361453 6.1432947,4.30139544 C6.17762831,4.35538522 6.21171358,4.40921777 6.24848924,4.46153695 C6.31138245,4.55139544 6.37864238,4.63789308 6.44801325,4.72256289 C6.4970741,4.78233783 6.54780968,4.84085587 6.60016556,4.89805425 C6.66866722,4.97352594 6.73890728,5.04764151 6.81262417,5.11833726 C6.85931291,5.16314858 6.90784354,5.20593553 6.95653974,5.24893868 C7.0253202,5.30942991 7.0960635,5.36787662 7.16866722,5.42419418 C7.21692881,5.46159591 7.26421772,5.49968553 7.3138452,5.53523978 C7.43023593,5.6184945 7.54979305,5.69817217 7.67402732,5.77073506 C7.71051325,5.79204009 7.74898593,5.80994497 7.78596854,5.83028695 C7.88499586,5.88445362 7.98522351,5.93602594 8.08834851,5.98335299 C8.14472268,6.00915881 8.20229719,6.03272406 8.25993377,6.05646619 C8.34915936,6.09307416 8.43958117,6.1269944 8.53106374,6.1581761 C8.59124586,6.17879324 8.65128311,6.19984277 8.71237583,6.2182783 C8.82841474,6.2528695 8.94681291,6.28205582 9.06639073,6.30801887 C9.09691639,6.31470126 9.1263245,6.32503931 9.1571399,6.3309945 C9.15896109,6.33144654 9.1607202,6.33199686 9.1624793,6.33240959 C10.0332781,5.65467767 10.5375,4.6415684 10.5366101,3.57232704 C10.5378311,2.48579009 10.0174255,1.45845126 9.12371689,0.780404874 C8.22960135,0.102936731 7.05927548,-0.150944386 5.94410182,0.0906446541 C5.86604447,0.241400056 5.79726846,0.396331812 5.73812086,0.554658019 C5.5442053,1.07138365 5.46107202,1.61393475 5.47754553,2.15461871 L5.47754553,2.15461871 Z" id="路径" opacity="0.4"></path>
            <path d="M4.25763659,10.2839623 C3.23667219,10.2839623 2.40898179,11.0696934 2.40898179,12.0393278 C2.40898171,12.5229704 2.61137699,12.986786 2.97160596,13.3286557 C3.33161721,13.6707664 3.82003376,13.8629775 4.32932533,13.8629717 L14.0646937,13.8629717 C15.1014901,13.8629717 15.9421565,13.0647013 15.9421565,12.0802869 C15.9458006,11.604764 15.7493844,11.1475391 15.3965232,10.8101415 C15.0436867,10.4726777 14.5634057,10.2832197 14.0626449,10.2839623 L11.8282078,10.2839623 C11.1985306,10.2839623 10.6881829,9.79899764 10.6881829,9.20129717 C10.6824823,8.84089085 10.8706739,8.50259859 11.1873758,8.30395047 C11.3188119,8.22492109 11.4449833,8.1382585 11.5651697,8.04445755 C9.41775662,7.62116745 7.87853891,5.82454796 7.87853891,3.74188286 C7.8773198,3.07033489 8.0389757,2.40754211 8.35097268,1.80489387 C6.86932947,2.12466588 5.73638245,3.2603184 5.47957368,4.68276336 C5.22305464,6.10469733 5.89323262,7.53386399 7.1781043,8.30397013 C7.49627139,8.50178846 7.68606158,8.84019061 7.68137417,9.20131682 C7.68139487,9.79903695 7.17102649,10.2839623 6.54141142,10.2839623 L4.25763659,10.2839623 Z M14.4489031,15.9872642 C14.8640315,15.9872642 15.200476,15.6675118 15.200476,15.2732115 C15.200476,14.8789112 14.8640728,14.5594536 14.4489031,14.5594536 L3.92063328,14.5594536 C3.50550497,14.5594536 3.16910182,14.8789112 3.16910182,15.2732115 C3.16910182,15.6675118 3.50550497,15.9872642 3.92063328,15.9872642 L14.4489031,15.9872642 Z" id="形状" fill-opacity="0.7"></path>
            <path d="M11.5693088,8.04675708 C12.4402111,7.3690055 12.9443502,6.35587657 12.9434396,5.28663522 C12.9446399,4.20011792 12.4242964,3.17275943 11.5305464,2.49471305 C10.6364455,1.81723178 9.46612541,1.56333578 8.35095199,1.80491352 C7.71955712,3.02509827 7.71868791,4.45428459 8.34832368,5.67527516 C8.97789735,6.89634434 10.1672806,7.77195362 11.5693088,8.04675708 Z" id="路径" fill-opacity="0.7"></path>
        </g>
    </g>
</svg>