<?xml version="1.0" encoding="UTF-8"?>
<svg width="16px" height="16px" viewBox="0 0 16 16" version="1.1" xmlns="http://www.w3.org/2000/svg" xmlns:xlink="http://www.w3.org/1999/xlink">
    <!-- Generator: Sketch 54.1 (76490) - https://sketchapp.com -->
    <title>ico-ranking</title>
    <desc>Created with Sketch.</desc>
    <g id="ico-ranking" stroke="none" stroke-width="1" fill="none" fill-rule="evenodd">
        <g transform="translate(1.000000, 0.000000)" fill-rule="nonzero">
            <path d="M10.0658136,4.63650242 L10.0644053,4.63963285 C10.0655858,4.64061836 10.066787,4.64152657 10.0680296,4.64249275 L10.3683669,3.98971981 C10.7510301,3.15627828 10.9481822,2.25897172 10.947855,1.35227053 C10.947855,0.611439614 10.3040828,0.0106666667 9.5101213,0.0106666667 L7.46887574,0.0106666667 C7.12388757,0.0106666667 6.84419822,0.271555556 6.84419822,0.593198068 L6.84419822,1.09190338 C6.84796746,1.46446377 6.5427426,1.77650242 6.14461243,1.80662802 C5.92676491,1.83640598 5.70609401,1.77339303 5.54342012,1.63495652 C5.38075904,1.49644437 5.29344184,1.29704633 5.30560651,1.09188406 L5.30560651,0.585217391 C5.30560651,0.263555556 5.02595858,0.002647343 4.68092899,0.002647343 L2.73652367,0.002647343 C2.32879466,0.00256053456 1.9377973,0.153906083 1.64986686,0.4232657 C1.36192233,0.692656633 1.20071427,1.05789291 1.20182544,1.43835749 C1.20182544,2.28745894 1.36752663,3.1297971 1.69124556,3.92349758 L2.00564497,4.69569082 C4.29172485,2.78197101 7.74757101,2.75663768 10.0658136,4.63650242 L10.0658136,4.63650242 Z" id="路径" fill="#FF7E00" opacity="0.4"></path>
            <path d="M10.0680296,4.64251208 L9.93921302,4.9207343 C9.7244497,5.23528502 9.49057101,5.33961353 9.15585503,5.23528502 C9.0007574,5.18554589 8.87562722,5.07756522 8.81111538,4.93715942 C8.74654142,4.79650242 8.74830178,4.63704348 8.81658284,4.49841546 C8.33292296,4.2706168 7.81700941,4.10813436 7.2843284,4.01584541 C6.22774537,3.87039163 5.14923469,3.96155843 4.13786982,4.28181643 C3.76994264,4.3784336 3.4193879,4.52538177 3.09762426,4.7178744 C2.89831065,4.86305314 2.73521893,5.01723671 2.58892308,5.09945894 C2.58389053,5.10231884 2.57885799,5.10471498 2.57378402,5.10742029 C2.49131657,5.15201932 2.41265976,5.17300483 2.33302959,5.15312077 C2.22098954,5.11101055 2.134085,5.02555867 2.09488462,4.91895652 L2.00471302,4.69841546 C0.734647929,5.76921739 0.0119289941,7.29292754 0.0171065089,8.89006763 C0.00550887574,11.6488889 2.14301479,14.0075362 5.06075148,14.4548599 C5.30711834,13.0808696 6.20038462,11.8818744 7.49507396,11.1878841 C8.78978402,10.4934106 10.3497278,10.3771594 11.7465385,10.8705121 C11.9974589,10.2365462 12.1253255,9.56594009 12.124145,8.8901256 C12.1292811,7.26345894 11.3794941,5.71408696 10.0680296,4.64251208 L10.0680296,4.64251208 Z M6.05659467,11.0847729 C5.59560947,11.0502029 5.17434615,10.8938357 4.82792899,10.6509758 C4.24761243,10.247942 3.8753284,9.603343 3.8753284,8.8829372 C3.8753284,7.73437681 4.82097041,6.77864734 6.04810355,6.68714976 C6.63071893,6.64372947 7.19796746,6.80347826 7.65035799,7.11905314 C7.89329242,7.28690541 8.09937069,7.49677644 8.25736982,7.73723671 C8.72189645,8.44401932 8.72189645,9.33397101 8.25736982,10.0407729 C7.79261538,10.7474203 6.94228107,11.1509952 6.05659467,11.0847729 L6.05659467,11.0847729 Z" id="形状" fill="#FF7E00" opacity="0.4"></path>
            <path d="M2.58888166,5.09949758 C2.7351568,5.01727536 2.89826923,4.86309179 3.09758284,4.71791304 C3.09810059,4.71750725 3.09865976,4.71710145 3.09919822,4.716657 C3.42037306,4.52446956 3.77039929,4.37792566 4.13778698,4.28183575 C5.14915632,3.96159743 6.22766193,3.87043106 7.28424556,4.01586473 C7.81693152,4.10813591 8.33284773,4.27061917 8.8165,4.49843478 C8.7503373,4.63637855 8.74922539,4.79389269 8.81343491,4.93263768 C8.87731955,5.07161235 9.00073435,5.17922313 9.15365976,5.22929469 C9.49044675,5.33331401 9.71370118,5.22929469 9.93699704,4.91497585 L10.0643225,4.6395942 L10.0657515,4.63650242 C7.74748817,2.756657 4.2916213,2.78200966 2.00554142,4.69571014 L2.00456805,4.69648309 L2.09473964,4.9167343 C2.13434563,5.02382011 2.22209032,5.10943158 2.33497633,5.15113043 C2.41164497,5.17194203 2.49003254,5.15190338 2.57361834,5.10745894 C2.57883728,5.10475362 2.58376627,5.10233816 2.58888166,5.09949758 L2.58888166,5.09949758 Z M4.82594083,8.93607729 C4.82606509,8.94042512 4.82621006,8.94477295 4.8265,8.9490628 C4.86052663,9.55543961 5.39826331,10.0375266 6.05663609,10.0375266 C6.73489053,10.0375266 7.2849497,9.52585507 7.28842899,8.89373913 C7.2849497,8.26164251 6.73486982,7.75051208 6.0566568,7.75051208 C5.44073964,7.75051208 4.9304645,8.17196135 4.83923669,8.72280193 C4.8386568,8.72637681 4.83818047,8.73006763 4.8376213,8.73375845 C4.83536391,8.748657 4.83318935,8.76371014 4.83149112,8.77887923 C4.83086982,8.78485024 4.83039349,8.79089855 4.82987574,8.79698551 C4.82863314,8.81008696 4.82741124,8.82314976 4.82664497,8.83630918 C4.82623077,8.84340097 4.82606509,8.85055072 4.82585799,8.85771981 C4.82540237,8.86973913 4.82492604,8.88166184 4.82490533,8.89375845 C4.82488462,8.90794203 4.82531953,8.92202899 4.82594083,8.93607729 L4.82594083,8.93607729 Z" id="形状" fill="#FF7E00" opacity="0.4"></path>
            <path d="M8.25734911,7.7371401 C8.09934216,7.49668472 7.8932568,7.28682019 7.65031657,7.11897585 C7.19943787,6.80730435 6.63560651,6.64981643 6.05659467,6.69304348 C4.82981361,6.78454106 3.88388166,7.74025121 3.88388166,8.88892754 C3.88388166,9.60593237 4.2525,10.2475942 4.82790828,10.6509565 C5.17430473,10.8938164 5.59558876,11.0502415 6.05659467,11.0847536 C6.94226036,11.1509758 7.79261538,10.7474589 8.25734911,10.0406763 C8.72191716,9.33391304 8.72191716,8.44392271 8.25734911,7.7371401 L8.25734911,7.7371401 Z M4.82656213,8.83634783 C4.82726627,8.82309179 4.8285503,8.81004831 4.82977219,8.79696618 C4.83031065,8.79091787 4.83078698,8.78485024 4.83138757,8.77884058 C4.83310651,8.7636715 4.83519822,8.748657 4.83751775,8.73375845 C4.8380355,8.73008696 4.83853254,8.72637681 4.83911243,8.72278261 C4.93002959,8.16948792 5.43955917,7.74544928 6.05655325,7.74030918 L6.05655325,7.7386087 C6.73689941,7.7386087 7.28849112,8.25292754 7.28849112,8.88784541 C7.28849112,8.88985507 7.28832544,8.89174879 7.28832544,8.89377778 C7.28482544,9.52589372 6.73470414,10.0375459 6.05655325,10.0375459 C5.39813905,10.0375459 4.8604645,9.55547826 4.82637574,8.94910145 C4.82606509,8.94483092 4.82600296,8.94046377 4.82583728,8.93611594 C4.82520024,8.92201016 4.8248136,8.90789551 4.82467751,8.89377778 C4.82467751,8.89176812 4.82451183,8.8898744 4.82451183,8.88784541 C4.82461538,8.87773913 4.82523669,8.86772947 4.8256716,8.85771981 C4.82602367,8.85057005 4.82614793,8.84343961 4.82656213,8.83634783 Z" id="形状" fill="#FFFFFF" opacity="0.4"></path>
            <path d="M7.49503254,11.1878841 C6.20032249,11.8818357 5.30705621,13.0808889 5.06071006,14.4548599 C5.39556027,14.5070876 5.73447395,14.5333288 6.07397041,14.533314 C8.60099112,14.5435556 10.8662988,13.0811594 11.7465592,10.8705314 C10.3497071,10.3771787 8.78976331,10.4934106 7.49503254,11.1878841 Z" id="路径" fill="#FD973F" opacity="0.4"></path>
            <path d="M7.17671893,2.04025121 C7.17671893,1.71857005 6.89717456,1.45766184 6.55212426,1.45766184 L4.60778107,1.45766184 C4.20002826,1.45754896 3.80900129,1.60889731 3.52106213,1.87828019 C3.23312341,2.1476543 3.0719342,2.5128846 3.07308284,2.89333333 C3.07308284,3.74249275 3.23878402,4.58477295 3.56248225,5.37847343 L3.87806213,6.15341063 C6.16523964,4.24005797 9.62187278,4.21592271 11.9392249,6.09744928 L12.2395207,5.44471498 C12.6221874,4.61127103 12.8193734,3.71397041 12.8191124,2.8072657 C12.8191124,2.06641546 12.1752574,1.46568116 11.3813166,1.46568116 L9.3400503,1.46568116 C8.99504142,1.46568116 8.7154142,1.72655072 8.7154142,2.04825121 L8.7154142,2.54695652 C8.71914201,2.91951691 8.41389645,3.2315942 8.01586982,3.26168116 C7.79803387,3.29147232 7.57736961,3.22845692 7.41471893,3.09000966 C7.25203016,2.95151549 7.16466906,2.75212849 7.17678107,2.54695652 L7.17671893,2.04025121 L7.17671893,2.04025121 Z" id="路径" fill="#FF7E00"></path>
            <path d="M9.15339053,5.46857971 C8.09734411,5.32424768 7.01965387,5.41618485 6.00916864,5.73681159 C5.64092454,5.83348969 5.29008322,5.98059075 4.96809467,6.17331401 C4.64652959,6.39777778 4.42965385,6.66434783 4.20426627,6.60809662 C4.09222453,6.56601358 4.00533565,6.48054736 3.96620414,6.37393237 L3.87599112,6.15337198 C2.60594675,7.22419324 1.8832071,8.74796135 1.88838462,10.3450435 C1.87684911,13.1038454 4.01427219,15.4624348 6.93194675,15.9097971 C7.17837574,14.5357874 8.07164201,13.3368889 9.36631065,12.6428986 C10.6610414,11.9483285 12.2211095,11.8320773 13.6177337,12.3255266 C13.8687069,11.6915454 13.9965953,11.0209086 13.9954024,10.3450628 C14.0005385,8.71841546 13.2506893,7.16908213 11.9392663,6.09744928 L11.8104911,6.37569082 C11.5957071,6.69024155 11.3618491,6.79457005 11.0271124,6.69024155 C10.8722161,6.64075533 10.7469689,6.53246294 10.6823107,6.39211594 C10.6178195,6.25147826 10.6195592,6.09205797 10.6878609,5.9533913 C10.2035035,5.72492123 9.68687036,5.56169244 9.15339053,5.46857971 L9.15339053,5.46857971 Z M10.1200947,11.4897391 C9.65538166,12.1962126 8.80494379,12.5997295 7.91923669,12.5337585 C6.69218639,12.4423575 5.74648225,11.4862995 5.74648225,10.3379324 C5.74648225,9.18931401 6.69214497,8.23362319 7.91923669,8.14210628 C8.80486095,8.07621256 9.65531953,8.479343 10.1200947,9.18622222 C10.5845799,9.89261836 10.5845799,10.7829758 10.1200947,11.4897391 Z" id="形状" fill="#FF7E00"></path>
            <path d="M9.36668343,12.6428406 C8.07195266,13.3367923 7.17868639,14.5358261 6.93236095,15.9097778 C7.26721776,15.9620039 7.60613932,15.9882323 7.94564201,15.9881932 C10.4726627,15.9985314 12.7379704,14.5360773 13.6182308,12.3254686 C12.221358,11.8321159 10.6614142,11.9483478 9.36668343,12.6428406 L9.36668343,12.6428406 Z" id="路径" fill="#FD973F"></path>
            <path d="M7.92783136,9.20554589 C7.2474645,9.20554589 6.69589349,9.71986473 6.69589349,10.3547633 C6.70171302,10.987343 7.24988757,11.4988792 7.92783136,11.5044638 C8.60828107,11.5044638 9.1599142,10.9895845 9.1599142,10.3547633 C9.15983136,9.71986473 8.60823964,9.20554589 7.92783136,9.20554589 Z M10.6846923,6.3875942 C10.7486322,6.52655522 10.8720445,6.6341647 11.0249586,6.68428986 C11.361787,6.7883285 11.5850621,6.68428986 11.8082337,6.36999034 L11.9371331,6.09149758 C9.61845562,4.21136232 6.16196746,4.23692754 3.87590828,6.15143961 L3.9661213,6.37169082 C4.00570464,6.47880275 4.09345403,6.56443999 4.20635799,6.60614493 C4.42110059,6.66434783 4.64857988,6.40575845 4.97049704,6.17157488 C5.29168694,5.97942267 5.64170947,5.83289335 6.0090858,5.73679227 C7.02042334,5.41654083 8.09890388,5.32536755 9.15546154,5.47080193 C9.68817137,5.56302885 10.2041118,5.72549365 10.6877781,5.95331401 C10.6216609,6.09129259 10.6205416,6.24880978 10.6846923,6.3875942 L10.6846923,6.3875942 Z" id="形状" fill="#FF7E00"></path>
        </g>
    </g>
</svg>