<?xml version="1.0" encoding="UTF-8"?>
<svg width="16px" height="16px" viewBox="0 0 16 16" version="1.1" xmlns="http://www.w3.org/2000/svg" xmlns:xlink="http://www.w3.org/1999/xlink">
    <!-- Generator: Sketch 54.1 (76490) - https://sketchapp.com -->
    <title>ico-goal</title>
    <desc>Created with Sketch.</desc>
    <g id="ico-goal" stroke="none" stroke-width="1" fill="none" fill-rule="evenodd">
        <g id="goal" transform="translate(0.000000, 1.000000)" fill-rule="nonzero">
            <path d="M13.5880948,6.17441067 C13.9601272,5.82075342 14.0923827,5.29605147 13.9298827,4.8184228 C13.767374,4.34076211 13.3380187,3.99189885 12.8204303,3.91663485 L10.3821991,3.58369361 C9.93067003,3.52254503 9.53949743,3.25201785 9.3363502,2.86040533 L8.29475296,0.852850391 C8.29342163,0.849122207 8.29254123,0.845105655 8.29095222,0.841418667 L8.23875104,0.741684598 C8.20793602,0.681222682 8.17255421,0.623002596 8.13288849,0.567489839 C8.11147978,0.539806529 8.08811701,0.515892598 8.06715923,0.489836506 C8.04577199,0.464068782 8.02855054,0.439866483 8.00720625,0.417785747 C7.9186542,0.329171127 7.81735851,0.253145965 7.70638914,0.192014345 C7.65240668,0.161768588 7.59628169,0.135187418 7.5384263,0.112466023 C7.42359553,0.0670619909 7.30296098,0.0365621721 7.17971762,0.0217743448 C7.05675648,0.00634678034 6.93222428,0.00634678034 6.80926314,0.0217743448 C6.44264436,0.0690761396 6.11187041,0.257431239 5.89302606,0.543514115 C5.87205995,0.571151609 5.8521833,0.599534645 5.83343811,0.628603218 C5.8052931,0.669810767 5.77946695,0.712433416 5.75607042,0.756288368 L5.39736174,1.4593703 L4.67217111,2.87523568 C4.65067069,2.91706693 4.62677764,2.95772694 4.60060116,2.99702989 L4.56985164,3.04329232 L4.51973335,3.10634189 C4.48116539,3.15404374 4.43926817,3.19918081 4.39433025,3.24144221 C5.0661172,3.8991268 6.08555416,4.10174639 6.97406943,3.75420138 C7.86288533,3.40663577 8.44427039,2.57796966 8.4453011,1.65756138 L8.4492951,1.6538126 C8.448973,1.42935945 8.41208216,1.20682189 8.34360434,0.992976552 C8.66179322,1.96073894 8.27068158,3.02310657 7.36996957,3.57912092 C6.42319769,4.16368368 5.17784191,4.02621462 4.39430878,3.25075237 C4.18724522,3.44803689 3.92053624,3.5775802 3.63220584,3.62091366 L1.1960575,3.9538549 C0.675296442,4.02852944 0.243780133,4.38011213 0.082697059,4.86097766 C-0.0786091114,5.3417692 0.0583250537,5.8685966 0.43595156,6.2207349 L2.20497262,7.86366933 C2.53205992,8.16815018 2.68208092,8.60748203 2.60617663,9.0385828 L2.19908899,11.3702014 C2.11566254,11.8673862 2.33255249,12.3670658 2.7591727,12.6605444 C3.18570264,12.9542003 3.74868253,12.9912104 4.21298965,12.7561177 L6.39070884,11.6457574 C6.79413404,11.4426226 7.27586485,11.4426226 7.67929004,11.6457574 L9.86315055,12.7393718 C10.3302127,12.9728673 10.8951922,12.9318367 11.3205106,12.6335614 C11.7457511,12.3350998 11.9576352,11.8310566 11.8671736,11.3331255 L11.4426927,9.00535871 C11.3621812,8.57611165 11.5064038,8.13629522 11.8285864,7.82855025 L13.5880948,6.17441067 L13.5880948,6.17441067 Z" id="路径" fill="#FEC744" opacity="0.4"></path>
            <path d="M14.8076614,5.00592368 L12.3693872,4.67294124 C11.9177858,4.61176607 11.5268459,4.34102989 11.3235812,3.94959117 L10.2781403,1.93435329 C10.6892434,2.93987126 10.3039081,4.08413536 9.35709324,4.66843034 C8.41027842,5.25289011 7.16505147,5.11540046 6.38156129,4.3399794 C6.17451198,4.53729431 5.90778539,4.66684252 5.61943688,4.71014069 L3.18335295,5.04310253 C2.66257929,5.11772554 2.23104778,5.46931942 2.07001399,5.95020469 C1.90866487,6.43105802 2.04562051,6.95784423 2.42322554,7.30994133 L4.19226808,8.95291697 C4.51933088,9.25738488 4.6693289,9.69669685 4.59340766,10.1277686 L4.18642739,12.4594696 C4.1028969,12.9565127 4.31971112,13.456213 4.74640373,13.7498126 C5.17309635,14.0433092 5.73590715,14.0804263 6.20028511,13.8453035 L8.37802577,12.7350257 C8.78144508,12.5318088 9.26323061,12.5318088 9.66664992,12.7350257 L11.8503816,13.828537 C12.3176225,14.0620871 12.8825519,14.0210567 13.307806,13.7226854 C13.7331458,13.4243483 13.9449139,12.9201166 13.854512,12.4222908 L13.4300096,10.0945651 C13.3495431,9.66531948 13.4937778,9.22552303 13.8159462,8.91777729 L15.5752614,7.2636377 C15.9474552,6.90995457 16.0795794,6.38524874 15.9172211,5.90764984 C15.754648,5.43005094 15.3252712,5.08118768 14.8076614,5.00592368 L14.8076614,5.00592368 Z M8.99924349,10.4610189 C8.17858332,10.4599684 7.51386103,9.82141903 7.51386103,9.03429848 C7.51386103,8.85087595 7.6688541,8.70246952 7.86011529,8.70246952 C8.0514409,8.70246952 8.20639102,8.85079356 8.20639102,9.03429848 C8.20639102,9.45447099 8.56151369,9.7948686 8.99926496,9.7948686 C9.43716655,9.7948686 9.79226774,9.45449159 9.79226774,9.03429848 C9.7923061,8.91568003 9.85819347,8.80605694 9.96519088,8.74658979 C10.0723962,8.6874965 10.2042613,8.6874965 10.3114666,8.74658979 C10.4186988,8.80588305 10.4847813,8.91557207 10.4847977,9.03429848 C10.4846689,9.82143963 9.81983925,10.4599684 8.99924349,10.4610189 L8.99924349,10.4610189 Z" id="形状" fill="#FFBA00"></path>
            <path d="M10.2259821,1.83093223 C10.1951159,1.77049415 10.1597437,1.71227119 10.120141,1.65671687 C10.0988182,1.62913655 10.0754554,1.60518143 10.0543259,1.57910474 C10.0330674,1.55333701 10.015846,1.52917591 9.99448023,1.50705398 C9.90590517,1.4184467 9.80459648,1.34242264 9.69362017,1.28128257 C9.63958536,1.25105809 9.58342675,1.22447111 9.52554997,1.20171366 C9.41072578,1.15633746 9.29010839,1.12584526 9.16688424,1.11104257 C9.04394606,1.0955944 8.91943235,1.0955944 8.79649418,1.11104257 C8.42985155,1.15832398 8.09905819,1.34670059 7.88023562,1.63282354 C7.85928383,1.66047768 7.83940755,1.68886706 7.82064767,1.71793324 C7.79241051,1.75912864 7.76657833,1.80197186 7.74332293,1.84561839 L7.38459278,2.54870032 L6.6593592,3.9645657 C6.63786059,4.00639653 6.61398227,4.04706275 6.5878322,4.08638051 L6.55708267,4.13264294 L6.50689996,4.19565131 C6.46833101,4.24333418 6.42646424,4.28847624 6.38158276,4.33077223 C7.05334824,4.98841563 8.07265636,5.19111761 8.96130047,4.84349021 C9.85015931,4.4958834 10.4315658,3.66727908 10.432618,2.7468708 L10.4364402,2.74316322 C10.4360981,2.4653067 10.3824072,2.18988693 10.2780544,1.9306869 L10.2259821,1.83093223 L10.2259821,1.83093223 Z" id="路径" fill="#FEC744"></path>
        </g>
    </g>
</svg>