<?xml version="1.0" encoding="UTF-8"?>
<svg width="16px" height="16px" viewBox="0 0 16 16" version="1.1" xmlns="http://www.w3.org/2000/svg" xmlns:xlink="http://www.w3.org/1999/xlink">
    <!-- Generator: Sketch 54.1 (76490) - https://sketchapp.com -->
    <title>ico-reading</title>
    <desc>Created with Sketch.</desc>
    <g id="ico-reading" stroke="none" stroke-width="1" fill="none" fill-rule="evenodd">
        <g id="reading" transform="translate(0.000000, 2.000000)" fill-rule="nonzero">
            <path d="M8.04786358,11.0949429 C8.52866261,10.9278977 9.47482582,10.5903669 10.3878782,10.186194 C10.6242923,10.0807474 10.857296,9.95090376 11.3118636,9.69141203 C11.5972557,9.55891869 11.8497875,9.36455921 12.0512546,9.12234436 C12.1537797,8.98560651 12.2341935,8.83352279 12.2895396,8.67168421 L12.2895396,0.885192481 C12.2876687,0.399774436 11.895659,0.0067443609 11.4116833,0.00465263158 C11.2296614,0.0354030075 10.9681267,0.0869338346 10.6563703,0.171658647 C11.132648,1.39162556 11.0100073,2.76595038 10.3246577,3.8818782 C9.65234592,4.9764782 8.51457247,5.69429323 7.24357613,5.83660902 C7.21872838,5.83928722 7.19487454,5.84566015 7.16998782,5.84804511 L7.16998782,10.2143639 C7.17213155,10.6998602 7.56390743,11.0927729 8.04786358,11.0949429 L8.04786358,11.0949429 Z M5.43087942,11.0949429 C5.91483557,11.0928316 6.30666991,10.6998602 6.30875518,10.2143248 L6.30875518,5.84079248 C5.02651241,5.69656145 3.88347382,4.96392256 3.21424604,3.85734436 C2.5446821,2.75103459 2.42506212,1.39557444 2.88966626,0.188079699 C2.61453747,0.111850785 2.33565409,0.0499802895 2.05413886,0.00271729323 C1.5701827,0.00463308271 1.17836784,0.397878195 1.17624361,0.883335338 L1.17624361,8.66980752 C1.23152685,8.83164661 1.31205328,8.98366446 1.41482095,9.12019398 C1.61944945,9.36502406 1.87677467,9.55994586 2.1668989,9.69139248 C2.630743,9.95086466 2.86372716,10.082585 3.09111815,10.186194 C4.00395615,10.5903278 4.95041169,10.9279173 5.43087942,11.0949429 L5.43087942,11.0949429 Z" id="形状" fill="#FF5368" opacity="0.4"></path>
            <path d="M12.566665,10.4533489 C12.7981871,10.4487492 13.0224882,10.3716861 13.2082046,10.2329353 C13.3723567,10.0942632 13.4902953,9.90854235 13.5461924,9.70069774 L13.5461924,1.91397143 C13.5449062,1.46329173 13.2042095,1.08646767 12.7570475,1.04078195 C12.7673374,1.09229323 12.7729306,1.14433233 12.7737101,1.19666466 L12.7737101,8.98315639 C12.7184627,9.14494143 12.6380397,9.2969371 12.5354251,9.43350376 C12.3342015,9.67605986 12.0816057,9.87057038 11.7960146,10.0028842 C11.3488721,10.2530902 11.1177199,10.3826797 10.8884775,10.4867579 C11.1326285,10.4868165 11.8571693,10.5016346 12.566665,10.4533489 Z M0.802962241,1.04453534 C0.357437272,1.09018195 0.0172472594,1.4646406 0.0137783191,1.91397143 L0.0137783191,9.70073684 C0.06903762,9.90990764 0.187178594,10.0969312 0.352136419,10.2363759 C0.53766195,10.37529 0.761878938,10.4524733 0.993344702,10.4571023 C1.70313276,10.5054075 2.42740073,10.4958872 2.67153228,10.4905504 C2.4422704,10.3864722 2.21141048,10.256785 1.76405359,10.0066962 C1.47854832,9.87434182 1.22604087,9.67981934 1.02489647,9.43727669 C0.922145073,9.30075816 0.841619802,9.1487623 0.786319123,8.98694887 L0.786319123,1.20037895 C0.787118149,1.14806617 0.792691839,1.09602707 0.802962241,1.04453534 Z" id="形状" fill="#FF5368" opacity="0.4"></path>
            <path d="M10.3246188,3.8818 C11.0100658,2.76589173 11.1326675,1.39160602 10.6563703,0.171580451 C10.6562339,0.17107218 10.6560585,0.170290226 10.6558051,0.169703759 C9.6522095,0.442195489 8.16432643,1.05933383 7.42707917,2.46096842 C7.32200087,2.66028755 7.23531897,2.8688306 7.16811693,3.08399098 L7.16811693,5.84796692 C7.19358831,5.84556241 7.2181827,5.83922857 7.24357613,5.83653083 C8.51457247,5.69421504 9.65230694,4.97638045 10.3246188,3.8818 L10.3246188,3.8818 Z M2.89711084,0.18806015 C2.43246772,1.39557444 2.55214616,2.75101504 3.22137881,3.85732481 C3.89094275,4.96394737 5.03405603,5.6965609 6.31614129,5.84077293 L6.31807065,5.84077293 L6.31807065,3.08399098 C6.25083509,2.86888728 6.16425592,2.66035596 6.05940073,2.46096842 C5.33854324,1.09100301 3.89889403,0.469818045 2.89711084,0.18806015 Z" id="形状" fill="#FF8E9C" opacity="0.4"></path>
            <path d="M9.60982217,7.7515188 L9.60982217,12.1178962 C9.61186845,12.6032947 10.0037808,12.9963835 10.4877759,12.9984947 C10.9685164,12.8314692 11.9146797,12.4939188 12.827771,12.0897068 C13.0641072,11.9842992 13.2971693,11.8544165 13.7516979,11.595003 C14.0370919,11.4624682 14.2896268,11.2680847 14.4911084,11.0258571 C14.5935987,10.8891175 14.6739975,10.7370502 14.7293544,10.5752361 L14.7293544,2.78872481 C14.7275615,2.30326767 14.3354933,1.91023759 13.8514982,1.90810677 C13.6667284,1.93942406 13.4006529,1.99148271 13.0827576,2.07863158 C13.5573983,3.29646767 13.4353228,4.66729323 12.7531108,5.78163759 C12.0711023,6.89620837 10.9074876,7.6254391 9.60982217,7.7515188 Z M4.49405116,1.90626917 C4.01009501,1.90810677 3.61826066,2.30143008 3.61613642,2.78684812 L3.61613642,10.5733594 C3.67138644,10.7352053 3.75190136,10.8872262 3.85467479,11.0237459 C4.05934227,11.2685759 4.31670646,11.4634586 4.60683069,11.5949639 C5.07063581,11.854397 5.30360049,11.9861955 5.53101096,12.0896872 C6.44386845,12.4938992 7.39028502,12.8314496 7.87083069,12.9984752 C8.35474787,12.9963444 8.74660171,12.6032752 8.74868697,12.1178767 L8.74868697,7.74440301 C7.46652375,7.60019098 6.32339099,6.8674406 5.65411937,5.76091579 C4.98461389,4.65462556 4.86491596,3.29912632 5.32953959,2.09167068 C5.05443045,2.0154052 4.77555882,1.95352138 4.49405116,1.90626917 L4.49405116,1.90626917 Z" id="形状" fill="#FF5368"></path>
            <path d="M14.9753374,11.3371143 C14.7740917,11.5796636 14.5214849,11.7741723 14.2358879,11.9064947 C13.7887454,12.1566421 13.5575932,12.2862902 13.3283703,12.3903293 C13.5724823,12.3903293 14.2969842,12.4052842 15.0065579,12.3569008 C15.2380605,12.3523102 15.4623437,12.2752531 15.648039,12.1365068 C15.8121861,11.9978033 15.9301391,11.8120784 15.9860853,11.6042301 L15.9860853,3.81752331 C15.9847406,3.36686316 15.6440244,2.99005865 15.1968819,2.94433383 C15.2071912,2.99584511 15.2127649,3.04792331 15.2135445,3.10021654 L15.2135445,10.8867278 C15.1582888,11.0485059 15.077895,11.2005093 14.9753374,11.3371143 L14.9753374,11.3371143 Z M3.24285505,2.94804812 C2.79729111,2.99375338 2.4571011,3.36817293 2.45365164,3.81752331 L2.45365164,11.6042887 C2.50891033,11.813455 2.62704348,12.0004769 2.79199026,12.1399278 C2.97749743,12.2788627 3.20171514,12.3560486 3.43317905,12.3606541 C4.14292814,12.4089594 4.86727406,12.3994195 5.11134714,12.3940436 C4.88208526,12.289985 4.65126431,12.1603759 4.20384896,11.910209 C3.9183449,11.7778879 3.66583589,11.583391 3.46469184,11.3408677 C3.36193772,11.2043419 3.28143652,11.052322 3.22619245,10.8904812 L3.22619245,3.10395038 C3.2269525,3.05165714 3.23254568,2.9995985 3.24285505,2.94804812 L3.24285505,2.94804812 Z" id="形状" fill="#FF5368"></path>
            <path d="M13.0956395,2.07331429 C12.0920438,2.34580602 10.6041608,2.96294436 9.86689403,4.36457895 C9.76178968,4.563895 9.67510052,4.77244637 9.6079123,4.98762105 L9.6079123,7.75155789 C10.9096809,7.63023759 12.0787722,6.90172932 12.7644336,5.78533233 C13.4501145,4.66889624 13.5726772,3.29382857 13.0956395,2.07331429 L13.0956395,2.07331429 Z" id="路径" fill="#FFBA00"></path>
            <path d="M13.0956395,2.07331429 C12.0920438,2.34580602 10.6041608,2.96294436 9.86689403,4.36457895 C9.76178968,4.563895 9.67510052,4.77244637 9.6079123,4.98762105 L9.6079123,7.75155789 C10.9096809,7.63023759 12.0787722,6.90172932 12.7644336,5.78533233 C13.4501145,4.66889624 13.5726772,3.29382857 13.0956395,2.07331429 L13.0956395,2.07331429 Z" id="路径" fill="#FF8E9C"></path>
            <path d="M8.7560341,7.74438346 L8.75788551,7.74438346 L8.75788551,4.98754286 C8.69070787,4.77241764 8.6041401,4.56387581 8.49925457,4.36450075 C7.77833861,2.99449624 6.33870889,2.37333083 5.33694519,2.09159248 C4.87236054,3.29910677 4.99198051,4.65454737 5.66127162,5.76083759 C6.33073812,6.86746015 7.47392935,7.60017143 8.7560341,7.74438346 L8.7560341,7.74438346 Z" id="路径" fill="#FFBA00"></path>
            <path d="M8.7560341,7.74438346 L8.75788551,7.74438346 L8.75788551,4.98754286 C8.69070787,4.77241764 8.6041401,4.56387581 8.49925457,4.36450075 C7.77833861,2.99449624 6.33870889,2.37333083 5.33694519,2.09159248 C4.87236054,3.29910677 4.99198051,4.65454737 5.66127162,5.76083759 C6.33073812,6.86746015 7.47392935,7.60017143 8.7560341,7.74438346 L8.7560341,7.74438346 Z" id="路径" fill="#FF8E9C"></path>
        </g>
    </g>
</svg>