<?xml version="1.0" encoding="UTF-8"?>
<svg width="16px" height="16px" viewBox="0 0 16 16" version="1.1" xmlns="http://www.w3.org/2000/svg" xmlns:xlink="http://www.w3.org/1999/xlink">
    <!-- Generator: Sketch 54.1 (76490) - https://sketchapp.com -->
    <title>ico-notify</title>
    <desc>Created with Sketch.</desc>
    <g id="ico-notify" stroke="none" stroke-width="1" fill="none" fill-rule="evenodd">
        <g id="notify" transform="translate(0.000000, 2.000000)" fill-rule="nonzero">
            <path d="M3.19329598,3.36459013 C2.26866763,3.36459013 1.39969699,2.92300741 0.840425861,2.17602454 C0.832722787,2.16599971 0.825199318,2.1557707 0.817596024,2.14562336 L0.814462909,2.14133575 C0.796209164,2.11715868 0.778319688,2.09269602 0.760800819,2.06795642 L0.760800819,10.2672092 C0.759663318,10.9945304 1.33418095,11.5854852 2.04513879,11.5886294 L8.77321542,11.5886294 C9.48249694,11.5866081 10.057294,10.9985934 10.0592097,10.2729465 L10.0592097,1.51360962 C10.0561365,0.788493546 9.48189825,0.20186719 8.77321542,0.199866307 L6.17133244,0.199866307 L6.17133244,0.31806135 C6.17129253,2.00057973 4.83784248,3.36459013 3.19329598,3.36459013 Z M4.18908796,6.83334616 L4.18908796,6.82818061 C4.5480858,7.08522641 4.97553739,7.22336705 5.41371713,7.22394719 C5.85189124,7.22337075 6.27933752,7.08522958 6.63832633,6.82818061 L6.63832633,6.83334616 C6.64082085,6.83159028 6.64337524,6.82999774 6.64586976,6.82818061 L6.64028204,7.86208609 C6.6406917,7.98955934 6.56584795,8.10467657 6.45077843,8.15356172 C6.33559152,8.20235877 6.20302281,8.17526518 6.11541531,8.0850825 L5.41174147,7.36507072 L4.70637135,8.0830612 C4.67853731,8.11134463 4.64567959,8.13392907 4.60956406,8.14960079 C4.57189428,8.16605824 4.53134641,8.17450521 4.49038593,8.17442807 C4.41079231,8.1732433 4.33475788,8.14048573 4.27831191,8.0830612 C4.25748907,8.06148955 4.2397642,8.03700337 4.22566759,8.01033521 C4.21887251,7.99870899 4.212794,7.98665981 4.20746758,7.97425806 C4.19157999,7.93580047 4.18341565,7.89446621 4.18346033,7.8527146 L4.18346033,6.82950773 C4.18280177,6.82907897 4.18214322,6.82867063 4.18148467,6.82818061 L4.18346033,6.82818061 L4.18346033,6.82950773 C4.18535616,6.83083485 4.18729191,6.83205988 4.18908796,6.83334616 Z M5.41180133,3.13989909 C6.42940539,3.13989909 7.2544725,3.98374106 7.2544725,5.02485379 C7.2544725,5.02628299 7.25439267,5.02773261 7.25439267,5.02920265 C7.25439267,5.03036643 7.2544725,5.03142812 7.2544725,5.03255107 C7.2544725,5.0417388 7.25393368,5.05080402 7.25381394,5.05995092 C7.2535146,5.08200147 7.25321526,5.10407244 7.25215758,5.12606174 C7.2517385,5.13514739 7.25088039,5.14413094 7.25034157,5.15315534 C7.24906162,5.17571191 7.24737837,5.19824263 7.24529267,5.2207362 C7.24431482,5.23094479 7.24287797,5.24099004 7.24176043,5.25115779 C7.23938565,5.27206498 7.23701086,5.29299259 7.23397753,5.31379769 C7.23232117,5.32523131 7.23020582,5.3365016 7.22832994,5.34785355 C7.225117,5.36722945 7.22200384,5.38658493 7.21819221,5.40581791 C7.2158773,5.41755779 7.21314331,5.42917517 7.21060888,5.44085379 C7.20653782,5.45959676 7.20252664,5.47831931 7.19795668,5.49687853 C7.19524264,5.50792422 7.19210952,5.51874533 7.18919593,5.5296481 C7.18418046,5.54893649 7.17885143,5.56813811 7.17321105,5.58724496 C7.17053693,5.59618768 7.16752355,5.60494665 7.16470973,5.61382812 C7.15814664,5.63493567 7.15121409,5.65592109 7.14391542,5.67677428 C7.14185994,5.68247067 7.13966476,5.68802415 7.13758932,5.69372054 C7.12885618,5.71778324 7.11964785,5.74166262 7.10997001,5.765344 C7.10943119,5.7666507 7.10883251,5.76791656 7.10831365,5.76922326 C7.0165724,5.99128117 6.88403534,6.19326563 6.71789151,6.36422066 C6.37205141,6.71972773 5.9020338,6.91963411 5.41178138,6.91973124 L5.41178138,6.91740368 C4.39417733,6.91740368 3.56940956,6.07360255 3.56940956,5.0324694 C3.56940956,5.0311627 3.56948938,5.02991725 3.56948938,5.02861055 C3.56948938,5.02730385 3.56940956,5.0260584 3.56940956,5.02475171 C3.56942952,3.98374106 4.39423719,3.13989909 5.41180133,3.13989909 L5.41180133,3.13989909 Z M1.30039519,0.00943528834 C0.591113666,0.0114361718 0.0166359464,0.599512147 0.0143809013,1.32515907 L0.0143809013,1.38396054 C0.0166359464,0.624053595 0.619311708,0.00916986503 1.36205969,0.00943520245 L1.30039519,0.00943528834 L1.30039519,0.00943528834 Z M10.5170238,1.71914935 L10.5170232,11.0231144 L10.5338269,11.0231144 C10.5896243,11.007679 10.6828195,10.9563094 10.8167452,10.615465 C10.8427082,10.5489663 10.8744784,10.4595799 10.9060291,10.3528389 L12.5215593,3.32830881 C12.6817473,2.59149369 12.2328138,1.85955828 11.5146118,1.68715563 L10.7924586,1.49645919 C10.7258683,1.48016205 10.6556498,1.49593525 10.6018574,1.53927401 C10.5481267,1.58276004 10.5168594,1.64905711 10.5170238,1.71914935 Z M13.7182898,4.10904128 L13.2751634,3.87495833 C13.2143701,3.84247659 13.1423616,3.84036888 13.0798526,3.86924152 C13.0173629,3.89831992 12.9713881,3.95514965 12.9551466,4.02339121 L11.30611,10.7869897 L11.3264652,10.7869897 C11.4393095,10.7389095 11.5344328,10.6556009 11.598268,10.5489459 C11.6401123,10.4920268 11.6780532,10.4322111 11.7118185,10.369928 L14.1554891,5.51066012 C14.4114068,4.99972025 14.2158166,4.37368874 13.7182898,4.10904128 L13.7182898,4.10904128 Z" id="形状" fill="#FF7E00" opacity="0.4"></path>
            <path d="M5.41180133,3.14757595 C4.39547448,3.14757595 3.57154487,3.98935578 3.56950934,5.0286718 C3.56950934,5.0299785 3.56942952,5.03122395 3.56942952,5.03253065 C3.56942952,6.0736638 4.39423719,6.91746493 5.41180133,6.91746493 C6.17386687,6.91746493 6.82788981,6.44419475 7.10831365,5.76928452 C7.10885246,5.76797782 7.10945115,5.76671195 7.10997001,5.76540525 C7.11972857,5.74180299 7.12874875,5.71783323 7.13758932,5.69378179 C7.13966476,5.6880854 7.14185994,5.68253193 7.14391542,5.67683553 C7.15122905,5.65598768 7.15816169,5.63500197 7.16470973,5.61388937 C7.1675435,5.6050079 7.17051697,5.59624893 7.17321105,5.58730621 C7.17893847,5.56825698 7.18404724,5.54898317 7.18919593,5.52970935 C7.19210952,5.51878616 7.19520273,5.50796506 7.19795668,5.49693978 C7.20252664,5.4784214 7.20653782,5.45965801 7.21060888,5.44091504 C7.21314331,5.42923642 7.2158773,5.41761904 7.21819221,5.40587917 C7.22194397,5.38670744 7.225117,5.3672907 7.22832994,5.3479148 C7.23020582,5.33656285 7.23232117,5.32529256 7.23397753,5.31385894 C7.23701086,5.29311509 7.23938565,5.27216707 7.24176043,5.25121904 C7.24291789,5.24105129 7.24431482,5.23102645 7.24529267,5.22079745 C7.24737149,5.19830328 7.24905473,5.17577269 7.25034157,5.15321659 C7.25088039,5.14415136 7.2517385,5.13518822 7.25215758,5.12612299 C7.25323522,5.10419494 7.25349465,5.08208314 7.25381394,5.06001217 C7.25393368,5.05086528 7.2544725,5.04180005 7.2544725,5.03261232 C7.2544725,5.03148937 7.25439267,5.03040726 7.25439267,5.0292639 C7.25259662,3.98966204 6.42828784,3.14757595 5.41180133,3.14757595 L5.41180133,3.14757595 Z M4.21773931,6.8662761 C4.22111851,6.8686681 4.22449771,6.8707481 4.22787691,6.8730361 L4.22787691,6.8662761 L4.21773931,6.8662761 Z" id="形状" fill="#FFFFFF" opacity="0.4"></path>
            <path d="M4.20752744,7.9742989 C4.21279587,7.98679421 4.21904214,7.99871784 4.22572745,8.01037605 C4.23880056,8.03338466 4.25461354,8.05464481 4.27280401,8.0736693 C4.33064426,8.13243879 4.40892855,8.16530284 4.4904458,8.16503617 C4.53143573,8.16503617 4.57192676,8.15648137 4.60962393,8.14018847 C4.64568563,8.12442434 4.67852607,8.10185869 4.70643122,8.0736693 L5.41014497,7.35369836 L6.11355939,8.0736693 C6.20146137,8.1639177 6.33390885,8.19096917 6.44894246,8.14216893 C6.56411892,8.09343808 6.63900456,7.9782281 6.6383862,7.85071372 L6.63839,6.82820103 C6.27939739,7.08525 5.85195111,7.22339117 5.41377699,7.22396761 C4.97614101,7.2248859 4.54874174,7.08856497 4.18914783,6.83336658 C4.18731186,6.83208029 4.18539607,6.83085526 4.18356011,6.82952815 L4.18356011,7.8527146 C4.18349036,7.89447788 4.1916415,7.93582789 4.20752744,7.9742989 L4.20752744,7.9742989 Z" id="路径" fill="#FFFFFF" opacity="0.4"></path>
            <path d="M2.106484,0.192148613 C1.36513294,0.194149497 0.764672312,0.80850238 0.762716609,1.56693929 L0.762716609,2.067936 C0.779605635,2.09264936 0.796842898,2.1171117 0.814422996,2.14131534 C0.815460716,2.14274454 0.816498436,2.14419416 0.817556112,2.14560294 C0.825039669,2.15587279 0.832782655,2.16583637 0.840385949,2.17600412 C1.39967704,2.92298699 2.26862772,3.36456972 3.19325607,3.36456972 C4.83780256,3.36456972 6.17127257,2.00060015 6.17127257,0.318040933 L6.17127257,0.192128196 L2.106484,0.192128196 L2.106484,0.192148613 Z" id="路径" fill="#FD973F" opacity="0.4"></path>
            <path d="M1.72867414,2.7294934 L1.72867414,2.78827445 C1.73092919,2.02836751 2.33360495,1.41348378 3.07633298,1.41376952 L3.01468843,1.41376962 C2.30542686,1.4157705 1.73094914,2.00382606 1.72867414,2.7294934 L1.72867414,2.7294934 Z M2.47511402,11.6715231 C2.47397652,12.3988443 3.04847419,12.9897787 3.75943203,12.9929433 L10.4875286,12.9929433 C11.1967902,12.9909833 11.7715672,12.4029073 11.773503,11.6772195 L11.773503,2.9178827 C11.7704497,2.19278704 11.1962114,1.60614027 10.4875286,1.6041598 L7.87247458,1.6041598 L7.87247458,1.7297867 C7.8582658,3.04693968 7.01839123,4.20536952 5.79072873,4.60158528 C4.56302632,4.99810729 3.22538547,4.54219171 2.47509406,3.47227033 L2.47509406,11.6715231 L2.47511402,11.6715231 Z M8.35461519,9.26646125 C8.35501933,9.39389404 8.28021301,9.50897799 8.16519141,9.55787563 C8.04992468,9.60667269 7.91739588,9.57957909 7.82976842,9.489376 L7.12607462,8.76946631 L6.42072446,9.48741595 C6.39286708,9.5156893 6.35999835,9.53827201 6.32387726,9.55395553 C6.28622608,9.57042574 6.24568726,9.5788667 6.20473904,9.5787624 C6.12515037,9.57760127 6.04911616,9.54484804 5.99268498,9.48741595 C5.9651083,9.45880753 5.94297303,9.42520104 5.92740841,9.38831097 C5.91152587,9.34974511 5.90336909,9.30831059 5.90342112,9.26646125 L5.90342087,8.23245369 C6.64116011,8.76027858 7.62246392,8.76027858 8.360163,8.23245369 L8.35461519,9.26646125 Z M7.12611453,4.54421301 C8.14369863,4.54421301 8.9687857,5.38805497 8.9687857,6.42918812 C8.9713458,6.93093211 8.77822001,7.41300326 8.43220471,7.76857541 C8.08639108,8.12411537 7.61637107,8.32404053 7.12611453,8.32412682 L7.12611453,8.31438783 C6.10851048,8.31438783 5.28374271,7.47050503 5.28374271,6.42918812 C5.2837028,5.38805497 6.10853044,4.54421301 7.12611453,4.54421301 L7.12611453,4.54421301 Z" id="形状" fill="#FF7E00"></path>
            <path d="M13.228925,3.09146955 L12.5067718,2.90079352 C12.4401787,2.88447723 12.3699493,2.90026041 12.3161706,2.94362876 C12.2624017,2.98705654 12.2311225,3.05335616 12.231337,3.12344285 L12.2313359,12.4274079 L12.2481002,12.4274079 C12.3039375,12.4120133 12.3971327,12.3606029 12.5310385,12.0197381 C12.5570214,11.9532189 12.5887916,11.8638938 12.6203423,11.7571324 L14.2359124,4.73260231 C14.3960605,3.99584844 13.947087,3.26389261 13.228925,3.09146955 L13.228925,3.09146955 Z M13.0408383,12.1913445 C13.1536676,12.143245 13.2487701,12.059922 13.3125812,11.9532598 C13.3544615,11.8963808 13.3924042,11.836576 13.4261317,11.7742828 L15.8698023,6.91503529 C16.1256601,6.40405458 15.9300699,5.77802307 15.432603,5.51339602 L14.9894766,5.27929266 C14.9286795,5.24681492 14.8566669,5.24472215 14.7941658,5.27361669 C14.7316631,5.30267769 14.6856821,5.35951499 14.6694598,5.42776638 L13.0204232,12.1913445 L13.0408383,12.1913445 L13.0408383,12.1913445 Z" id="形状" fill="#FF7E00"></path>
            <path d="M7.88560573,1.72237526 L7.88560573,1.59650336 L3.82079719,1.59650336 C3.07944614,1.59850425 2.47898551,2.21281629 2.47702981,2.97131445 L2.47702981,3.47231117 C3.03143164,4.28473109 3.93909726,4.76890405 4.90758922,4.76890405 C6.55215567,4.76886321 7.88560573,3.40491406 7.88560573,1.72237526 L7.88560573,1.72237526 Z" id="路径" fill="#FF7E00"></path>
            <path d="M7.88560573,1.72237526 L7.88560573,1.59650336 L3.82079719,1.59650336 C3.07944614,1.59850425 2.47898551,2.21281629 2.47702981,2.97131445 L2.47702981,3.47231117 C3.03143164,4.28473109 3.93909726,4.76890405 4.90758922,4.76890405 C6.55215567,4.76886321 7.88560573,3.40491406 7.88560573,1.72237526 L7.88560573,1.72237526 Z" id="路径" fill="#FD973F"></path>
        </g>
    </g>
</svg>