<?xml version="1.0" encoding="UTF-8"?>
<svg width="16px" height="16px" viewBox="0 0 16 16" version="1.1" xmlns="http://www.w3.org/2000/svg" xmlns:xlink="http://www.w3.org/1999/xlink">
    <!-- Generator: Sketch 54.1 (76490) - https://sketchapp.com -->
    <title>ico-notice</title>
    <desc>Created with Sketch.</desc>
    <g id="ico-notice" stroke="none" stroke-width="1" fill="none" fill-rule="evenodd">
        <g id="notice" transform="translate(0.000000, 1.000000)" fill-rule="nonzero">
            <path d="M12.1598252,2.4470951 C12.1816474,2.44614946 12.203507,2.44689118 12.2252233,2.44931412 C12.3421828,2.46681842 12.4477667,2.53157066 12.5190291,2.62949856 C12.5902093,2.72723004 12.6211026,2.85033575 12.6049126,2.97173199 C12.588792,3.09322786 12.5266618,3.20301423 12.4323107,3.27672622 L9.58724272,5.51057349 L12.4303689,8.46435159 C12.5957864,8.64631124 12.5923107,8.93191931 12.4225631,9.10960231 C12.3373398,9.19868588 12.2254951,9.24423631 12.1131262,9.24613256 C12.0008738,9.2484121 11.8878447,9.2071585 11.7996311,9.12162536 L11.0893398,8.38180403 L8.87229126,6.0784611 L7.61034951,7.06778098 C7.37621359,7.23795965 7.08862136,7.29055043 6.82133981,7.22577522 C6.69636366,7.19652817 6.57809477,7.14218572 6.47318447,7.06580403 L5.21720388,6.07579827 L2.68693204,8.710683 C4.8323301,8.21810086 6.98563107,9.50967147 7.64615534,11.6878818 L10.6587184,11.6878818 C12.383534,11.6856427 13.782,10.2348069 13.7860583,8.44280692 L13.7860583,3.25520173 C13.7860583,2.70228242 13.6483689,2.15831988 13.3868932,1.67673199 C13.3859029,1.67757925 13.3848738,1.67840634 13.3839612,1.6792536 C13.3848932,1.68102882 13.3859612,1.68278386 13.3868932,1.68457925 C13.0224202,2.00915863 12.6074863,2.26700388 12.1598252,2.4470951 L12.1598252,2.4470951 Z" id="路径" fill="#FFBA00" opacity="0.4"></path>
            <path d="M1.12254369,9.43942939 C1.28883816,9.31465371 1.46360516,9.20254254 1.64547573,9.10397406 L1.63796117,9.10790778 C1.47365049,8.92598847 1.4787767,8.64173199 1.64926214,8.46630836 L4.4924466,5.51279251 L1.6492233,3.27872334 C1.50456692,3.16649173 1.43972468,2.9744375 1.48520388,2.79291931 C1.52533322,2.63265841 1.64500921,2.50700244 1.79883495,2.46361671 C1.81829387,2.45746017 1.83813226,2.45268168 1.85821359,2.44931412 C1.97492824,2.43345281 2.09291353,2.46658878 2.18603883,2.54138329 L7.02662136,6.32255331 L7.05112621,6.32255331 C7.05945631,6.32400576 7.06794175,6.32392507 7.0763301,6.32297695 L8.87666019,4.91028818 L11.8757864,2.55118732 C9.83250485,3.20261095 7.64867961,2.17274352 6.76914563,0.164005764 C6.74675981,0.113127177 6.7253061,0.0618114875 6.70479612,0.0100864553 L3.12739806,0.0100864553 C1.40256311,0.0120634006 0.00411650485,1.46318156 7.76699029e-05,3.25514121 L7.76699029e-05,8.44270605 C-0.000531067298,9.02093227 0.149093058,9.58860985 0.433165049,10.0858501 C0.433398058,10.0855274 0.433631068,10.0852651 0.43384466,10.0850231 C0.433631068,10.0846196 0.433417476,10.084317 0.433165049,10.0838732 C0.639667962,9.84360285 0.870833873,9.62750472 1.12254369,9.43942939 L1.12254369,9.43942939 Z" id="路径" fill="#FFBA00" opacity="0.4"></path>
            <path d="M2.30264078,8.81469452 L5.14015534,5.8664438 C5.17635136,5.83400286 5.22995932,5.83400286 5.26615534,5.8664438 L6.59724272,6.91131988 C6.86607767,7.10078386 7.21918447,7.10078386 7.48798058,6.91131988 L8.81906796,5.8664438 C8.85539885,5.83400934 8.90908659,5.83400934 8.94541748,5.8664438 L11.9353592,8.97694524 C12.0366602,9.05866571 12.1809903,9.04912392 12.2714951,8.95457349 C12.3620194,8.86000288 12.3702913,8.71001729 12.2911262,8.60536023 L9.37091262,5.56935735 C9.35084074,5.54883499 9.34050935,5.52015615 9.34267961,5.49098559 C9.34481039,5.46252404 9.35838734,5.43631303 9.38007767,5.41878674 L12.3156505,3.1164121 C12.3875824,3.05984074 12.4249692,2.96767524 12.4137087,2.87468012 C12.3983273,2.74469178 12.2928295,2.64652643 12.1667767,2.64491066 C12.1647573,2.64491066 12.1628155,2.64491066 12.1608155,2.64495101 C12.1535728,2.64501153 12.146466,2.64559654 12.1392427,2.64626225 C12.1355146,2.64668588 12.1316699,2.64692795 12.1278641,2.64751297 C12.1248544,2.64795677 12.1219612,2.64876369 12.1190291,2.64928818 C12.0803105,2.65659068 12.0437833,2.67323625 12.0123883,2.69788473 L7.18500971,6.48881844 C7.0983039,6.5414086 6.99105532,6.5414086 6.90434951,6.48881844 L2.07479612,2.70171758 C2.03085581,2.66733223 1.97732161,2.64876964 1.92231068,2.64884438 L1.88838835,2.64884438 C1.76009709,2.66786744 1.6678835,2.78301441 1.66992233,2.91454179 C1.67017476,2.92313545 1.67075728,2.93176945 1.67186408,2.9404438 C1.68126253,3.00903813 1.71651664,3.07093965 1.76986408,3.11251873 L4.70326214,5.41878674 C4.72511916,5.43620237 4.73881562,5.46245326 4.74093204,5.49098559 C4.7430142,5.520147 4.73268819,5.54879117 4.71267961,5.56935735 L1.79252427,8.60536023 C1.69423301,8.70808069 1.69423301,8.87402305 1.79252427,8.97694524 C1.80493204,8.98596254 1.81813592,8.99372911 1.8321165,9.00046686 L1.82341748,9.00464265 C1.82574757,9.00637752 1.82786408,9.00827378 1.83025243,9.00992795 C1.98371875,8.93486255 2.14147862,8.86966195 2.30264078,8.81469452 L2.30264078,8.81469452 Z" id="路径" fill="#FCFCFC" opacity="0.4"></path>
            <path d="M5.2172233,6.07579827 L6.48069903,7.06778098 C6.58351101,7.14251492 6.69912626,7.19614204 6.82132039,7.22577522 C7.08860194,7.29051009 7.37619417,7.23795965 7.6103301,7.06778098 L8.87225243,6.0784611 L8.87568932,6.07583862 L11.0893204,8.38180403 L11.7996311,9.12162536 C11.8844644,9.20406236 11.9969743,9.24874935 12.1131068,9.24613256 C12.2288295,9.24392683 12.3391685,9.19495091 12.420699,9.10960231 C12.5904078,8.93193948 12.5939029,8.64629107 12.4285243,8.46435159 L9.58537864,5.51057349 L12.4323107,3.2767464 C12.5266536,3.20302681 12.5887816,3.09324429 12.6049126,2.97175216 C12.6210983,2.85035619 12.5902053,2.72725219 12.5190291,2.62951873 C12.4477682,2.53158917 12.3421835,2.46683649 12.2252233,2.44933429 C12.202175,2.44737469 12.1790201,2.44715894 12.1559417,2.44868876 C12.1507184,2.45078674 12.1458058,2.4531268 12.1405825,2.45518444 C12.1346602,2.45552738 12.128932,2.4562536 12.1231262,2.45683862 C12.05619,2.48371089 11.9884823,2.50846106 11.9200971,2.53105476 C11.915068,2.53448415 11.9100388,2.53775216 11.9051262,2.54142363 C11.8961553,2.54430836 11.8869126,2.54670893 11.8778447,2.54955331 L11.8757864,2.55122767 L8.87664078,4.91030836 L7.08130097,6.32263401 C7.07963107,6.32283573 7.07794175,6.32281556 7.07631068,6.32303746 C7.06794175,6.32398559 7.05941748,6.32406628 7.0511068,6.32263401 L7.02660194,6.32263401 L2.18605825,2.54142363 C2.09224821,2.4666675 1.97346611,2.43419218 1.85638835,2.45129107 C1.83698182,2.45407293 1.81777452,2.45819054 1.7988932,2.46361671 C1.64505903,2.50698742 1.52537692,2.63264981 1.48526214,2.79291931 C1.43977607,2.97444215 1.50462845,3.16650367 1.64930097,3.27872334 L4.49248544,5.51279251 L1.64930097,8.46630836 C1.47881553,8.64171182 1.47370874,8.92598847 1.63798058,9.10790778 L1.64549515,9.10397406 L1.64986408,9.10177522 L1.64363107,9.09425072 L1.71423301,9.05753602 C1.60335922,8.93926225 1.58547573,8.76242651 1.66027184,8.6249683 C1.67693255,8.59086391 1.69867648,8.55970921 1.72469903,8.53265706 L4.64491262,5.4988732 L1.71333981,3.20424496 C1.62137864,3.13329683 1.57281553,3.02458501 1.57182524,2.91405764 C1.57172816,2.91034582 1.57182524,2.90665418 1.57182524,2.90294236 C1.57194175,2.8965879 1.5723301,2.89019308 1.57273786,2.88375793 C1.57314563,2.87623343 1.57295146,2.86878963 1.57384466,2.86122478 C1.58830634,2.73146992 1.66828693,2.6195807 1.7836699,2.56768876 C1.89909151,2.51586676 2.03235962,2.53197845 2.13324272,2.60995101 L6.19380583,5.80451297 L6.96091262,6.40657349 C6.98605979,6.42112145 7.0146863,6.42789682 7.04341748,6.42610086 C7.07175546,6.42792898 7.09999253,6.42114358 7.12467961,6.40657349 L7.7908932,5.88385303 L11.9520388,2.60997118 C12.0529589,2.53161273 12.1864662,2.51518453 12.3022136,2.56688184 C12.3955534,2.60841787 12.4650874,2.6894121 12.4966214,2.78712968 C12.4974175,2.78963112 12.4981942,2.79217291 12.4990097,2.79467435 C12.5011456,2.80207781 12.5035728,2.80931988 12.505301,2.81686455 C12.5412233,2.95714697 12.4945243,3.11223631 12.3756893,3.20430548 L9.44042718,5.49885303 L12.3530874,8.53487608 C12.4856699,8.6775389 12.483767,8.90426225 12.348835,9.04470605 C12.2139029,9.18488761 11.9954563,9.1869049 11.8580777,9.04916427 L9.99384466,7.10504035 L8.87431068,5.94348415 L7.54646602,6.98549568 C7.50869518,7.01365378 7.46882837,7.03864614 7.42724272,7.06023631 C7.1435534,7.20893084 6.79920388,7.18474352 6.53537864,6.98739193 L5.2052233,5.9435245 L2.51351456,8.73995389 L2.67732039,8.70106052 L2.66042718,8.71863112 L2.67512621,8.71512104 L2.67733981,8.7128415 C2.68056311,8.71205476 2.68372816,8.71142939 2.6868932,8.71072334 L5.2172233,6.07579827 L5.2172233,6.07579827 Z" id="路径" fill="#FFFFFF" opacity="0.4"></path>
            <path d="M1.72462136,9.04718732 L1.73594175,9.04718732 L1.82341748,9.00464265 L1.8321165,9.00046686 C1.81828265,8.99384376 1.80503449,8.98597307 1.79252427,8.97694524 C1.69423301,8.87396254 1.69423301,8.70808069 1.79252427,8.60536023 L4.71269903,5.56935735 C4.7327083,5.54878926 4.74304642,5.52015086 4.74099029,5.49098559 C4.73884024,5.46245406 4.72513407,5.4362116 4.70328155,5.41878674 L1.7698835,3.1164121 C1.71651218,3.0748464 1.68125238,3.01292763 1.6718835,2.944317 C1.6706615,2.93442791 1.67001308,2.92447142 1.66994175,2.91450144 C1.66790291,2.78295389 1.76015534,2.66782709 1.88840777,2.64880403 L1.9223301,2.64880403 C1.97733981,2.64880403 2.0308932,2.66728242 2.07481553,2.70169741 L6.90434951,6.48875793 C6.99103824,6.541387 7.09830157,6.541387 7.18499029,6.48875793 L12.0123301,2.69778386 C12.043749,2.67316506 12.0802755,2.65652288 12.1189903,2.64918732 C12.1219417,2.64862248 12.1248544,2.64789625 12.1278252,2.6474121 C12.1316505,2.64680692 12.1354757,2.64662536 12.1392039,2.64618156 C12.1483531,2.64523348 12.1575433,2.64477562 12.1667379,2.6448098 C12.242466,2.64537464 12.3171456,2.68089914 12.3662524,2.74863977 C12.4505049,2.8641902 12.428699,3.02900288 12.3175146,3.11633141 L9.38198058,5.41868588 C9.36019935,5.43615136 9.34657784,5.46240122 9.34450485,5.4909049 C9.34233357,5.52002324 9.35256911,5.54866506 9.37250485,5.56925648 L12.2910485,8.60523919 C12.3907184,8.70763689 12.3918641,8.87509222 12.2929515,8.97855908 C12.1941553,9.08236888 12.0330291,9.08321614 11.9333592,8.98075793 L8.94533981,5.86632277 C8.90901864,5.83392295 8.85536971,5.83392295 8.81904854,5.86632277 L7.48794175,6.91119885 C7.21918447,7.10066282 6.86603883,7.10066282 6.59724272,6.91119885 L5.26615534,5.86632277 C5.22992826,5.83392751 5.17634359,5.83392751 5.1401165,5.86632277 L2.30448544,8.81618732 L2.47285437,8.76363689 L2.48902913,8.74562248 L2.50856311,8.74100288 L5.20421359,5.94273775 L5.20514563,5.94340346 L6.53532039,6.98727089 C6.79916505,7.18462248 7.14349515,7.20876945 7.42716505,7.06007493 C7.46742956,7.03898011 7.50603982,7.01463748 7.54264078,6.98727089 L8.87370874,5.94273775 L8.87427184,5.94332277 L9.99376699,7.10489914 L11.8656117,9.04704611 C12.0055728,9.15563689 12.2011068,9.14026513 12.3239417,9.01123919 C12.4467961,8.88227378 12.4591456,8.6788098 12.3529903,8.53469452 L9.44034951,5.49871182 L12.3737476,3.19627666 C12.4747428,3.11813647 12.5278507,2.98988674 12.5130097,2.85997406 C12.5112838,2.84539236 12.5086964,2.83093471 12.5052621,2.816683 C12.5034951,2.80909798 12.5011262,2.80187608 12.498932,2.7944928 C12.4982136,2.79199135 12.4973204,2.78948991 12.4965825,2.78694813 C12.465068,2.68921037 12.3955534,2.60821614 12.3021553,2.56670029 C12.186408,2.51500297 12.0529006,2.53143117 11.9519806,2.60978963 L7.79083495,5.88369164 L7.12652427,6.4064121 C7.10132122,6.42126923 7.07246077,6.42807563 7.0435534,6.42597983 L7.04337864,6.42597983 C7.01463214,6.42775321 6.98599568,6.42096468 6.96083495,6.4064121 L6.19374757,5.80437176 L2.13318447,2.61765706 C1.97728155,2.4970634 1.75662136,2.53091354 1.64083495,2.69263977 C1.60111285,2.7482709 1.57747136,2.81450931 1.57267961,2.88359654 C1.57221359,2.89001153 1.5718835,2.89638617 1.57176699,2.90280115 C1.57170874,2.9064928 1.57176699,2.91018444 1.57176699,2.91389625 C1.57273786,3.02442363 1.62128155,3.13315562 1.71328155,3.20410375 L4.64479612,5.49869164 L1.72458252,8.53249568 C1.69855717,8.5595407 1.67681867,8.59069701 1.66017476,8.62480692 C1.5932233,8.7616196 1.61460194,8.93304899 1.72462136,9.04718732 L1.72462136,9.04718732 Z" id="路径" fill="#FFFFFF" opacity="0.4"></path>
            <path d="M7.6461165,11.6878818 C6.98559223,9.50967147 4.83227184,8.21810086 2.6868932,8.710683 C2.68368932,8.71142939 2.68054369,8.71201441 2.67730097,8.71280115 L2.67506796,8.71508069 L2.2856699,9.11960807 C2.11143689,9.30045821 1.82918447,9.30045821 1.65491262,9.11960807 L1.64357282,9.10593084 C1.46241946,9.20396952 1.28828744,9.31541646 1.12252427,9.43940922 C0.870802212,9.62749919 0.639629316,9.84361806 0.433126214,10.0839135 L0.433805825,10.0850634 C0.995281553,11.0771671 2.01972816,11.6867118 3.12735922,11.6878617 L7.6461165,11.6878818 L7.6461165,11.6878818 L7.6461165,11.6878818 Z" id="路径" fill="#FEC744" opacity="0.4"></path>
            <path d="M1.99974757,9.05259366 C2.05668916,9.04574263 2.10972553,9.01908146 2.15023301,8.97694524 L2.30458252,8.81630836 C2.14454568,8.87131248 1.98783034,8.93624476 1.83528155,9.01075504 C1.88386852,9.04387003 1.9419304,9.05864043 1.99974757,9.05259366 L1.99974757,9.05259366 Z" id="路径" fill="#FFFFFF" opacity="0.4"></path>
            <path d="M2.28568932,9.10790778 L2.66042718,8.71863112 L2.67732039,8.70106052 L2.51351456,8.73995389 L2.50862136,8.74114409 L2.48912621,8.74578386 L2.47293204,8.76375793 L2.47145631,8.7654121 L2.49664078,8.75756484 L2.21815534,9.04722767 C2.08615534,9.18293084 1.87500971,9.18736888 1.73792233,9.05699135 L1.74248544,9.05479251 C1.73974757,9.0521902 1.73685437,9.04987032 1.73415534,9.04722767 L1.71423301,9.05751585 L1.64363107,9.09423055 L1.64986408,9.10179539 L1.65495146,9.10794813 C1.82916505,9.28871758 2.11145631,9.28871758 2.28568932,9.10790778 Z" id="路径" fill="#FFFFFF" opacity="0.4"></path>
            <path d="M2.15398058,8.97694524 C2.11248134,9.01985 2.05800636,9.04656896 1.99974757,9.05259366 C1.9419145,9.05869477 1.8838231,9.04392035 1.83524272,9.01075504 C1.83483495,9.01043228 1.83442718,9.01025072 1.83398058,9.0099683 L1.74240777,9.05481268 L1.73778641,9.05701153 C1.8748932,9.18742939 2.08605825,9.18293084 2.21805825,9.04724784 L2.49654369,8.75758501 L2.47135922,8.76543228 L2.30827184,8.81632853 L2.15398058,8.97694524 Z" id="路径" fill="#FFFFFF" opacity="0.4"></path>
            <path d="M6.76912621,0.164086455 C7.45763107,1.72851585 8.96462136,2.73917867 10.6303689,2.73702017 C11.0529515,2.73978386 11.473301,2.67617867 11.8778447,2.54957349 C11.8869126,2.54672911 11.8961359,2.54432853 11.905165,2.54142363 C11.9100388,2.53775216 11.9150874,2.53450432 11.9200777,2.53103458 C11.980812,2.48925449 12.0505692,2.46376903 12.1231068,2.45685879 C12.1289709,2.45629395 12.134699,2.45554755 12.1405631,2.45520461 C12.1457864,2.4531268 12.150699,2.45080692 12.1559417,2.44870893 C12.1572621,2.44816427 12.1585049,2.44759942 12.1598252,2.44707493 C12.6074728,2.26697998 13.0223933,2.00913487 13.3868544,1.68455908 C13.3859029,1.68278386 13.3848155,1.68102882 13.3838835,1.67923343 C12.8331262,0.651806916 11.790932,0.0131930836 10.6586796,0.0101268012 L6.7047767,0.0101268012 C6.72502017,0.0612298033 6.74621509,0.111920398 6.76834951,0.162170029 C6.76864123,0.162793942 6.7689005,0.163433671 6.76912621,0.164086455 L6.76912621,0.164086455 Z" id="路径" fill="#FEC744" opacity="0.4"></path>
            <path d="M15.5932816,3.96902017 C15.2235866,4.2984642 14.8020056,4.5592502 14.3470485,4.73992795 C14.3752174,4.73771125 14.4035251,4.73827187 14.4315922,4.74160231 C14.5485775,4.7591247 14.6541918,4.82386983 14.7255146,4.92178674 C14.7966823,5.01954043 14.8275801,5.1426503 14.8114175,5.26406052 C14.7952318,5.38554218 14.7330898,5.495305 14.6387573,5.56903458 L11.7936893,7.80282133 L14.6368155,10.7565793 C14.8022718,10.9384986 14.7987573,11.2241873 14.6291262,11.4017896 C14.459068,11.5792911 14.1841359,11.5845764 14.0079806,11.4138934 L11.0745825,8.36637176 L9.8092233,9.35807205 C9.47013592,9.60482709 9.01873786,9.60482709 8.67961165,9.35807205 L7.42365049,8.36806628 L4.88374757,11.0051499 C7.03227184,10.5064553 9.19102913,11.7986715 9.85248544,13.9801095 L12.865165,13.9801095 C14.5899806,13.9779107 15.9884466,12.5271153 15.9925049,10.7350346 L15.9925049,5.54753026 C15.9925049,4.99459078 15.8547961,4.45056772 15.5932816,3.96902017 L15.5932816,3.96902017 Z" id="路径" fill="#FFBA00"></path>
            <path d="M6.70638835,7.80116715 L3.86133981,5.5690951 C3.76651206,5.49562481 3.70411405,5.38561686 3.68819417,5.26383862 C3.6555534,5.0125245 3.8231068,4.77995101 4.06471845,4.74162248 C4.18142146,4.72580064 4.2993827,4.75894104 4.39250485,4.83371182 L9.22368932,8.61879539 L9.24817476,8.61879539 C9.25815384,8.62049015 9.2683316,8.62049015 9.27831068,8.61879539 L14.094699,4.83966282 C11.9961942,5.51585879 9.74613592,4.41629395 8.91128155,2.30245533 L5.33382524,2.30245533 C3.60897087,2.30443228 2.21058252,3.75555043 2.20650485,5.54755043 L2.20650485,10.7350548 C2.2058943,11.3132839 2.35552572,11.8809637 2.63961165,12.3781988 C2.98296704,11.9771395 3.39376885,11.6444103 3.85190291,11.3963026 C3.68761165,11.2143833 3.69271845,10.9301268 3.86324272,10.7546628 L6.70638835,7.80116715 L6.70638835,7.80116715 Z" id="路径" fill="#FFBA00"></path>
            <path d="M14.8113786,5.26406052 C14.8275554,5.14265249 14.7966639,5.01953949 14.7254951,4.92178674 C14.6541706,4.82386197 14.5485471,4.75911547 14.4315534,4.74160231 C14.4040656,4.73910084 14.3764199,4.73910084 14.348932,4.74160231 C14.2714568,4.773225 14.1929287,4.8019894 14.1134951,4.8278415 L14.1021942,4.8278415 L9.28776699,8.61486167 C9.27778457,8.61659665 9.26759407,8.61659665 9.25761165,8.61486167 L9.23304854,8.61486167 L4.39246602,4.83367147 C4.29864619,4.75893701 4.17987031,4.72647066 4.06279612,4.74355908 C3.88374256,4.76851559 3.73703386,4.90356536 3.69163107,5.08522767 C3.64621837,5.26674299 3.71104776,5.45875917 3.85565049,5.5710317 L6.69883495,7.80508069 L3.85568932,10.758536 C3.68524272,10.9340202 3.68009709,11.2183372 3.84438835,11.4002161 L3.93487379,11.3531729 L3.92357282,11.3531729 C3.78699029,11.2110144 3.78699029,10.9810029 3.92357282,10.8388444 L6.85130097,7.79112104 L3.91978641,5.4887464 C3.81889567,5.41094871 3.76569473,5.28308374 3.78027184,5.15343228 C3.79474779,5.0236881 3.87472479,4.91181158 3.99009709,4.85991643 C4.1055241,4.80808658 4.23880173,4.82419853 4.33968932,4.90217867 L9.16547573,8.69876081 C9.19068962,8.71333006 9.21937101,8.72015145 9.24817476,8.71842939 C9.27707716,8.72046375 9.30591735,8.71362386 9.3311068,8.69876081 L14.1603883,4.91004611 C14.3166214,4.78888761 14.5374369,4.82215274 14.6538252,4.98424207 C14.7701553,5.14621037 14.7380971,5.37569741 14.5821748,5.49655331 L11.6468932,7.79112104 L14.5595534,10.8271441 C14.6920583,10.9698069 14.6901553,11.1964496 14.5552039,11.3369135 C14.4202718,11.4771354 14.2018447,11.4791124 14.0645243,11.3414524 L11.0839417,8.23321037 L9.75287379,9.27782421 C9.45198058,9.50279251 9.04642718,9.50279251 8.74545631,9.27782421 L7.41419417,8.23321037 L4.70304854,11.0498732 L4.89132039,11.0051095 L7.4236699,8.36800576 L8.68708738,9.36002882 C9.02623301,9.60648127 9.47765049,9.60648127 9.81679612,9.36002882 L11.0820971,8.36800576 L14.0061165,11.4138329 C14.1822718,11.5845159 14.4572039,11.5792305 14.6272039,11.4018501 C14.7968544,11.2241873 14.8003495,10.9384582 14.6349903,10.7565591 L11.791767,7.80282133 L14.6387573,5.56903458 C14.7330703,5.49529308 14.7951964,5.38553358 14.8113786,5.26406052 Z" id="路径" fill="#FFFFFF"></path>
            <path d="M14.7195534,5.15238329 C14.7047721,5.02247602 14.624347,4.91065524 14.5086214,4.85910951 C14.3928936,4.80742088 14.2594068,4.82386559 14.1585243,4.90223919 L9.33299029,8.69878098 C9.30779666,8.71363284 9.27895974,8.72047196 9.25005825,8.71844957 C9.22125432,8.72017386 9.19257234,8.71335233 9.16735922,8.69878098 L4.33968932,4.91004611 C4.18376699,4.78947262 3.96316505,4.82328242 3.84733981,4.98506916 C3.7315534,5.14734006 3.76384466,5.37626225 3.91978641,5.49655331 L6.85130097,7.79112104 L3.93112621,10.8248646 C3.79429126,10.9670231 3.79429126,11.1976398 3.93112621,11.3394755 L3.94242718,11.3394755 L4.03858252,11.292755 C4.02475773,11.2861169 4.01150544,11.2782611 3.99897087,11.2692738 C3.90067961,11.1662911 3.90067961,11.0003285 3.99897087,10.8976888 L6.91916505,7.86166571 C6.9391989,7.84109634 6.9495464,7.81243687 6.94747573,7.7832536 C6.9452892,7.75473412 6.93158166,7.72850989 6.90974757,7.71107493 L3.97634951,5.40872046 C3.92298585,5.36715649 3.88772741,5.30524736 3.87834951,5.23664553 C3.86054369,5.09307493 3.95699029,4.9615879 4.09487379,4.94113256 L4.12879612,4.94113256 C4.18376699,4.94113256 4.23735922,4.95963112 4.28124272,4.99404611 L9.11075728,8.78106628 C9.197446,8.83369535 9.30470934,8.83369535 9.39139806,8.78106628 L14.218835,4.9900317 C14.3300777,4.90280403 14.488699,4.92513545 14.5727573,5.04098847 C14.6571068,5.1565389 14.6352233,5.32135159 14.5239806,5.40865994 L11.5884466,7.71101441 C11.5666816,7.72846874 11.5530792,7.75470783 11.5510291,7.78319308 C11.5488827,7.81232962 11.5591212,7.84098207 11.5790485,7.86160519 L14.4975922,10.8976282 C14.5972816,10.9999856 14.5983301,11.1673602 14.4995146,11.2708271 C14.4006408,11.3747176 14.2395534,11.3755447 14.1399806,11.2731066 L11.1519029,8.15871182 C11.1155749,8.12624864 11.061862,8.12624864 11.025534,8.15871182 L9.69446602,9.20352738 C9.42572816,9.39301153 9.07254369,9.39301153 8.80376699,9.20352738 L7.47271845,8.15871182 C7.43650031,8.12625034 7.38285892,8.12625034 7.34664078,8.15871182 L4.51104854,11.1085764 L4.69928155,11.0497925 L7.41073786,8.23508646 L8.74182524,9.27965994 C9.04266019,9.50466859 9.44834951,9.50466859 9.7491068,9.27965994 L11.0803107,8.23508646 L14.0720194,11.3394352 C14.2121553,11.4479856 14.4076699,11.4325735 14.5305243,11.3035879 C14.6532816,11.1746225 14.6657087,10.9711585 14.5595728,10.8270836 L11.6468932,7.79106052 L14.5802718,5.48870605 C14.6812711,5.41055871 14.7343849,5.28230477 14.7195534,5.15238329 Z" id="路径" fill="#FFFFFF"></path>
            <path d="M9.85248544,13.9801095 C9.19102913,11.7986715 7.03231068,10.5065159 4.88374757,11.0051499 L4.49213592,11.4119568 C4.3178835,11.5927262 4.03561165,11.5927262 3.86133981,11.4119568 L3.85001942,11.3983199 C3.39285183,11.6453963 2.9827172,11.9767418 2.63961165,12.3762017 C3.2008932,13.3690519 4.22576699,13.9790807 5.33382524,13.9801499 L9.85248544,13.9801499 L9.85248544,13.9801095 L9.85248544,13.9801095 Z" id="路径" fill="#FFBA00"></path>
            <path d="M9.85248544,13.9801095 C9.19102913,11.7986715 7.03231068,10.5065159 4.88374757,11.0051499 L4.49213592,11.4119568 C4.3178835,11.5927262 4.03561165,11.5927262 3.86133981,11.4119568 L3.85001942,11.3983199 C3.39285183,11.6453963 2.9827172,11.9767418 2.63961165,12.3762017 C3.2008932,13.3690519 4.22576699,13.9790807 5.33382524,13.9801499 L9.85248544,13.9801499 L9.85248544,13.9801095 L9.85248544,13.9801095 Z" id="路径" fill="#FEC744"></path>
            <path d="M14.1116505,4.83367147 C14.1803301,4.78186744 14.262233,4.75223343 14.3470874,4.74753314 C14.8020572,4.56700785 15.223638,4.30628897 15.5932816,3.97684726 C15.0433592,2.9462536 13.9994175,2.30548127 12.8651845,2.30241499 L8.91126214,2.30241499 C9.56652427,3.95413256 11.1171262,5.0315072 12.8368932,5.02924784 C13.2689267,5.03198312 13.6988198,4.96602786 14.1116505,4.83367147 L14.1116505,4.83367147 Z" id="路径" fill="#FFBA00"></path>
            <path d="M14.1116505,4.83367147 C14.1803301,4.78186744 14.262233,4.75223343 14.3470874,4.74753314 C14.8020572,4.56700785 15.223638,4.30628897 15.5932816,3.97684726 C15.0433592,2.9462536 13.9994175,2.30548127 12.8651845,2.30241499 L8.91126214,2.30241499 C9.56652427,3.95413256 11.1171262,5.0315072 12.8368932,5.02924784 C13.2689267,5.03198312 13.6988198,4.96602786 14.1116505,4.83367147 L14.1116505,4.83367147 Z" id="路径" fill="#FEC744"></path>
        </g>
    </g>
</svg>