<?xml version="1.0" encoding="UTF-8"?>
<svg width="16px" height="16px" viewBox="0 0 16 16" version="1.1" xmlns="http://www.w3.org/2000/svg" xmlns:xlink="http://www.w3.org/1999/xlink">
    <!-- Generator: Sketch 54.1 (76490) - https://sketchapp.com -->
    <title>ico-keypoint</title>
    <desc>Created with Sketch.</desc>
    <g id="ico-keypoint" stroke="none" stroke-width="1" fill="none" fill-rule="evenodd">
        <g fill-rule="nonzero" id="路径">
            <path d="M13.642611,2.09018991 C13.4331311,1.92504813 13.1750367,1.83640639 12.9099308,1.83855304 L12.8375608,1.83855304 C12.8234548,1.83855304 12.6502619,1.84879304 12.3806268,1.84879304 C11.6599639,1.85165524 10.9407421,1.78312395 10.2331619,1.64417113 C9.164544,1.41508452 7.93267748,0.363859478 7.57249232,0.157234087 C7.19980416,-0.0517936787 6.74763713,-0.0517936787 6.37494896,0.157234087 C6.33065959,0.183724522 5.03864539,1.38438678 3.77663932,1.64633043 C3.06364892,1.7852335 2.33910712,1.85370044 1.61314088,1.85077426 C1.34346199,1.85077426 1.17026909,1.85077426 1.15419174,1.84060104 L1.08182178,1.84060104 C0.820428471,1.84049095 0.566335049,1.92822631 0.359107765,2.09014539 C0.148462436,2.25082219 0.0228949862,2.5015718 0.0190521497,2.76921322 L0.0190521497,5.09077704 C0.0190521497,13.6816028 6.51995174,14.7882351 6.79565416,14.8311318 C6.8590235,14.8400961 6.92289629,14.8448921 6.98687384,14.8454901 C7.05087658,14.8459576 7.11457266,14.8411047 7.17811542,14.8311318 C7.21219765,14.8311318 7.34103547,14.8045078 7.54033763,14.7554449 C7.53954909,14.7541315 7.53884817,14.7527958 7.53805964,14.7515047 C7.53280274,14.7527736 7.52726109,14.7542205 7.52209181,14.7554449 C6.56980466,13.1921085 6.59085416,11.2104237 7.57641309,9.66841322 L7.59012483,9.675648 C7.59065052,9.67491339 7.5910886,9.67402296 7.5916581,9.67328835 L7.58243662,9.66841322 L7.43169506,9.58869704 C7.24298748,9.4864751 7.01658215,9.4864751 6.82787457,9.58869704 L5.8215947,10.1327972 C5.60538284,10.2491325 5.3429541,10.2308341 5.14483474,10.0853148 C4.946644,9.93983043 4.84695334,9.69257749 4.8877067,9.44758539 L5.07695504,8.30208557 C5.1117125,8.09020956 5.04167285,7.87451707 4.88965613,7.72528417 L4.06848479,6.91723687 C3.89252839,6.74456686 3.82846166,6.48525261 3.90328676,6.24858713 C3.97810282,6.01186925 4.17872136,5.83888727 4.42071889,5.80243478 L5.55191581,5.63274017 C5.76099393,5.60142252 5.94152288,5.46755596 6.03467431,5.27476313 L6.53795662,4.231552 C6.64620544,4.00903995 6.86925863,3.86817403 7.11349938,3.86807652 C7.35779287,3.86802556 7.5809298,4.00893365 7.68908595,4.231552 L8.20848941,5.26855235 C8.3024578,5.46121623 8.48385568,5.59440255 8.69335067,5.62454817 L9.82465711,5.78816557 C10.0622806,5.82734246 10.2583701,5.99832893 10.332583,6.23106783 C10.4068455,6.46382592 10.3467483,6.71924629 10.1769131,6.89268313 L9.36159007,7.71088139 C9.24843041,7.82388536 9.18033888,7.97539342 9.1703923,8.13630887 C10.5632075,7.31922365 12.2710862,7.28667826 13.6928144,8.05035965 C13.8987466,7.0771585 13.9992843,6.08397901 13.9926328,5.08855096 L13.9926328,2.76696487 C13.9845448,2.49867989 13.8554606,2.24909265 13.642611,2.09018991 L13.642611,2.09018991 Z" fill="#1082FF" opacity="0.4"></path>
            <path d="M8.44594789,10.12672 C8.53784359,10.1755763 8.64004123,10.2010151 8.74375119,10.2008487 C8.87791702,10.1995246 9.00831555,10.1555858 9.11668432,10.0751861 C9.31390495,9.92821774 9.41195575,9.68022451 9.36962875,9.43543096 L9.16844287,8.29191235 C9.16274095,8.2422603 9.16262337,8.19210971 9.16809241,8.14243061 C8.5289726,8.51754828 7.98573494,9.04032859 7.58234901,9.66845774 L7.59159239,9.67335513 L8.44594789,10.12672 L8.44594789,10.12672 Z" fill="#FFFFFF" opacity="0.4"></path>
            <path d="M9.16844287,8.29191235 L9.36962875,9.43543096 C9.41198255,9.68022735 9.31392623,9.92823453 9.11668432,10.0751861 C9.00831691,10.1555885 8.87791751,10.1995276 8.74375119,10.2008487 C8.63798429,10.2020259 8.5335775,10.1765579 8.43985865,10.12672 L7.59010293,9.6757593 L7.57634738,9.66848 C6.59081035,11.2104904 6.56980466,13.1921976 7.522048,14.7555117 C7.52721728,14.7543096 7.53275893,14.7528626 7.53799393,14.751616 C8.77654109,14.4493357 12.5925017,13.0938268 13.6907992,8.05265252 C12.2692244,7.28894887 10.5609733,7.32133843 9.16839906,8.13857948 C9.16826764,8.13987061 9.16822383,8.14113948 9.1680705,8.14245287 C9.16264161,8.19212718 9.16276652,8.24226661 9.16844287,8.29191235 L9.16844287,8.29191235 Z" fill="#459CFC" opacity="0.4"></path>
            <path d="M15.6291272,3.24381496 C15.4196308,3.07865409 15.1615117,2.99000398 14.8963813,2.99215583 L14.8240332,2.99215583 C14.8099272,2.99215583 14.6366905,3.00246261 14.367143,3.00246261 C13.6464542,3.00530062 12.927207,2.93678462 12.2195905,2.79788522 C11.1509945,2.56875409 9.91914986,1.51748452 9.55887709,1.31088139 C9.18617289,1.1019169 8.73403793,1.1019169 8.36133373,1.31088139 C8.31700056,1.33737183 7.02509587,2.53801183 5.76304599,2.79995548 C5.05004417,2.93883199 4.32549835,3.00730606 3.59952565,3.00442157 C3.32986866,3.00442157 3.15669767,3.00442157 3.14062032,2.99429287 L3.06827226,2.99429287 C2.80687574,2.99416008 2.55277283,3.08188041 2.34553634,3.2437927 C2.1348866,3.40446082 2.00933044,3.65522019 2.00552453,3.92286052 L2.00552453,6.24446887 C2.00552453,14.8353169 8.50638032,15.9418602 8.78201703,15.9848014 C8.84527504,15.9937725 8.90927778,15.9985586 8.97328051,15.9991819 C9.03729569,15.9995767 9.10123942,15.9947679 9.16450019,15.9848014 C9.19867003,15.9848014 9.32746404,15.9582219 9.5267662,15.9091367 C8.57426002,14.3457558 8.59559427,12.3641155 9.58102178,10.8220383 L9.56882139,10.8220383 L9.41814554,10.7423221 C9.22940401,10.6401436 9.00300087,10.6401436 8.81425934,10.7423221 L7.80800137,11.286489 C7.59192339,11.4028509 7.32958491,11.3844702 7.13126332,11.2390734 C6.93307568,11.0935426 6.83337012,10.8462813 6.87406956,10.601255 L7.0633179,9.45579965 C7.09809093,9.24392243 7.02804894,9.02822272 6.87601899,8.87899826 L6.05486956,8.07095096 C5.87894724,7.89827915 5.81489194,7.63899407 5.88969343,7.40234574 C5.96445908,7.16560641 6.16509325,6.99261226 6.40710366,6.95621565 L7.53832248,6.78647652 C7.74738273,6.75518386 7.92789236,6.62131565 8.02099337,6.42852174 L8.52429758,5.38533287 C8.6325826,5.16281998 8.85564852,5.02195347 9.09990605,5.02183513 C9.34418816,5.02178743 9.56730738,5.16270905 9.67542691,5.38533287 L10.1948523,6.42235548 C10.2888407,6.61504043 10.4702751,6.74822953 10.6798012,6.7783513 L11.8110638,6.94194643 C12.0486974,6.9811224 12.2448004,7.15210598 12.3190335,7.3848487 C12.3932623,7.61762685 12.3331419,7.87304634 12.1632979,8.04648626 L11.347931,8.86468452 C11.2348288,8.97769302 11.1667458,9.12915025 11.1567333,9.29002296 C12.5495704,8.47298226 14.2574929,8.44045913 15.6791991,9.20416278 C15.8851317,8.23095344 15.985684,7.23776816 15.9790614,6.24233183 L15.9790614,3.92074574 C15.9710472,3.65241922 15.8419904,3.40276505 15.6291272,3.24381496 L15.6291272,3.24381496 Z" fill="#1082FF"></path>
            <path d="M11.1609826,9.44549287 C11.1551561,9.3945832 11.1551561,9.34315871 11.1609826,9.29224904 C10.519071,9.66754861 9.97352849,10.191727 9.56884329,10.8220383 L10.4324641,11.280345 C10.6491883,11.3955902 10.9115299,11.3755958 11.1089174,11.2287889 C11.3064146,11.0820311 11.404653,10.8339371 11.3622342,10.589056 L11.1609826,9.44549287 L11.1609826,9.44549287 Z" fill="#FFFFFF"></path>
            <path d="M11.1548495,9.29222678 C11.149045,9.34315263 11.149045,9.39458928 11.1548495,9.44551513 L11.3561011,10.5890337 C11.3984359,10.8338267 11.3003728,11.081821 11.1031348,11.2287666 C10.9056053,11.3755277 10.6431953,11.3955091 10.4263529,11.2803005 L9.56273215,10.822016 C8.57721703,12.3640932 8.55623324,14.3457336 9.50845467,15.9091144 C10.7302674,15.6145141 14.5742867,14.2687555 15.6773154,9.20623304 C14.255653,8.44259617 12.5474457,8.47496348 11.1548495,9.29222678 L11.1548495,9.29222678 Z" fill="#459CFC"></path>
        </g>
    </g>
</svg>