<?xml version="1.0" encoding="UTF-8"?>
<svg width="16px" height="16px" viewBox="0 0 16 16" version="1.1" xmlns="http://www.w3.org/2000/svg" xmlns:xlink="http://www.w3.org/1999/xlink">
    <!-- Generator: Sketch 54.1 (76490) - https://sketchapp.com -->
    <title>ico-meeting</title>
    <desc>Created with Sketch.</desc>
    <g id="ico-meeting" stroke="none" stroke-width="1" fill="none" fill-rule="evenodd">
        <g fill-rule="nonzero">
            <path d="M0.0033,8.87159656 L0.0033,13.0430504 C0.0033,13.6162952 0.47556,14.0810431 1.05822,14.0810431 L4.8628,14.0810431 C5.04938484,14.0815709 5.22850391,14.0089699 5.36058,13.8792817 C5.49262201,13.7497588 5.56678295,13.5738084 5.56666,13.3903469 L5.56666,12.2970529 C5.56666,11.5751046 6.16148,10.9897958 6.89512,10.9897958 C7.67162,10.9897958 8.30116,11.6093087 8.30116,12.3733333 L8.30116,13.3903469 C8.30116,13.7718081 8.61532,14.0810234 9.00304,14.0810234 L12.8174,14.0810234 C13.40004,14.0810234 13.87238,13.6162558 13.87238,13.0429914 L13.87238,8.87159656 C13.87238,8.2984305 13.40004,7.8337417 12.8174,7.8337417 L10.74634,7.8337417 C10.55246,7.8337417 10.3955,7.67903567 10.3955,7.48803936 L10.3955,5.56662239 C10.3962201,5.25379495 10.2537047,4.9572886 10.0075,4.75938007 L8.58794,3.63355474 C9.0141,4.97761378 8.52128,6.43908487 7.36324,7.2655941 C6.2053,8.09235916 4.6404,8.09956212 3.47432,7.28429028 L3.47432,7.4958524 C3.47432,7.68659287 3.31708,7.84133825 3.12322,7.84133825 L1.0521,7.84133825 C0.475,7.8444674 0.00738,8.30356704 0.0033,8.87159656 Z M6.82924,0.334464945 L6.82924,1.63367282 C6.89972207,1.66676205 6.96891121,1.70245448 7.03666,1.74067405 L7.0386,1.54621402 C6.97536816,1.51889576 6.93436612,1.45755133 6.93392,1.38959902 L6.93392,0.391557196 C6.93426,0.341175892 6.95782,0.294179582 6.99652,0.261904059 C6.9933,0.259503075 6.99114,0.255468635 6.98762,0.253402214 C6.97132,0.242735547 6.95378,0.233662977 6.93392,0.233092251 C6.87698,0.233072571 6.83028,0.278199262 6.82924,0.334464945 L6.82924,0.334464945 Z" id="形状" fill="#00CE7D" opacity="0.4"></path>
            <path d="M7.03856,0.334464945 L7.03856,1.5462337 C7.30832,1.65293973 8.00836,1.89892251 8.27594,1.68336531 C8.5048,1.50407872 9.0226,1.56327675 9.34636,1.62255351 C9.39944659,1.62865582 9.45245969,1.61057404 9.49032,1.57345141 C9.52824324,1.53620722 9.54662671,1.48385506 9.54016,1.43151784 C9.51686091,1.04890431 9.53641186,0.664929725 9.59846,0.286523985 C9.60991517,0.211232167 9.56966151,0.137497981 9.49954,0.105328413 C9.11184,-0.0720885609 8.3264,0.0138351784 8.03552,0.177908979 C7.81642,0.30199262 7.37992,0.258263223 7.12404,0.216068881 C7.07494743,0.208119607 7.02475243,0.221340617 6.98626,0.252359164 C6.98688,0.252595326 6.98704,0.253205412 6.98762,0.253441574 C6.99114,0.255507995 6.99334,0.259562116 6.99652,0.261943419 C7.02012,0.279773678 7.03666,0.304865929 7.03856,0.334464945 L7.03856,0.334464945 Z" id="路径" fill="#00CE7D" opacity="0.4"></path>
            <path d="M6.45104,6.58788684 C6.74975024,6.7578431 7.11796976,6.7578431 7.41668,6.58788684 C7.71548675,6.41823706 7.89960273,6.10459783 7.89966,5.76513653 C7.89966,5.24010824 7.46716,4.81485855 6.93386,4.81485855 C6.40064,4.81700369 5.96924,5.24248954 5.96848,5.76726199 C5.96848,5.77021402 5.96894,5.77312669 5.96894,5.7760984 C5.96924,5.82888069 5.97602,5.87983272 5.9847,5.93027306 C5.98822,5.95028782 5.99204,5.97000738 5.99686,5.98974662 C6.00558,6.02552522 6.0172,6.06016236 6.02994,6.09462239 C6.04388352,6.13159776 6.06016879,6.16767671 6.0787,6.20264699 C6.088,6.22024108 6.0972,6.23789422 6.10748,6.25470111 C6.1254,6.2840246 6.1441,6.31256089 6.16532,6.3397786 C6.16792,6.34377368 6.17142,6.34725707 6.1745,6.35097663 C6.24934,6.44489053 6.3423,6.52626814 6.45104,6.58788684 L6.45104,6.58788684 Z M7.031,1.74069373 L7.031,1.74895941 C7.03148,1.74947109 7.03232,1.7497663 7.03286,1.75002214 L7.03286,2.41220172 L8.58234,3.63569988 C8.3304158,2.83211739 7.77527744,2.15400002 7.031,1.74069373 L7.031,1.74069373 Z" id="形状" fill="#FFFFFF" opacity="0.4"></path>
            <path d="M7.031,1.74895941 C6.96374,1.71164576 6.89466,1.67561132 6.82548,1.64329643 L6.82548,2.39134071 L3.8621,4.76148585 C3.61699776,4.95852838 3.47470357,5.25341107 3.47444,5.56485117 L3.47444,7.28210578 C4.49298,7.98960886 5.82774,8.07815006 6.93386,7.51206888 C8.04006,6.94649938 8.73276,5.820123 8.72952,4.59345633 C8.72915855,4.27013227 8.68018842,3.94863959 8.5842,3.63941943 L7.0328,2.41432718 L7.0328,1.75004182 C7.03232,1.74974662 7.0315,1.74949077 7.031,1.74895941 L7.031,1.74895941 Z M7.9075,5.76887577 C7.9075,6.29606888 7.47312,6.72287331 6.93774,6.72287331 C6.62618,6.72287331 6.3518,6.57562608 6.17454,6.35097663 C6.17146,6.34725707 6.16796,6.34381304 6.16538,6.3397786 C6.14448339,6.31251224 6.12516606,6.28410798 6.10752,6.25470111 C6.09726,6.23789422 6.08804,6.22024108 6.07874,6.20262731 C6.06038,6.16767528 6.0438,6.13191636 6.03,6.09464207 C6.01724,6.06018204 6.00564,6.02552522 5.99692,5.98974662 C5.99220636,5.97005838 5.98815084,5.95022318 5.98476,5.93027306 C5.97602,5.87981304 5.96926,5.82886101 5.96902,5.7760984 C5.96902,5.77367774 5.96818,5.77125707 5.96818,5.76887577 C5.96818,5.7683444 5.96852,5.76781304 5.96852,5.76730135 C5.96928,5.24250923 6.40068,4.81698401 6.9339,4.81487823 L6.93778,4.81487823 C7.47318,4.81483887 7.9075,5.24197786 7.9075,5.76887577 L7.9075,5.76887577 Z" id="形状" fill="#0FD788" opacity="0.4"></path>
            <path d="M8.11034,2.17046986 C8.09211678,2.15461784 8.06872071,2.14572188 8.0444,2.14539729 C7.9874,2.14539729 7.94082,2.19050431 7.9397,2.24675031 L7.9397,3.54597786 C8.0102054,3.57906105 8.07940859,3.61476697 8.14716,3.65301845 L8.14906,3.45846002 C8.08588513,3.43111676 8.04491958,3.36981489 8.04444,3.30190406 L8.04444,2.30386224 C8.04469974,2.25186209 8.06894224,2.2027913 8.11034,2.17046986 L8.11034,2.17046986 Z M4.58494,9.40805904 C4.58494,9.59876015 4.42766,9.75358426 4.23384,9.75358426 L2.1627,9.75358426 C1.5855,9.75677245 1.11782,10.2158524 1.11374,10.7839016 L1.11374,14.9552964 C1.11374,15.5285609 1.58608,15.9933875 2.16874,15.9933875 L5.97338,15.9933875 C6.15994583,15.9939083 6.339049,15.9213321 6.47114,15.7916851 C6.60311944,15.6621113 6.67724397,15.4861648 6.67714,15.3027109 L6.67714,14.2093973 C6.67714,13.4874293 7.272,12.9021009 8.00566,12.9021009 C8.78216,12.9021009 9.41168,13.5215744 9.41168,14.2857171 L9.41168,15.3027109 C9.41168,15.6841132 9.72584,15.9933284 10.11356,15.9933284 L13.92796,15.9933284 C14.51056,15.9933284 14.9829,15.5285412 14.9829,14.9552964 L14.9829,10.7838819 C14.9829,10.2107946 14.51056,9.74606642 13.92796,9.74606642 L11.85692,9.74606642 C11.66302,9.74606642 11.50606,9.59132103 11.50606,9.40036408 L11.50606,7.47896679 C11.5067739,7.16613952 11.3642688,6.8696322 11.11808,6.6717048 L9.6985,5.54585978 C10.12474,6.88987946 9.63182,8.35137023 8.47384,9.17785978 C7.31598,10.0045855 5.75104,10.0118278 4.58494,9.19651661 L4.58494,9.40805904 Z" id="形状" fill="#00CE7D"></path>
            <path d="M10.61002,2.01757442 C10.22224,1.8401968 9.43684,1.9260615 9.146,2.09017466 C8.9269,2.21423862 8.49036,2.17050923 8.23448,2.12831488 C8.18537932,2.12039126 8.13518623,2.13361701 8.09668,2.16462485 C8.1272805,2.18138981 8.14703046,2.21240128 8.14902,2.24680935 L8.14902,3.45849938 C8.4188,3.56522509 9.1188,3.81118819 9.38642,3.59565068 C9.61522,3.41638376 10.13316,3.47560148 10.45682,3.53479951 C10.5098968,3.54093542 10.562913,3.52286458 10.60076,3.48573678 C10.6387738,3.44854674 10.6571856,3.39615603 10.65064,3.3438032 C10.6273467,2.96116725 10.6469246,2.57717086 10.70902,2.19875031 C10.7203979,2.12345532 10.6801266,2.04975636 10.61002,2.01757442 L10.61002,2.01757442 Z" id="路径" fill="#00CE7D"></path>
            <path d="M8.18318,2.24676999 C8.18292,2.21608856 8.16398,2.18755228 8.13168,2.16832472 C8.07616,2.20117097 8.0441,2.25100123 8.04442,2.30384256 L8.04442,3.30188438 C8.045,3.36991882 8.09946,3.43126199 8.18318,3.45844034 L8.18318,2.24676999 L8.18318,2.24676999 Z" id="路径" fill="#00CE7D"></path>
            <path d="M8.13168,2.16832472 C8.07616,2.20117097 8.0441,2.25100123 8.04442,2.30384256 L8.04442,3.30188438 C8.045,3.36991882 8.09946,3.43126199 8.18318,3.45844034 L8.18318,2.24676999 C8.18292,2.21608856 8.16398,2.18755228 8.13168,2.16832472 Z" id="路径" fill="#00CE7D"></path>
            <path d="M8.14148,3.65299877 L8.14148,4.32285363 L9.6928,5.5479262 C9.44087738,4.74436869 8.88574474,4.06627773 8.14148,3.65299877 L8.14148,3.65299877 Z" id="路径" fill="#FFFFFF"></path>
            <path d="M7.93596,3.55562116 L7.93596,4.30368512 L4.97264,6.6737909 C4.72752696,6.87078625 4.58521494,7.16563933 4.58494,7.47705781 L4.58494,9.19431242 C5.60354,9.90179582 6.9382,9.99037638 8.0444,9.42431488 C9.15058,8.85876507 9.84322,7.73238868 9.84004,6.50568266 C9.83967213,6.18236259 9.79068834,5.86087543 9.69468,5.55166544 L8.14342,4.32661255 L8.14342,3.66234686 C8.07559934,3.62431768 8.00640061,3.58871909 7.93596,3.55562116 L7.93596,3.55562116 Z M9.01796,7.68118081 C9.01796,8.20835424 8.5836,8.63515867 8.04822,8.63515867 C7.51276,8.63515867 7.0787,8.20833456 7.0787,7.68118081 C7.0787,7.15562116 7.51056,6.72926937 8.0444,6.72714391 L8.0482,6.72714391 C8.58362,6.72714391 9.01796,7.15426322 9.01796,7.68118081 L9.01796,7.68118081 Z" id="形状" fill="#1082FF"></path>
            <path d="M7.93596,3.55562116 L7.93596,4.30368512 L4.97264,6.6737909 C4.72752696,6.87078625 4.58521494,7.16563933 4.58494,7.47705781 L4.58494,9.19431242 C5.60354,9.90179582 6.9382,9.99037638 8.0444,9.42431488 C9.15058,8.85876507 9.84322,7.73238868 9.84004,6.50568266 C9.83967213,6.18236259 9.79068834,5.86087543 9.69468,5.55166544 L8.14342,4.32661255 L8.14342,3.66234686 C8.07559934,3.62431768 8.00640061,3.58871909 7.93596,3.55562116 L7.93596,3.55562116 Z M9.01796,7.68118081 C9.01796,8.20835424 8.5836,8.63515867 8.04822,8.63515867 C7.51276,8.63515867 7.0787,8.20833456 7.0787,7.68118081 C7.0787,7.15562116 7.51056,6.72926937 8.0444,6.72714391 L8.0482,6.72714391 C8.58362,6.72714391 9.01796,7.15426322 9.01796,7.68118081 L9.01796,7.68118081 Z" id="形状" fill="#0FD788"></path>
        </g>
    </g>
</svg>