<?xml version="1.0" encoding="UTF-8"?>
<svg width="16px" height="16px" viewBox="0 0 16 16" version="1.1" xmlns="http://www.w3.org/2000/svg" xmlns:xlink="http://www.w3.org/1999/xlink">
    <!-- Generator: Sketch 54.1 (76490) - https://sketchapp.com -->
    <title>ico-proposal</title>
    <desc>Created with Sketch.</desc>
    <g id="ico-proposal" stroke="none" stroke-width="1" fill="none" fill-rule="evenodd">
        <g id="icon" fill-rule="nonzero">
            <path d="M0.0171315136,12.581717 L0.0171315136,12.8448153 C0.0171315136,14.2131607 2.03174194,14.2131607 4.64545906,14.2131607 L6.87807444,14.2131607 L6.66032754,13.1080288 L5.40772208,10.6347626 C5.24444665,10.3716643 5.35350868,10.10847 5.6257469,9.95048441 L8.18491315,8.6351271 L8.72942928,8.10885372 C8.29365757,7.95079137 7.85812407,7.89835971 7.36809926,7.89835971 L4.64541935,7.89835971 C2.08627295,7.89835971 0.0171315136,10.0031463 0.0171315136,12.581717 L0.0171315136,12.581717 Z" id="路径" fill="#F6E0FF"></path>
            <path d="M12.4693598,12.4193957 L13.6129032,11.2615252 C13.8851811,10.9987146 13.7216476,10.4724029 13.3406253,10.4197218 L11.7615285,10.2089976 C11.5979752,10.2089976 11.4892308,10.1039424 11.3802283,9.94620624 L10.672397,8.47278657 C10.6179256,8.31474341 10.4001787,8.20936211 10.2369231,8.20936211 C10.0733896,8.20936211 9.85562283,8.31468585 9.80115136,8.47278657 L9.09337965,9.94620624 C9.03880893,10.1039616 8.8755335,10.2089976 8.7120397,10.2089976 L7.13320099,10.4197218 C6.69746898,10.4724029 6.53419355,10.9459952 6.86066501,11.2615252 L8.00426799,12.4193957 C8.11333002,12.5247194 8.16778164,12.6825516 8.16778164,12.8402686 L7.89552357,14.4717122 C7.84099256,14.8926043 8.22197519,15.1557602 8.60331514,14.998024 L10.0188586,14.2610264 C10.1824119,14.2086331 10.3456476,14.2086331 10.45467,14.2610264 L11.8702928,14.998024 C12.2515136,15.2084412 12.6324963,14.8926619 12.5783226,14.4717122 L12.3060447,12.8402686 C12.2515533,12.6825516 12.3061241,12.524777 12.4693598,12.4193957 L12.4693598,12.4193957 Z" id="路径" fill="#D777FF" opacity="0.4"></path>
            <path d="M9.27402481,3.68861391 C9.27402481,1.63625899 7.69490819,0.00479616307 5.73451117,0.00479616307 C3.77437221,0.00479616307 2.19527543,1.63623981 2.19527543,3.68861391 C2.19527543,5.74096882 3.77437221,7.37214388 5.73451117,7.37214388 C7.69490819,7.37210552 9.27402481,5.74096882 9.27402481,3.68861391 Z" id="路径" fill="#F6E0FF"></path>
            <path d="M11.1143623,4.8742446 C11.1143623,2.8218705 9.53524566,1.19042686 7.57480893,1.19042686 C5.61470968,1.19042686 4.0356129,2.8218705 4.0356129,4.8742446 C4.0356129,6.92659952 5.61470968,8.55779376 7.57480893,8.55779376 C9.53524566,8.55779376 11.1143623,6.92661871 11.1143623,4.8742446 Z M1.85742928,13.7673861 L1.85742928,14.0304844 C1.85742928,15.3988489 3.8720397,15.3988489 6.48571712,15.3988489 L8.71839206,15.3988489 L8.50060546,14.2936978 L7.24801985,11.8204125 C7.08478412,11.5573141 7.1938263,11.2941775 7.46612407,11.1361343 L10.0252308,9.82075779 L10.5698263,9.29454197 C10.1340546,9.1364988 9.69850124,9.08402878 9.20849628,9.08402878 L6.48579653,9.08402878 C3.92655087,9.08402878 1.85742928,11.1887962 1.85742928,13.7673861 L1.85742928,13.7673861 Z" id="形状" fill="#E198FF"></path>
            <path d="M14.7122779,13.3465132 L15.8558213,12.1886427 C16.1280993,11.9258321 15.9645658,11.3995204 15.5835434,11.3468393 L14.0044467,11.1361151 C13.8408933,11.1361151 13.7321489,11.03106 13.6231464,10.8733237 L12.9153151,9.39990408 C12.8608437,9.24186091 12.6430968,9.13647962 12.4798412,9.13647962 C12.3163077,9.13647962 12.0985409,9.24180336 12.0440695,9.39990408 L11.3362978,10.8733237 C11.281727,11.0310791 11.1184516,11.1361151 10.9549578,11.1361151 L9.37611911,11.3468393 C8.9403871,11.3995204 8.77711166,11.8731127 9.10358313,12.1886427 L10.2471861,13.3465132 C10.3562481,13.4518369 10.4106998,13.6096691 10.4106998,13.7673861 L10.1384417,15.3988297 C10.0839107,15.8197218 10.4648933,16.0828777 10.8462333,15.9251415 L12.2617767,15.1881439 C12.42533,15.1357506 12.5885658,15.1357506 12.6975881,15.1881439 L14.1132109,15.9251415 C14.4944318,16.1355588 14.8754144,15.8197794 14.8212407,15.3988297 L14.5489628,13.7673861 C14.4944715,13.6096499 14.5490422,13.4518753 14.7122779,13.3465132 L14.7122779,13.3465132 Z" id="路径" fill="#D777FF"></path>
        </g>
    </g>
</svg>