<?xml version="1.0" encoding="UTF-8"?>
<svg width="16px" height="16px" viewBox="0 0 16 16" version="1.1" xmlns="http://www.w3.org/2000/svg" xmlns:xlink="http://www.w3.org/1999/xlink">
    <!-- Generator: Sketch 52.6 (67491) - http://www.bohemiancoding.com/sketch -->
    <title>info</title>
    <desc>Created with Sketch.</desc>
    <g id="Page-1" stroke="none" stroke-width="1" fill="none" fill-rule="evenodd">
        <g id="home" transform="translate(-256.000000, -96.000000)" fill="#999999">
            <g id="1-1" transform="translate(23.000000, 80.000000)">
                <g id="summaryCard">
                    <g id="info" transform="translate(233.000000, 16.000000)">
                        <rect id="Rectangle" opacity="0" x="0" y="0" width="16" height="16"></rect>
                        <path d="M8,0 C3.58171875,0 0,3.58171875 0,8 C0,12.4182812 3.58171875,16 8,16 C12.4182812,16 16,12.4182812 16,8 C16,3.58171875 12.4182812,0 8,0 Z M8,14.5 C4.41015625,14.5 1.5,11.5898438 1.5,8 C1.5,4.41015625 4.41015625,1.5 8,1.5 C11.5898438,1.5 14.5,4.41015625 14.5,8 C14.5,11.5898438 11.5898438,14.5 8,14.5 Z M8.400625,5.3664375 C9.13615625,5.3664375 9.70165625,4.7800625 9.70165625,4.1465625 C9.70165625,3.639375 9.37615625,3.19534375 8.72515625,3.19534375 C7.86865625,3.19534375 7.441125,3.8925 7.441125,4.4001875 C7.424125,5.0020625 7.783625,5.3664375 8.400625,5.3664375 Z M8.33065625,11.3895937 C8.21115625,11.3895937 8.160125,11.2312188 8.27965625,10.771625 L8.9554375,8.17153125 C9.21146875,7.22078125 9.1264375,6.6028125 8.6129375,6.6028125 C7.9964375,6.6028125 6.55890625,7.22515625 5.30890625,8.28715625 L5.56540625,8.71515625 C5.959875,8.44553125 6.6264375,8.172 6.78090625,8.172 C6.90040625,8.172 6.88340625,8.330875 6.78090625,8.7268125 L6.191125,11.200125 C5.831625,12.5949063 6.208125,12.9116563 6.722125,12.9116563 C7.235625,12.9116563 8.562875,12.4355625 9.77790625,11.1986563 L9.48640625,10.8027188 C8.98990625,11.1986563 8.48515625,11.3895937 8.33065625,11.3895937 Z" id="Shape" fill-rule="nonzero"></path>
                    </g>
                </g>
            </g>
        </g>
    </g>
</svg>