<?xml version="1.0" encoding="UTF-8"?>
<svg width="14px" height="16px" viewBox="0 0 14 16" version="1.1" xmlns="http://www.w3.org/2000/svg" xmlns:xlink="http://www.w3.org/1999/xlink">
    <!-- Generator: Sketch 52.6 (67491) - http://www.bohemiancoding.com/sketch -->
    <title>notice</title>
    <desc>Created with Sketch.</desc>
    <g id="Page-1" stroke="none" stroke-width="1" fill="none" fill-rule="evenodd">
        <g id="home" transform="translate(-1369.000000, -24.000000)" fill="#FFFFFF">
            <g id="header">
                <g id="tools" transform="translate(1264.000000, 19.000000)">
                    <g id="notice" transform="translate(104.000000, 5.000000)">
                        <rect id="Rectangle" opacity="0" x="0" y="0" width="16" height="16"></rect>
                        <path d="M8,16 C6.52724066,16 5.33333333,14.8060927 5.33333333,13.3333333 L2.79333333,13.3333333 C2.05695366,13.3333333 1.46,12.7363797 1.46,12 C1.45837973,11.6799155 1.57196223,11.3699299 1.78,11.1266667 L3.33333333,9.33333333 L3.33333333,6.42666667 C3.33360636,4.64846149 4.34442288,3.02495056 5.94,2.24 L5.94,2.14666667 C5.91767117,0.9856542 6.83905304,0.0255086931 8,0 C9.14990345,0.0433217773 10.0552902,0.996049047 10.04,2.14666667 C10.0432776,2.17323262 10.0432776,2.20010072 10.04,2.22666667 C11.6476792,3.00806681 12.6677532,4.63914958 12.6666667,6.42666667 L12.6666667,9.33333333 L14.22,11.1266667 C14.7003222,11.6845288 14.637652,12.5261005 14.08,13.0066667 C13.8376913,13.2171143 13.5276054,13.3331006 13.2066667,13.3333333 L10.6666667,13.3333333 C10.6666667,14.8060927 9.47275934,16 8,16 Z M6.66666667,13.3333333 C6.66666667,14.069713 7.26362034,14.6666667 8,14.6666667 C8.73637966,14.6666667 9.33333333,14.069713 9.33333333,13.3333333 L6.66666667,13.3333333 Z M8,3.09333333 C7.11594503,3.09333333 6.26809866,3.4445228 5.64297739,4.06964406 C5.01785613,4.69476533 4.66666667,5.5426117 4.66666667,6.42666667 L4.66666667,9.58 C4.66667889,9.73889635 4.60993707,9.89257211 4.50666667,10.0133333 L2.79333333,12 L13.2066667,12 L11.4933333,10 C11.3900629,9.87923878 11.3333211,9.72556302 11.3333333,9.56666667 L11.3333333,6.42666667 C11.3333333,5.5426117 10.9821439,4.69476533 10.3570226,4.06964406 C9.73190134,3.4445228 8.88405497,3.09333333 8,3.09333333 Z M8,1.33333333 C7.70227926,1.34109955 7.43882349,1.52815316 7.33333333,1.80666667 C7.76459245,1.74670589 8.2020742,1.74670589 8.63333333,1.80666667 C8.53263996,1.53884579 8.28537367,1.35404676 8,1.33333333 Z" id="Shape" fill-rule="nonzero"></path>
                    </g>
                </g>
            </g>
        </g>
    </g>
</svg>