<?xml version="1.0" encoding="UTF-8"?>
<svg width="16px" height="16px" viewBox="0 0 16 16" version="1.1" xmlns="http://www.w3.org/2000/svg" xmlns:xlink="http://www.w3.org/1999/xlink">
    <!-- Generator: Sketch 52.6 (67491) - http://www.bohemiancoding.com/sketch -->
    <title>setting</title>
    <desc>Created with Sketch.</desc>
    <g id="Page-1" stroke="none" stroke-width="1" fill="none" fill-rule="evenodd">
        <g id="home" transform="translate(-1400.000000, -24.000000)" fill="#FFFFFF">
            <g id="header">
                <g id="tools" transform="translate(1264.000000, 19.000000)">
                    <g id="setting" transform="translate(136.000000, 5.000000)">
                        <rect id="Rectangle" opacity="0" x="0" y="0" width="16" height="16"></rect>
                        <path d="M13.8312025,13.6176273 C13.6006846,13.5322503 13.4384684,13.4810241 13.2847898,13.4212602 C12.8152165,13.2419686 12.3627185,13.0370639 11.8846075,12.8748476 C11.7480043,12.8321591 11.5516373,12.8492345 11.4235718,12.9175361 C11.0906016,13.0797523 10.7661691,13.2675817 10.458812,13.4810241 C10.3563597,13.5493257 10.2709827,13.7030042 10.2453696,13.8310697 C10.1429172,14.3945577 10.066078,14.9665835 9.99777637,15.5386092 C9.95508789,15.8630417 9.80140934,16.0081825 9.46843914,15.9996448 C8.48660395,15.9911071 7.50476875,15.9911071 6.52293356,15.9996448 C6.19850106,15.9996448 6.02774711,15.8715794 5.98505862,15.5471469 C5.90821934,14.9751212 5.81430467,14.4116331 5.74600309,13.8396074 C5.72039,13.6432404 5.65208842,13.5237126 5.46425908,13.429798 C5.14836428,13.2761194 4.86662027,13.062677 4.55072547,12.9089984 C4.43973541,12.8492345 4.26898145,12.8236215 4.14945369,12.8663099 C3.59450336,13.062677 3.05662842,13.2846571 2.5102158,13.4980995 C2.11748172,13.6517781 2.00649166,13.6176273 1.78451152,13.2419686 C1.29786277,12.413812 0.819751719,11.5856553 0.341640656,10.7574987 C0.119660531,10.3733023 0.128198219,10.2793877 0.478243812,10.0061813 C0.939279469,9.63906036 1.40885283,9.28901477 1.86135078,8.91335608 C1.94672775,8.8450545 2.00649164,8.69137595 2.00649164,8.58038587 C2.02356703,8.26449108 1.95526545,7.93152087 2.00649164,7.62416377 C2.06625552,7.29119356 1.92965236,7.12043962 1.69059684,6.94114798 C1.26371197,6.63379087 0.870977891,6.29228298 0.452630734,5.98492587 C0.205037516,5.79709653 0.145273625,5.6007295 0.307489875,5.32752317 C0.828289406,4.44814034 1.34055125,3.56021983 1.85281309,2.6722993 C1.99795395,2.42470608 2.1857833,2.37347989 2.45045191,2.47593227 C3.01393994,2.69791239 3.57742795,2.92843022 4.14945367,3.13333497 C4.26898144,3.17602345 4.45681078,3.15041036 4.57633855,3.09064648 C4.90077105,2.92843023 5.19105275,2.7149878 5.51548525,2.55277155 C5.6862392,2.46739458 5.74600308,2.3649422 5.76307847,2.19418827 C5.83991775,1.61362484 5.93383242,1.03306142 6.01067169,0.452498 C6.03628478,0.119527766 6.21557644,0 6.53147123,0 C7.51330642,0.00853770312 8.49514163,0.00853770312 9.47697681,0 C9.78433392,0 9.95508786,0.128065453 9.98923866,0.435422562 C10.0660779,1.00744828 10.1599926,1.57093631 10.2282942,2.14296203 C10.2539073,2.35640447 10.3307466,2.48446992 10.5356513,2.57838459 C10.8344707,2.71498775 11.1162147,2.8857417 11.389421,3.07357105 C11.5687127,3.2016365 11.7223912,3.2016365 11.9187583,3.11625953 C12.4480955,2.89427941 12.9859704,2.69791236 13.5238454,2.47593223 C13.8226648,2.35640447 14.0275695,2.41616836 14.1897858,2.70645006 C14.6764345,3.5687575 15.1886964,4.42252723 15.6838828,5.27629697 C15.8802498,5.61780486 15.8546367,5.72879492 15.5387419,5.97638816 C15.086244,6.32643375 14.633746,6.68501703 14.1727104,7.03506262 C14.0190318,7.15459039 13.9763433,7.26558045 13.9934187,7.4619475 C14.0275695,7.82053078 13.984881,8.18765178 14.0019564,8.54623506 C14.0104941,8.67430052 14.070258,8.82797908 14.1641727,8.90481834 C14.6166706,9.28047703 15.086244,9.63052262 15.5472796,9.98910591 C15.8631744,10.2366991 15.8802498,10.3476892 15.6838828,10.6891971 C15.1801587,11.5600422 14.6764345,12.4223497 14.1641727,13.2846571 C14.0787957,13.4383356 13.9336548,13.5237126 13.8312025,13.6176273 Z M7.97434208,10.8172625 C9.5196653,10.8258002 10.8003199,9.57075873 10.8088576,8.04251091 C10.8173953,6.47157459 9.57089148,5.19945769 8.01703056,5.19091998 C6.46316964,5.18238228 5.18251505,6.4459615 5.18251505,7.99982241 C5.17397736,9.53660794 6.43755656,10.8087248 7.97434208,10.8172625 Z" id="Shape" fill-rule="nonzero"></path>
                    </g>
                </g>
            </g>
        </g>
    </g>
</svg>