<?xml version="1.0" encoding="UTF-8"?>
<svg width="160px" height="100px" viewBox="0 0 160 100" version="1.1" xmlns="http://www.w3.org/2000/svg" xmlns:xlink="http://www.w3.org/1999/xlink">
    <!-- Generator: Sketch 54.1 (76490) - https://sketchapp.com -->
    <title>default-img</title>
    <desc>Created with Sketch.</desc>
    <g id="页面1" stroke="none" stroke-width="1" fill="none" fill-rule="evenodd">
        <g id="首页模板复制-2" transform="translate(-429.000000, -698.000000)">
            <g id="default-img" transform="translate(429.000000, 698.000000)">
                <rect id="矩形" fill="#F1F1F1" x="0" y="0" width="160" height="100" rx="6"></rect>
                <g id="image" transform="translate(64.000000, 34.000000)" fill="#DEDEDE" fill-rule="nonzero">
                    <g id="编组">
                        <rect id="矩形" opacity="0" x="0" y="0" width="32" height="32"></rect>
                        <path d="M5.99375,9 C5.99375,10.6568542 7.33689575,12 8.99375,12 C10.6506042,12 11.99375,10.6568542 11.99375,9 C11.99375,7.34314575 10.6506042,6 8.99375,6 C7.33689575,6 5.99375,7.34314575 5.99375,9 Z" id="路径"></path>
                        <path d="M29.909375,5.059375 C29.89375,4.996875 29.878125,4.93125 29.859375,4.86875 C29.840625,4.80625 29.821875,4.74375 29.8,4.684375 C29.790625,4.653125 29.778125,4.621875 29.76875,4.59375 C29.734375,4.503125 29.7,4.4125 29.659375,4.325 C29.60625,4.209375 29.546875,4.09375 29.484375,3.984375 C29.453125,3.928125 29.41875,3.875 29.384375,3.821875 C29.365625,3.79375 29.35,3.76875 29.33125,3.74375 C29.278125,3.665625 29.221875,3.5875 29.1625,3.5125 C29.121875,3.4625 29.08125,3.4125 29.040625,3.365625 C28.95625,3.26875 28.86875,3.178125 28.778125,3.090625 C28.065625,2.4125 27.10625,1.99375 26.05,1.99375 L5.965625,1.99375 C5.115625,1.99375 4.325,2.265625 3.678125,2.728125 C3.653125,2.746875 3.628125,2.765625 3.6,2.784375 C3.525,2.840625 3.45,2.9 3.378125,2.9625 C3.353125,2.984375 3.33125,3.003125 3.30625,3.025 C3.271875,3.05625 3.2375,3.090625 3.203125,3.121875 L3.134375,3.190625 C3.05625,3.26875 2.98125,3.353125 2.9125,3.4375 C2.89375,3.4625 2.871875,3.4875 2.853125,3.5125 C2.80625,3.571875 2.759375,3.634375 2.715625,3.696875 C2.415625,4.125 2.2,4.6125 2.090625,5.140625 C2.0875,5.153125 2.084375,5.165625 2.084375,5.175 C2.071875,5.240625 2.059375,5.30625 2.05,5.371875 C2.01875,5.578125 2,5.7875 2,6 L2,26 C2,26.2875 2.03125,26.571875 2.090625,26.84375 C2.246875,27.5875 2.609375,28.25625 3.121875,28.784375 L3.20625,28.86875 C3.2625,28.925 3.321875,28.978125 3.38125,29.03125 C3.5,29.134375 3.628125,29.23125 3.759375,29.321875 C3.784375,29.340625 3.8125,29.35625 3.8375,29.375 C3.890625,29.409375 3.946875,29.44375 4,29.475 L4.084375,29.521875 C4.140625,29.553125 4.196875,29.58125 4.25625,29.609375 C4.4,29.678125 4.55,29.740625 4.703125,29.79375 C4.765625,29.815625 4.825,29.834375 4.8875,29.853125 C5.075,29.90625 5.26875,29.946875 5.465625,29.971875 C5.640625,29.996875 5.81875,30.009375 6,30.009375 L26,30.009375 C26.1125,30.009375 26.221875,30.003125 26.33125,29.996875 C26.575,29.98125 26.8125,29.940625 27.040625,29.88125 C27.134375,29.85625 27.228125,29.828125 27.321875,29.796875 C27.475,29.74375 27.625,29.684375 27.76875,29.6125 C27.825,29.584375 27.884375,29.55625 27.940625,29.525 L28.025,29.478125 C28.3,29.31875 28.55625,29.128125 28.7875,28.909375 C28.80625,28.89375 28.821875,28.875 28.8375,28.859375 C28.84375,28.853125 28.85,28.85 28.853125,28.84375 C28.921875,28.775 28.984375,28.70625 29.046875,28.634375 C29.05,28.63125 29.053125,28.625 29.059375,28.621875 C29.096875,28.578125 29.134375,28.534375 29.16875,28.490625 C29.209375,28.440625 29.246875,28.390625 29.284375,28.3375 C29.296875,28.31875 29.309375,28.3 29.321875,28.284375 C29.33125,28.271875 29.340625,28.25625 29.35,28.24375 C29.365625,28.221875 29.378125,28.203125 29.390625,28.18125 C29.403125,28.159375 29.415625,28.140625 29.428125,28.11875 C29.43125,28.1125 29.4375,28.10625 29.440625,28.1 L29.50625,27.9875 C29.53125,27.940625 29.55625,27.896875 29.58125,27.85 C29.621875,27.771875 29.659375,27.690625 29.69375,27.609375 C29.709375,27.571875 29.725,27.5375 29.7375,27.5 C29.765625,27.43125 29.790625,27.359375 29.815625,27.2875 C29.83125,27.2375 29.85,27.184375 29.8625,27.13125 C29.88125,27.06875 29.896875,27.003125 29.9125,26.940625 C29.91875,26.9125 29.925,26.884375 29.93125,26.853125 C29.94375,26.79375 29.95625,26.734375 29.965625,26.671875 C29.965625,26.665625 29.96875,26.659375 29.96875,26.65 C29.975,26.6 29.984375,26.553125 29.9875,26.503125 C29.99375,26.453125 29.996875,26.403125 30.003125,26.353125 C30.009375,26.253125 30.015625,26.153125 30.015625,26.05 L30.015625,5.95 C30.0125,5.64375 29.975,5.346875 29.909375,5.059375 L29.909375,5.059375 Z M23.50625,14.6 C22.715625,13.809375 21.425,13.809375 20.6375,14.6 L13.075,22.1625 L9.503125,18.59375 C8.7125,17.803125 7.421875,17.803125 6.634375,18.59375 L4,21.228125 L4,6 C4,5.46875 4.209375,4.96875 4.590625,4.590625 C4.96875,4.209375 5.46875,4 6,4 L26,4 C26.53125,4 27.03125,4.209375 27.409375,4.590625 C27.790625,4.96875 28,5.46875 28,6 L28,19.09375 L23.50625,14.6 Z" id="形状"></path>
                    </g>
                </g>
            </g>
        </g>
    </g>
</svg>