<?xml version="1.0" encoding="UTF-8"?>
<svg width="22px" height="24px" viewBox="0 0 22 24" version="1.1" xmlns="http://www.w3.org/2000/svg" xmlns:xlink="http://www.w3.org/1999/xlink">
    <!-- Generator: Sketch 54.1 (76490) - https://sketchapp.com -->
    <title>ico-word</title>
    <desc>Created with Sketch.</desc>
    <g id="页面1" stroke="none" stroke-width="1" fill="none" fill-rule="evenodd">
        <g id="ico-word" fill-rule="nonzero">
            <path d="M18.1203,7.146 C18.1173,7.139 18.1133,7.125 18.1103,7.125 L13.7983,7.125 C13.4523,7.125 13.1073,7.073 12.8433,6.809 C12.5793,6.545 12.4483,6.278 12.4483,5.932 L12.4483,0.789 C12.4483,0.804 12.5763,0.816 12.6213,0.837 C12.8053,0.922 12.9793,1.037 13.1023,1.181 L17.8713,6.755 C17.9673,6.867 18.0543,6.821 18.1103,7.125 L18.1283,7.125 C18.1253,7.125 18.1243,7.155 18.1203,7.146 M18.6173,7.382 C18.5553,7.213 18.4823,7.063 18.3723,6.934 L13.1693,0.821 C13.0343,0.663 12.8683,0.54 12.6673,0.447 C12.4663,0.354 12.2593,0.32 12.0513,0.32 L2.1533,0.32 C1.7733,0.32 1.3633,0.456 1.0743,0.745 C0.7843,1.034 0.6083,1.403 0.6083,1.783 L0.6083,21.93 C0.6083,22.309 0.7843,22.692 1.0743,22.981 C1.3633,23.271 1.7733,23.419 2.1533,23.419 L17.2643,23.419 C17.6423,23.419 17.9853,23.271 18.2743,22.981 C18.5633,22.692 18.6723,22.309 18.6723,21.93 L18.6723,7.895 C18.6723,7.725 18.6803,7.551 18.6173,7.382" id="base" fill-opacity="0.1" fill="#008BFF"></path>
            <g id="Group-6" fill="#008BFF">
                <polygon id="Path" fill-opacity="0.1" points="12.1743 0.5838 11.8433 6.1438 12.5653 7.2778 13.4193 7.6778 18.3433 7.6778 18.4813 7.2778 12.7633 0.5838"></polygon>
                <path d="M18.092,21.9302 C18.092,22.1942 18.082,22.5472 17.893,22.7372 C17.627,23.0022 17.46,23.1152 17.264,23.1152 L2.153,23.1152 C1.908,23.1152 1.533,22.9522 1.318,22.7372 C1.103,22.5222 0.913,22.1752 0.913,21.9302 L0.913,1.7832 C0.913,1.5852 1.053,1.3922 1.318,1.1272 C1.508,0.9372 1.889,0.9012 2.153,0.9012 L11.563,0.9012 L11.563,6.0112 C11.563,6.5122 11.821,7.0362 12.195,7.4092 C12.569,7.7842 13.125,8.0112 13.623,8.0112 L18.092,8.0112 L18.092,13.3492 L7.782,13.3492 C7.404,13.3492 6.986,13.4882 6.696,13.7782 C6.407,14.0672 6.224,14.4402 6.224,14.8192 L6.224,18.3742 C6.224,18.7532 6.407,19.1302 6.696,19.4192 C6.986,19.7082 7.404,19.8502 7.782,19.8502 L18.092,19.8502 L18.092,21.9302 Z M12.448,0.9362 L12.516,0.9502 C12.665,1.0172 12.773,1.0552 12.823,1.1142 L17.925,7.1252 L13.623,7.1252 C13.363,7.1252 13.027,6.9882 12.821,6.7832 C12.617,6.5792 12.448,6.2732 12.448,6.0112 L12.448,0.9362 Z M20.949,13.7782 C20.66,13.4882 20.309,13.3492 19.93,13.3492 L18.977,13.3492 L18.977,7.8942 C18.977,7.8562 19.013,7.8172 19.016,7.7782 C19.027,7.6352 19.079,7.4392 18.995,7.2112 C18.929,7.0332 18.853,6.8302 18.695,6.6452 L13.499,0.5332 C13.317,0.3192 13.106,0.2232 12.92,0.1402 L12.849,0.1082 C12.642,0.0122 12.445,0.0002 12.297,0.0002 C12.252,0.0002 12.207,0.0072 12.161,0.0082 C12.125,0.0092 12.088,0.0162 12.051,0.0162 L2.153,0.0162 C1.526,0.0162 1.003,0.1752 0.677,0.5002 C0.381,0.7982 0,1.2072 0,1.7832 L0,21.9302 C0,22.4142 0.29,22.9762 0.677,23.3642 C1.066,23.7512 1.668,24.0002 2.153,24.0002 L17.264,24.0002 C17.839,24.0002 18.222,23.6602 18.519,23.3642 C18.844,23.0382 18.977,22.5582 18.977,21.9302 L18.977,19.8502 L19.93,19.8502 C20.309,19.8502 20.66,19.7082 20.949,19.4192 C21.239,19.1302 21.356,18.7532 21.356,18.3742 L21.356,14.8192 C21.356,14.4402 21.239,14.0672 20.949,13.7782 Z" id="Fill-4" fill-opacity="0.7"></path>
            </g>
            <path d="M8,15.056 L8.528,15.056 L9.064,17.228 L9.08,17.228 L9.644,15.056 L10.128,15.056 L10.692,17.228 L10.708,17.228 L11.244,15.056 L11.772,15.056 L10.948,17.912 L10.452,17.912 L9.896,15.764 L9.88,15.764 L9.32,17.912 L8.82,17.912 L8,15.056 Z M13.34,15 C13.776,15 14.12,15.14 14.372,15.424 C14.612,15.692 14.732,16.048 14.732,16.488 C14.732,16.928 14.612,17.28 14.372,17.548 C14.12,17.828 13.776,17.968 13.34,17.968 C12.9,17.968 12.556,17.824 12.308,17.544 C12.068,17.272 11.952,16.92 11.952,16.488 C11.952,16.052 12.068,15.7 12.308,15.428 C12.556,15.14 12.9,15 13.34,15 Z M13.34,15.412 C13.044,15.412 12.816,15.512 12.652,15.712 C12.496,15.904 12.42,16.16 12.42,16.488 C12.42,16.812 12.496,17.068 12.652,17.26 C12.812,17.456 13.044,17.556 13.34,17.556 C13.636,17.556 13.864,17.46 14.024,17.272 C14.18,17.084 14.26,16.824 14.26,16.488 C14.26,16.152 14.18,15.888 14.024,15.696 C13.864,15.504 13.636,15.412 13.34,15.412 Z M15.172,15.056 L16.444,15.056 C16.736,15.056 16.968,15.12 17.136,15.252 C17.312,15.396 17.404,15.604 17.404,15.876 C17.404,16.024 17.364,16.156 17.284,16.272 C17.196,16.4 17.072,16.484 16.92,16.524 L16.92,16.532 C17.168,16.588 17.308,16.752 17.34,17.032 L17.388,17.492 C17.404,17.668 17.464,17.808 17.56,17.912 L17.052,17.912 C16.984,17.824 16.944,17.7 16.928,17.54 L16.892,17.188 C16.876,17.032 16.828,16.92 16.748,16.852 C16.664,16.78 16.54,16.748 16.38,16.748 L15.64,16.748 L15.64,17.912 L15.172,17.912 L15.172,15.056 Z M15.64,15.456 L15.64,16.348 L16.38,16.348 C16.564,16.348 16.704,16.308 16.8,16.232 C16.888,16.152 16.932,16.04 16.932,15.896 C16.932,15.74 16.888,15.628 16.8,15.56 C16.712,15.488 16.572,15.456 16.38,15.456 L15.64,15.456 Z M17.96,15.056 L19.004,15.056 C19.468,15.056 19.816,15.184 20.056,15.44 C20.284,15.68 20.4,16.028 20.4,16.484 C20.4,16.936 20.284,17.284 20.056,17.528 C19.816,17.784 19.468,17.912 19.004,17.912 L17.96,17.912 L17.96,15.056 Z M18.428,15.456 L18.428,17.512 L18.916,17.512 C19.272,17.512 19.532,17.428 19.696,17.264 C19.856,17.096 19.936,16.836 19.936,16.484 C19.936,16.124 19.856,15.86 19.696,15.7 C19.532,15.536 19.272,15.456 18.916,15.456 L18.428,15.456 Z" id="WORD" fill="#FFFFFF"></path>
            <polygon id="Path" fill-opacity="0.7" fill="#008BFF" points="8.52335 5.97755 7.921875 8.3838 7.1426 5 5.891525 5 4.985725 8.3838 4.305675 5 3 5 4.32615 10.444775 5.604525 10.444775 6.5 7.225125 7.29975 10.444775 8.4789 10.444775 10 5 7.99695 5 7.99695 5.97755"></polygon>
        </g>
    </g>
</svg>