<?xml version="1.0" encoding="UTF-8"?>
<svg width="22px" height="24px" viewBox="0 0 22 24" version="1.1" xmlns="http://www.w3.org/2000/svg" xmlns:xlink="http://www.w3.org/1999/xlink">
    <!-- Generator: Sketch 49 (51002) - http://www.bohemiancoding.com/sketch -->
    <title>ico-xls</title>
    <desc>Created with Sketch.</desc>
    <defs>
        <polygon id="path-1" points="0 0 21.356 0 21.356 23.9998 0 23.9998"></polygon>
    </defs>
    <g id="Page-1" stroke="none" stroke-width="1" fill="none" fill-rule="evenodd">
        <g id="Tablet" transform="translate(-207.000000, -53.000000)">
            <g id="ico-xls" transform="translate(207.000000, 53.000000)">
                <polygon id="Fill-1" fill="#FFFFFF" points="12.2409 0.6396 11.9089 6.1986 12.6319 7.3326 13.4869 7.7346 18.4099 7.7346 18.5479 7.3326 12.8299 0.6396"></polygon>
                <g id="Group-11">
                    <path d="M18.5623,7.3828 C18.5003,7.2138 18.4003,7.0628 18.2903,6.9338 L13.0733,0.8218 C12.9383,0.6638 12.7643,0.5408 12.5643,0.4478 C12.3633,0.3548 12.1493,0.3218 11.9403,0.3218 L2.0423,0.3218 C1.6633,0.3218 1.3083,0.4568 1.0193,0.7458 C0.7293,1.0348 0.6083,1.4038 0.6083,1.7838 L0.6083,21.9298 C0.6083,22.3098 0.7293,22.6928 1.0193,22.9818 C1.3083,23.2708 1.6633,23.4188 2.0423,23.4188 L17.1533,23.4188 C17.5323,23.4188 17.9293,23.2708 18.2183,22.9818 C18.5083,22.6928 18.6713,22.3098 18.6713,21.9298 L18.6713,7.8948 C18.6713,7.7248 18.6243,7.5518 18.5623,7.3828 M18.0093,7.1468 C18.0073,7.1388 18.0023,7.1258 18.0003,7.1258 L13.6883,7.1258 C13.3413,7.1258 13.0513,7.0738 12.7883,6.8088 C12.5243,6.5448 12.4483,6.2788 12.4483,5.9318 L12.4483,0.7898 C12.4483,0.8048 12.5213,0.8168 12.5663,0.8368 C12.7503,0.9218 12.8963,1.0378 13.0203,1.1818 L17.7753,6.7558 C17.8703,6.8678 17.9443,6.8218 18.0003,7.1258 L18.0173,7.1258 C18.0133,7.1258 18.0123,7.1558 18.0093,7.1468" id="Fill-2" fill="#E6FFF1"></path>
                    <g id="Group-6">
                        <mask id="mask-2" fill="white">
                            <use xlink:href="#path-1"></use>
                        </mask>
                        <g id="Clip-5"></g>
                        <path d="M20.8943,13.7778 C20.6053,13.4888 20.1983,13.3498 19.8203,13.3498 L18.9763,13.3498 L18.9763,7.8948 C18.9763,7.8558 18.9573,7.8178 18.9593,7.7788 C18.9713,7.6348 18.9863,7.4398 18.9023,7.2118 C18.8353,7.0338 18.7503,6.8298 18.5913,6.6458 L13.3933,0.5338 C13.2093,0.3198 12.9973,0.2238 12.8123,0.1408 L12.7393,0.1088 C12.5323,0.0128 12.3343,-0.0002 12.1873,-0.0002 C12.1423,-0.0002 12.0973,0.0068 12.0513,0.0088 C12.0153,0.0098 11.9773,0.0168 11.9413,0.0168 L2.0423,0.0168 C1.4153,0.0168 0.9473,0.1758 0.6223,0.5008 C0.3253,0.7978 -0.0007,1.2068 -0.0007,1.7838 L-0.0007,21.9298 C-0.0007,22.4138 0.2353,22.9768 0.6223,23.3648 C1.0103,23.7528 1.5583,23.9998 2.0423,23.9998 L17.1533,23.9998 C17.7293,23.9998 18.1653,23.6608 18.4633,23.3648 C18.7893,23.0388 18.9763,22.5578 18.9763,21.9298 L18.9763,19.8508 L19.8203,19.8508 C20.1983,19.8508 20.6053,19.7098 20.8943,19.4208 C21.1833,19.1308 21.3563,18.7548 21.3563,18.3748 L21.3563,14.8198 C21.3563,14.4408 21.1833,14.0678 20.8943,13.7778 Z M12.4483,0.9368 L12.4603,0.9508 C12.6103,1.0178 12.6793,1.0548 12.7303,1.1148 L17.8153,7.1258 L13.5133,7.1258 C13.2523,7.1258 12.9713,6.9888 12.7663,6.7838 C12.5623,6.5788 12.4483,6.2738 12.4483,6.0108 L12.4483,0.9368 Z M18.0903,21.9298 C18.0903,22.1938 18.0273,22.5488 17.8363,22.7378 C17.5723,23.0028 17.3503,23.1158 17.1533,23.1158 L2.0423,23.1158 C1.7983,23.1158 1.4773,22.9518 1.2633,22.7378 C1.0483,22.5218 0.9133,22.1748 0.9133,21.9298 L0.9133,1.7838 C0.9133,1.5858 0.9983,1.3928 1.2633,1.1278 C1.4533,0.9378 1.7793,0.9018 2.0423,0.9018 L11.5623,0.9018 L11.5623,6.0108 C11.5623,6.5118 11.7663,7.0368 12.1393,7.4098 C12.5133,7.7838 13.0153,8.0108 13.5133,8.0108 L18.0903,8.0108 L18.0903,13.3498 L7.6723,13.3498 C7.2923,13.3498 6.9303,13.4888 6.6413,13.7778 C6.3523,14.0678 6.2243,14.4408 6.2243,14.8198 L6.2243,18.3748 C6.2243,18.7548 6.3523,19.1308 6.6413,19.4198 C6.9303,19.7098 7.2923,19.8508 7.6723,19.8508 L18.0903,19.8508 L18.0903,21.9298 Z" id="Fill-4" fill="#35BA71" mask="url(#mask-2)"></path>
                    </g>
                    <path d="M10.6668,16.437 L9.6968,14.976 L10.4678,14.976 L11.0478,15.95 L11.6768,14.976 L12.4378,14.976 L11.4378,16.437 L12.4378,17.929 L11.6988,17.929 L11.0478,16.915 L10.4098,17.929 L9.6618,17.929 L10.6668,16.437 Z M12.7298,14.976 L13.3548,14.976 L13.3548,16.636 C13.3628,16.846 13.3728,16.985 13.3808,17.052 C13.4008,17.188 13.4668,17.281 13.5758,17.329 C13.6848,17.377 13.8768,17.402 14.1498,17.402 L14.7538,17.402 L14.7538,17.929 L14.0848,17.929 C13.7698,17.929 13.5408,17.911 13.3978,17.876 C13.0738,17.782 12.8678,17.575 12.7778,17.256 C12.7468,17.132 12.7298,16.925 12.7298,16.636 L12.7298,14.976 Z M15.1068,17.929 L15.1068,17.402 L16.4588,17.402 C16.6738,17.402 16.8158,17.381 16.8878,17.34 C16.9908,17.278 17.0428,17.185 17.0428,17.061 C17.0428,16.916 16.9818,16.812 16.8598,16.746 C16.7938,16.708 16.6848,16.689 16.5338,16.689 L15.9838,16.689 C15.6498,16.689 15.4108,16.628 15.2628,16.507 C15.1718,16.431 15.0998,16.335 15.0478,16.22 C14.9968,16.105 14.9708,15.981 14.9708,15.848 C14.9708,15.641 15.0308,15.452 15.1508,15.282 C15.2708,15.116 15.4598,15.019 15.7188,14.989 C15.8078,14.98 15.9378,14.976 16.1128,14.976 L17.5788,14.976 L17.5788,15.502 L16.2548,15.502 C16.0568,15.505 15.9258,15.514 15.8598,15.529 C15.7278,15.562 15.6618,15.661 15.6618,15.83 C15.6618,15.972 15.7178,16.067 15.8298,16.114 C15.9028,16.149 16.0258,16.166 16.2018,16.166 L16.6748,16.166 C16.9178,16.166 17.0978,16.187 17.2158,16.229 C17.4248,16.299 17.5688,16.423 17.6488,16.601 C17.7118,16.742 17.7428,16.894 17.7428,17.057 C17.7428,17.237 17.7008,17.398 17.6188,17.539 C17.5038,17.741 17.3308,17.861 17.1008,17.903 C16.9878,17.92 16.8178,17.929 16.5908,17.929 L15.1068,17.929 Z" id="Fill-7" fill="#FFFFFF"></path>
                    <path d="M3.334,8.513 L8.963,8.513 L8.963,2.884 L3.334,2.884 L3.334,8.513 Z M3.926,5.253 L4.815,5.253 L4.815,4.364 L3.926,4.364 L3.926,5.253 Z M3.926,6.143 L4.815,6.143 L4.815,5.55 L3.926,5.55 L3.926,6.143 Z M3.926,7.03 L4.815,7.03 L4.815,6.438 L3.926,6.438 L3.926,7.03 Z M7.482,7.92 L8.371,7.92 L8.371,7.327 L7.482,7.327 L7.482,7.92 Z M7.482,7.03 L8.371,7.03 L8.371,6.438 L7.482,6.438 L7.482,7.03 Z M7.482,6.142 L8.371,6.142 L8.371,5.549 L7.482,5.549 L7.482,6.142 Z M7.482,5.253 L8.371,5.253 L8.371,4.364 L7.482,4.364 L7.482,5.253 Z M6.297,7.92 L7.186,7.92 L7.186,7.327 L6.297,7.327 L6.297,7.92 Z M6.297,7.03 L7.186,7.03 L7.186,6.438 L6.297,6.438 L6.297,7.03 Z M6.297,6.142 L7.186,6.142 L7.186,5.549 L6.297,5.549 L6.297,6.142 Z M6.297,5.253 L7.186,5.253 L7.186,4.364 L6.297,4.364 L6.297,5.253 Z M5.111,7.92 L6,7.92 L6,7.327 L5.111,7.327 L5.111,7.92 Z M5.111,7.03 L6,7.03 L6,6.438 L5.111,6.438 L5.111,7.03 Z M5.111,6.142 L6,6.142 L6,5.549 L5.111,5.549 L5.111,6.142 Z M5.111,5.253 L6,5.253 L6,4.364 L5.111,4.364 L5.111,5.253 Z M3.926,7.919 L4.815,7.919 L4.815,7.327 L3.926,7.327 L3.926,7.919 Z" id="Fill-9" fill="#35BA71"></path>
                </g>
            </g>
        </g>
    </g>
</svg>