<?xml version="1.0" encoding="UTF-8"?>
<svg width="22px" height="24px" viewBox="0 0 22 24" version="1.1" xmlns="http://www.w3.org/2000/svg" xmlns:xlink="http://www.w3.org/1999/xlink">
    <!-- Generator: Sketch 49 (51002) - http://www.bohemiancoding.com/sketch -->
    <title>ico-pdf</title>
    <desc>Created with Sketch.</desc>
    <defs></defs>
    <g id="Page-1" stroke="none" stroke-width="1" fill="none" fill-rule="evenodd">
        <g id="Tablet" transform="translate(-180.000000, -53.000000)">
            <g id="ico-pdf" transform="translate(180.000000, 53.000000)">
                <path d="M18.1203,7.146 C18.1173,7.139 18.1133,7.125 18.1103,7.125 L13.7983,7.125 C13.4523,7.125 13.1073,7.073 12.8433,6.809 C12.5793,6.545 12.4483,6.278 12.4483,5.932 L12.4483,0.789 C12.4483,0.804 12.5763,0.816 12.6213,0.837 C12.8053,0.922 12.9793,1.037 13.1023,1.181 L17.8713,6.755 C17.9673,6.867 18.0543,6.821 18.1103,7.125 L18.1283,7.125 C18.1253,7.125 18.1243,7.155 18.1203,7.146 M18.6173,7.382 C18.5553,7.213 18.4823,7.063 18.3723,6.934 L13.1693,0.821 C13.0343,0.663 12.8683,0.54 12.6673,0.447 C12.4663,0.354 12.2593,0.32 12.0513,0.32 L2.1533,0.32 C1.7733,0.32 1.3633,0.456 1.0743,0.745 C0.7843,1.034 0.6083,1.403 0.6083,1.783 L0.6083,21.93 C0.6083,22.309 0.7843,22.692 1.0743,22.981 C1.3633,23.271 1.7733,23.419 2.1533,23.419 L17.2643,23.419 C17.6423,23.419 17.9853,23.271 18.2743,22.981 C18.5633,22.692 18.6723,22.309 18.6723,21.93 L18.6723,7.895 C18.6723,7.725 18.6803,7.551 18.6173,7.382" id="base" fill="#FFD5D8"></path>
                <g id="Group-6">
                    <polygon id="Path" fill="#FF6470" points="12.1743 0.5838 11.8433 6.1438 12.5653 7.2778 13.4193 7.6778 18.3433 7.6778 18.4813 7.2778 12.7633 0.5838"></polygon>
                    <path d="M18.092,21.9302 C18.092,22.1942 18.082,22.5472 17.893,22.7372 C17.627,23.0022 17.46,23.1152 17.264,23.1152 L2.153,23.1152 C1.908,23.1152 1.533,22.9522 1.318,22.7372 C1.103,22.5222 0.913,22.1752 0.913,21.9302 L0.913,1.7832 C0.913,1.5852 1.053,1.3922 1.318,1.1272 C1.508,0.9372 1.889,0.9012 2.153,0.9012 L11.563,0.9012 L11.563,6.0112 C11.563,6.5122 11.821,7.0362 12.195,7.4092 C12.569,7.7842 13.125,8.0112 13.623,8.0112 L18.092,8.0112 L18.092,13.3492 L7.782,13.3492 C7.404,13.3492 6.986,13.4882 6.696,13.7782 C6.407,14.0672 6.224,14.4402 6.224,14.8192 L6.224,18.3742 C6.224,18.7532 6.407,19.1302 6.696,19.4192 C6.986,19.7082 7.404,19.8502 7.782,19.8502 L18.092,19.8502 L18.092,21.9302 Z M12.448,0.9362 L12.516,0.9502 C12.665,1.0172 12.773,1.0552 12.823,1.1142 L17.925,7.1252 L13.623,7.1252 C13.363,7.1252 13.027,6.9882 12.821,6.7832 C12.617,6.5792 12.448,6.2732 12.448,6.0112 L12.448,0.9362 Z M20.949,13.7782 C20.66,13.4882 20.309,13.3492 19.93,13.3492 L18.977,13.3492 L18.977,7.8942 C18.977,7.8562 19.013,7.8172 19.016,7.7782 C19.027,7.6352 19.079,7.4392 18.995,7.2112 C18.929,7.0332 18.853,6.8302 18.695,6.6452 L13.499,0.5332 C13.317,0.3192 13.106,0.2232 12.92,0.1402 L12.849,0.1082 C12.642,0.0122 12.445,0.0002 12.297,0.0002 C12.252,0.0002 12.207,0.0072 12.161,0.0082 C12.125,0.0092 12.088,0.0162 12.051,0.0162 L2.153,0.0162 C1.526,0.0162 1.003,0.1752 0.677,0.5002 C0.381,0.7982 0,1.2072 0,1.7832 L0,21.9302 C0,22.4142 0.29,22.9762 0.677,23.3642 C1.066,23.7512 1.668,24.0002 2.153,24.0002 L17.264,24.0002 C17.839,24.0002 18.222,23.6602 18.519,23.3642 C18.844,23.0382 18.977,22.5582 18.977,21.9302 L18.977,19.8502 L19.93,19.8502 C20.309,19.8502 20.66,19.7082 20.949,19.4192 C21.239,19.1302 21.356,18.7532 21.356,18.3742 L21.356,14.8192 C21.356,14.4402 21.239,14.0672 20.949,13.7782 Z" id="Fill-4" fill="#DA2D3A"></path>
                </g>
                <path d="M10.366,15.144 L11.55,15.144 C12.238,15.144 12.586,15.436 12.586,16.02 C12.586,16.608 12.238,16.904 11.542,16.904 L10.834,16.904 L10.834,18 L10.366,18 L10.366,15.144 Z M10.834,15.544 L10.834,16.504 L11.514,16.504 C11.722,16.504 11.874,16.464 11.97,16.392 C12.066,16.316 12.114,16.192 12.114,16.02 C12.114,15.848 12.062,15.728 11.966,15.656 C11.87,15.58 11.718,15.544 11.514,15.544 L10.834,15.544 Z M12.986,15.144 L14.03,15.144 C14.494,15.144 14.842,15.272 15.082,15.528 C15.31,15.768 15.426,16.116 15.426,16.572 C15.426,17.024 15.31,17.372 15.082,17.616 C14.842,17.872 14.494,18 14.03,18 L12.986,18 L12.986,15.144 Z M13.454,15.544 L13.454,17.6 L13.942,17.6 C14.298,17.6 14.558,17.516 14.722,17.352 C14.882,17.184 14.962,16.924 14.962,16.572 C14.962,16.212 14.882,15.948 14.722,15.788 C14.558,15.624 14.298,15.544 13.942,15.544 L13.454,15.544 Z M15.866,15.144 L17.814,15.144 L17.814,15.544 L16.334,15.544 L16.334,16.336 L17.73,16.336 L17.73,16.736 L16.334,16.736 L16.334,18 L15.866,18 L15.866,15.144 Z" id="PDF" fill="#FFFFFF"></path>
                <path d="M7.7740444,4.44055824 C7.65236911,4.44055824 7.56384814,4.48486194 7.48639012,4.57331378 C7.25405064,4.86096806 7.23199386,5.59115809 7.40894939,6.520395 C8.08377275,5.80135436 8.44886777,5.1375421 8.36034679,4.78351004 C8.34926654,4.72821252 8.30504927,4.57331378 7.99532092,4.48486194 C7.90681723,4.45163849 7.84042217,4.44055824 7.7740444,4.44055824 M6.40225446,8.01394666 C6.75620009,8.11346146 7.1212951,8.23515403 7.46424691,8.36789228 C7.34257162,8.04710097 7.24297039,7.71521213 7.15451856,7.39435167 C6.91109883,7.60454794 6.65666801,7.81474421 6.40225446,8.01394666 M4.21173623,8.08030714 C3.6696684,8.08030714 3.51476965,8.21306268 3.47053509,8.2683602 C3.45945485,8.2905207 3.41523757,8.34581822 3.45945485,8.50064782 C3.4926783,8.63345522 3.58113014,8.76621076 3.86878442,8.76621076 C4.22281648,8.76621076 4.73172999,8.56709474 5.32911263,8.21306268 C4.89763984,8.1245417 4.52153372,8.08030714 4.21173623,8.08030714 M8.30504927,9.21975761 C8.72544181,10.0716402 9.12369114,10.4698895 9.3338874,10.4698895 C9.36711086,10.4698895 9.41134542,10.4588093 9.47774048,10.4035118 C9.55516392,10.3260538 9.55516392,10.2707562 9.54408367,10.226539 C9.4998664,10.0052624 9.14583434,9.64016743 8.30504927,9.21975761 M9.3338874,10.9013623 C8.63692083,10.9013623 8.01739499,9.7065452 7.68552343,8.93212061 C7.13237535,8.69983299 6.52392975,8.48963672 5.93755822,8.34581822 C5.4176336,8.68877003 4.54360779,9.1976144 3.86878442,9.1976144 C3.44839188,9.1976144 3.1497265,8.98741813 3.03906231,8.62239226 C2.95061047,8.32367501 3.02798206,8.11346146 3.11652033,8.00286641 C3.29356228,7.75944669 3.65858815,7.6377714 4.21173623,7.6377714 C4.65427197,7.6377714 5.2185003,7.71521213 5.84910639,7.87011088 C6.25841868,7.58247388 6.66774825,7.25058503 7.03277413,6.89657026 C6.86688156,6.12214567 6.68982232,4.87203102 7.1434556,4.29673974 C7.36471483,4.0201657 7.70766663,3.93171387 8.11699621,4.05338916 C8.57054306,4.18612741 8.73653934,4.46270145 8.79181958,4.672915 C8.97987264,5.4251791 8.11699621,6.44295427 7.53062468,7.04038876 C7.6633975,7.56031338 7.82934193,8.10239849 8.03953819,8.60024905 C8.88034055,8.97640703 9.8759898,9.5295551 9.9866367,10.138018 C10.0308886,10.3482143 9.9644935,10.5473303 9.7985145,10.7132401 C9.65476515,10.8349846 9.4998664,10.9013623 9.3338874,10.9013623" id="Fill-6" fill="#DA2D3A"></path>
            </g>
        </g>
    </g>
</svg>