<?xml version="1.0" encoding="UTF-8"?>
<svg width="22px" height="24px" viewBox="0 0 22 24" version="1.1" xmlns="http://www.w3.org/2000/svg" xmlns:xlink="http://www.w3.org/1999/xlink">
    <!-- Generator: Sketch 49 (51002) - http://www.bohemiancoding.com/sketch -->
    <title>ico-rar</title>
    <desc>Created with Sketch.</desc>
    <defs></defs>
    <g id="Page-1" stroke="none" stroke-width="1" fill="none" fill-rule="evenodd">
        <g id="Tablet" transform="translate(-93.000000, -53.000000)">
            <g id="ico-rar" transform="translate(93.000000, 53.000000)">
                <path d="M18.1203,7.146 C18.1173,7.139 18.1133,7.125 18.1103,7.125 L13.7983,7.125 C13.4523,7.125 13.1073,7.073 12.8433,6.809 C12.5793,6.545 12.4483,6.278 12.4483,5.932 L12.4483,0.789 C12.4483,0.804 12.5763,0.816 12.6213,0.837 C12.8053,0.922 12.9793,1.037 13.1023,1.181 L17.8713,6.755 C17.9673,6.867 18.0543,6.821 18.1103,7.125 L18.1283,7.125 C18.1253,7.125 18.1243,7.155 18.1203,7.146 M18.6173,7.382 C18.5553,7.213 18.4823,7.063 18.3723,6.934 L13.1693,0.821 C13.0343,0.663 12.8683,0.54 12.6673,0.447 C12.4663,0.354 12.2593,0.32 12.0513,0.32 L2.1533,0.32 C1.7733,0.32 1.3633,0.456 1.0743,0.745 C0.7843,1.034 0.6083,1.403 0.6083,1.783 L0.6083,21.93 C0.6083,22.309 0.7843,22.692 1.0743,22.981 C1.3633,23.271 1.7733,23.419 2.1533,23.419 L17.2643,23.419 C17.6423,23.419 17.9853,23.271 18.2743,22.981 C18.5633,22.692 18.6723,22.309 18.6723,21.93 L18.6723,7.895 C18.6723,7.725 18.6803,7.551 18.6173,7.382" id="base" fill="#FFE6FE"></path>
                <g id="Group-6">
                    <polygon id="Path" fill="#FBB5F7" points="12.1743 0.5838 11.8433 6.1438 12.5653 7.2778 13.4193 7.6778 18.3433 7.6778 18.4813 7.2778 12.7633 0.5838"></polygon>
                    <path d="M18.092,21.9302 C18.092,22.1942 18.082,22.5472 17.893,22.7372 C17.627,23.0022 17.46,23.1152 17.264,23.1152 L2.153,23.1152 C1.908,23.1152 1.533,22.9522 1.318,22.7372 C1.103,22.5222 0.913,22.1752 0.913,21.9302 L0.913,1.7832 C0.913,1.5852 1.053,1.3922 1.318,1.1272 C1.508,0.9372 1.889,0.9012 2.153,0.9012 L11.563,0.9012 L11.563,6.0112 C11.563,6.5122 11.821,7.0362 12.195,7.4092 C12.569,7.7842 13.125,8.0112 13.623,8.0112 L18.092,8.0112 L18.092,13.3492 L7.782,13.3492 C7.404,13.3492 6.986,13.4882 6.696,13.7782 C6.407,14.0672 6.224,14.4402 6.224,14.8192 L6.224,18.3742 C6.224,18.7532 6.407,19.1302 6.696,19.4192 C6.986,19.7082 7.404,19.8502 7.782,19.8502 L18.092,19.8502 L18.092,21.9302 Z M12.448,0.9362 L12.516,0.9502 C12.665,1.0172 12.773,1.0552 12.823,1.1142 L17.925,7.1252 L13.623,7.1252 C13.363,7.1252 13.027,6.9882 12.821,6.7832 C12.617,6.5792 12.448,6.2732 12.448,6.0112 L12.448,0.9362 Z M20.949,13.7782 C20.66,13.4882 20.309,13.3492 19.93,13.3492 L18.977,13.3492 L18.977,7.8942 C18.977,7.8562 19.013,7.8172 19.016,7.7782 C19.027,7.6352 19.079,7.4392 18.995,7.2112 C18.929,7.0332 18.853,6.8302 18.695,6.6452 L13.499,0.5332 C13.317,0.3192 13.106,0.2232 12.92,0.1402 L12.849,0.1082 C12.642,0.0122 12.445,0.0002 12.297,0.0002 C12.252,0.0002 12.207,0.0072 12.161,0.0082 C12.125,0.0092 12.088,0.0162 12.051,0.0162 L2.153,0.0162 C1.526,0.0162 1.003,0.1752 0.677,0.5002 C0.381,0.7982 0,1.2072 0,1.7832 L0,21.9302 C0,22.4142 0.29,22.9762 0.677,23.3642 C1.066,23.7512 1.668,24.0002 2.153,24.0002 L17.264,24.0002 C17.839,24.0002 18.222,23.6602 18.519,23.3642 C18.844,23.0382 18.977,22.5582 18.977,21.9302 L18.977,19.8502 L19.93,19.8502 C20.309,19.8502 20.66,19.7082 20.949,19.4192 C21.239,19.1302 21.356,18.7532 21.356,18.3742 L21.356,14.8192 C21.356,14.4402 21.239,14.0672 20.949,13.7782 Z" id="Fill-4" fill="#B239A3"></path>
                </g>
                <path d="M16.4094,16.2817 L17.2904,16.2817 C17.4374,16.2817 17.5434,16.2597 17.6044,16.2157 C17.6994,16.1497 17.7464,16.0367 17.7464,15.8747 C17.7464,15.6937 17.6764,15.5787 17.5344,15.5287 C17.4834,15.5107 17.4024,15.5027 17.2904,15.5027 L16.4094,15.5027 L16.4094,16.2817 Z M16.4094,16.8077 L16.4094,17.9287 L15.7804,17.9287 L15.7804,14.9747 L17.2234,14.9747 C17.6374,14.9747 17.9254,15.0287 18.0874,15.1357 C18.1994,15.2057 18.2864,15.2997 18.3464,15.4157 C18.4074,15.5327 18.4374,15.6607 18.4374,15.7997 C18.4374,16.0797 18.3664,16.2967 18.2244,16.4497 C18.1364,16.5417 18.0194,16.6107 17.8754,16.6577 C17.9904,16.6997 18.0774,16.7427 18.1364,16.7887 C18.1954,16.8347 18.2484,16.9017 18.2954,16.9897 C18.3314,17.0607 18.3564,17.1297 18.3734,17.1937 C18.3884,17.2587 18.4014,17.3547 18.4104,17.4817 C18.4284,17.6937 18.4524,17.8437 18.4814,17.9287 L17.7774,17.9287 C17.7574,17.8607 17.7344,17.7197 17.7114,17.5087 C17.6964,17.3377 17.6664,17.2057 17.6204,17.1137 C17.5744,17.0227 17.5064,16.9497 17.4144,16.8967 C17.2994,16.8357 17.1324,16.8047 16.9144,16.8077 L16.4094,16.8077 Z M13.8814,15.6877 L13.4604,16.7197 L14.3024,16.7197 L13.8814,15.6877 Z M12.2964,17.9287 L13.5174,14.9747 L14.2394,14.9747 L15.4624,17.9287 L14.7264,17.9287 L14.4384,17.2467 L13.3184,17.2467 L13.0304,17.9287 L12.2964,17.9287 Z M10.0514,16.2817 L10.9314,16.2817 C11.0794,16.2817 11.1844,16.2597 11.2464,16.2157 C11.3414,16.1497 11.3884,16.0367 11.3884,15.8747 C11.3884,15.6937 11.3174,15.5787 11.1754,15.5287 C11.1254,15.5107 11.0444,15.5027 10.9314,15.5027 L10.0514,15.5027 L10.0514,16.2817 Z M10.0514,16.8077 L10.0514,17.9287 L9.4224,17.9287 L9.4224,14.9747 L10.8654,14.9747 C11.2784,14.9747 11.5664,15.0287 11.7284,15.1357 C11.8414,15.2057 11.9274,15.2997 11.9874,15.4157 C12.0484,15.5327 12.0784,15.6607 12.0784,15.7997 C12.0784,16.0797 12.0084,16.2967 11.8664,16.4497 C11.7774,16.5417 11.6614,16.6107 11.5164,16.6577 C11.6314,16.6997 11.7194,16.7427 11.7774,16.7887 C11.8364,16.8347 11.8894,16.9017 11.9364,16.9897 C11.9724,17.0607 11.9984,17.1297 12.0144,17.1937 C12.0304,17.2587 12.0434,17.3547 12.0524,17.4817 C12.0694,17.6937 12.0944,17.8437 12.1234,17.9287 L11.4194,17.9287 C11.3984,17.8607 11.3764,17.7197 11.3524,17.5087 C11.3384,17.3377 11.3074,17.2057 11.2624,17.1137 C11.2164,17.0227 11.1474,16.9497 11.0554,16.8967 C10.9404,16.8357 10.7734,16.8047 10.5554,16.8077 L10.0514,16.8077 Z" id="Fill-7" fill="#FFFFFF"></path>
                <path d="M5.298,6.124 L6.779,6.124 L6.779,5.531 L5.298,5.531 L5.298,6.124 Z M5.238,8.486 L5.567,7.015 L6.214,7.015 L6.543,8.486 L5.238,8.486 Z M6.779,6.42 L5.002,6.42 L4.409,9.087 L7.372,9.087 L6.779,6.42 Z M5.002,5.236 L6.483,5.236 L6.483,4.643 L5.002,4.643 L5.002,5.236 Z M5.298,4.346 L6.779,4.346 L6.779,3.754 L5.298,3.754 L5.298,4.346 Z M5.002,3.458 L6.483,3.458 L6.483,2.865 L5.002,2.865 L5.002,3.458 Z" id="Fill-9" fill="#B239A3"></path>
            </g>
        </g>
    </g>
</svg>