<?xml version="1.0" encoding="UTF-8"?>
<svg width="24px" height="24px" viewBox="0 0 24 24" version="1.1" xmlns="http://www.w3.org/2000/svg" xmlns:xlink="http://www.w3.org/1999/xlink">
    <!-- Generator: Sketch 60 (88103) - https://sketch.com -->
    <title>logo-umis</title>
    <desc>Created with Sketch.</desc>
    <defs>
        <linearGradient x1="33.5907911%" y1="76.520303%" x2="54.2676378%" y2="33.8393628%" id="linearGradient-1">
            <stop stop-color="#7FF7AD" offset="12.39%"></stop>
            <stop stop-color="#75F3AD" offset="18.56%"></stop>
            <stop stop-color="#55E5AE" offset="40.64%"></stop>
            <stop stop-color="#3EDBAF" offset="62.02%"></stop>
            <stop stop-color="#31D5AF" offset="82.23%"></stop>
            <stop stop-color="#2CD3AF" offset="100%"></stop>
        </linearGradient>
        <linearGradient x1="39.4087262%" y1="71.0569268%" x2="70.3424604%" y2="14.2090732%" id="linearGradient-2">
            <stop stop-color="#106284" offset="0%"></stop>
            <stop stop-color="#29A7A5" offset="100%"></stop>
        </linearGradient>
        <linearGradient x1="39.6580212%" y1="89.0203125%" x2="72.447307%" y2="21.3257161%" id="linearGradient-3">
            <stop stop-color="#D32DAF" offset="0%"></stop>
            <stop stop-color="#891CB5" offset="100%"></stop>
        </linearGradient>
        <linearGradient x1="80.0686559%" y1="89.8873698%" x2="21.0605768%" y2="30.9886719%" id="linearGradient-4">
            <stop stop-color="#357FE7" offset="0%"></stop>
            <stop stop-color="#4BA1E7" offset="100%"></stop>
        </linearGradient>
        <linearGradient x1="29.4241128%" y1="71.5097561%" x2="60.8506872%" y2="13.7561951%" id="linearGradient-5">
            <stop stop-color="#A6167D" offset="0%"></stop>
            <stop stop-color="#971A91" offset="22.83%"></stop>
            <stop stop-color="#7026C4" offset="69.27%"></stop>
            <stop stop-color="#542EE9" offset="100%"></stop>
        </linearGradient>
        <linearGradient x1="36.683172%" y1="74.3625262%" x2="63.2983382%" y2="23.0325192%" id="linearGradient-6">
            <stop stop-color="#0E1F6F" offset="0%"></stop>
            <stop stop-color="#103289" offset="100%"></stop>
        </linearGradient>
        <linearGradient x1="47.0927472%" y1="75.0314844%" x2="61.6157459%" y2="24.9944531%" id="linearGradient-7">
            <stop stop-color="#39249E" offset="23.04%"></stop>
            <stop stop-color="#4135B9" offset="84.81%"></stop>
        </linearGradient>
    </defs>
    <g id="页面-1" stroke="none" stroke-width="1" fill="none" fill-rule="evenodd">
        <g id="form2-red备份" transform="translate(-92.000000, -628.000000)" fill-rule="nonzero">
            <g id="aside">
                <g id="logo-umis" transform="translate(92.000000, 628.000000)">
                    <path d="M1.62486694,12.8103896 C0.643815201,11.4805195 0.0613157334,9.82857143 0.0510964445,8.03116883 C0.0510964445,8.43636364 0.0510964445,20 0.0510964445,20 C0.0510964445,21.2155844 0.592718757,22.4103896 1.62486694,23.1896104 C3.36214605,24.5090909 5.82499468,24.1558442 7.12284437,22.3896104 L7.90972961,21.3298701 L1.62486694,12.8103896 L1.62486694,12.8103896 Z" id="path2" fill="url(#linearGradient-1)"></path>
                    <path d="M9.47328082,12.8103896 L9.47328082,12.8103896 C8.49222908,11.4701299 7.89951033,9.81818182 7.89951033,8.02077922 C7.89951033,5.07012987 9.48350011,2.48311688 11.8237173,1.11168831 C10.6689376,0.436363636 9.33021077,0.0415584416 7.89951033,0.0415584416 C3.56653183,0.0415584416 0.0408771556,3.61558442 0.0408771556,8.03116883 C0.0408771556,8.03116883 0.0408771556,8.03116883 0.0408771556,8.04155844 C0.0408771556,9.83896104 0.623376623,11.4909091 1.61464765,12.8207792 L1.61464765,12.8207792 L7.89951033,21.3402597 L11.8237173,16.0207792 L9.47328082,12.8103896 Z" id="path3" fill="url(#linearGradient-2)"></path>
                    <path d="M19.6925697,23.9896104 C18.4458165,23.9896104 17.3012561,23.4077922 16.5450287,22.3896104 L15.7581435,21.3298701 L22.0430062,12.8103896 C23.0649351,11.4181818 23.6065574,9.76623377 23.6167767,8.03116883 C23.6167767,8.51948052 23.6167767,19.9896104 23.6167767,20 C23.6167767,21.2675325 23.0444965,22.4311688 22.0430062,23.1896104 C21.3583138,23.7090909 20.5407707,23.9896104 19.6925697,23.9896104 Z" id="path4" fill="url(#linearGradient-3)"></path>
                    <path d="M11.8339366,16 L11.8339366,16 L11.8339366,16 L11.8339366,16 L11.8339366,16 L7.90972961,21.3194805 L8.69661486,22.3792208 C9.46306153,23.4285714 10.648499,23.9792208 11.8339366,23.9792208 L11.8339366,23.9792208 L11.8339366,23.9792208 L11.8339366,23.9792208 L11.8339366,23.9792208 C13.0295934,23.9792208 14.2048116,23.4285714 14.9712582,22.3792208 L15.7581435,21.3194805 L11.8339366,16 Z" id="path5" fill="url(#linearGradient-4)"></path>
                    <path d="M14.184373,12.8103896 L14.184373,12.8103896 C15.1654247,11.4701299 15.7581435,9.81818182 15.7581435,8.02077922 C15.7581435,5.07012987 14.1741537,2.48311688 11.8339366,1.11168831 C12.9887162,0.436363636 14.327443,0.0415584416 15.7581435,0.0415584416 C20.091122,0.0415584416 23.6167767,3.61558442 23.6167767,8.03116883 C23.6167767,8.03116883 23.6167767,8.03116883 23.6167767,8.04155844 C23.6167767,9.83896104 23.0342772,11.4909091 22.0430062,12.8207792 L22.0430062,12.8207792 L15.7581435,21.3402597 L11.8339366,16 L14.184373,12.8103896 Z" id="path6" fill="url(#linearGradient-5)"></path>
                    <path d="M14.184373,12.8103896 C15.175644,11.4805195 15.7581435,9.81818182 15.7581435,8.02077922 C15.7581435,5.07012987 14.1741537,2.48311688 11.8339366,1.11168831 L11.8339366,1.11168831 L11.8339366,1.11168831 L11.8339366,1.11168831 L11.8339366,1.11168831 C9.48350011,2.49350649 7.90972961,5.07012987 7.90972961,8.02077922 C7.90972961,9.81818182 8.49222908,11.4805195 9.48350011,12.8103896 L9.48350011,12.8103896 L11.8441558,16 L11.8441558,16 L11.8441558,16 L11.8441558,16 L11.8441558,16 L14.184373,12.8103896 L14.184373,12.8103896 Z" id="path7" fill="url(#linearGradient-6)"></path>
                    <path d="M14.184373,12.8103896 L14.184373,12.8103896 L11.8339366,16 L11.8339366,16 L11.8339366,16 L11.8339366,16 L15.7581435,21.3194805 L15.7581435,8.02077922 C15.7581435,9.81818182 15.175644,11.4701299 14.184373,12.8103896 Z" id="path8" fill="url(#linearGradient-7)"></path>
                    <path d="M9.47328082,12.8103896 L9.47328082,12.8103896 L11.8339366,16 L11.8339366,16 L11.8339366,16 L11.8339366,16 L7.90972961,21.3194805 L7.90972961,8.02077922 C7.89951033,9.81818182 8.49222908,11.4701299 9.47328082,12.8103896 Z" id="path0" fill="#0A4F90"></path>
                </g>
            </g>
        </g>
    </g>
</svg>